<svg width="496" height="496" viewBox="0 0 496 496" fill="none" xmlns="http://www.w3.org/2000/svg">
<g clip-path="url(#clip0_5794_45689)">
<path d="M496 0H0V496H496V0Z" fill="white"/>
<path d="M438.846 40.9775L438.263 41.7902M438.846 40.9775C396.092 10.3285 336.534 2.77082 285.557 2.0403C234.239 1.29865 172.99 10.7411 121.252 34.8198C69.5069 58.902 27.169 97.6833 13.9579 155.648C6.52403 188.253 4.37814 222.036 7.18641 255.334C12.7322 321.072 37.7646 385.995 81.997 435.506C128.764 487.873 194.081 507.609 260.845 484.063C328.597 460.17 379.146 406.628 420.015 349.814C465.012 287.256 497.3 210.977 489.918 132.387C486.504 96.0656 468.792 62.4514 438.846 40.9775Z" stroke="#F97316" stroke-width="2"/>
<mask id="mask0_5794_45689" style="mask-type:alpha" maskUnits="userSpaceOnUse" x="6" y="3" width="484" height="490">
<path d="M285.54 3.04019C336.48 3.77019 395.77 11.3302 438.26 41.7902C467.95 63.0802 485.53 96.4202 488.92 132.48C496.27 210.74 464.12 286.78 419.2 349.23C378.37 405.99 327.97 459.33 260.51 483.12C194.16 506.52 129.26 486.93 82.7399 434.84C38.6699 385.51 13.7099 320.8 8.17995 255.25C5.37995 222.05 7.51995 188.37 14.9299 155.87C41.1699 40.7402 183.13 1.56019 285.54 3.04019Z" fill="#071713"/>
</mask>
<g mask="url(#mask0_5794_45689)">
<path d="M603 -13H-107V508H603V-13Z" fill="white"/>
<path d="M540.598 478.027H-40.1191C-44.5342 473.817 -48.6632 469.289 -52.4498 464.401C-87.3963 419.284 -88.9144 350.095 -57.4408 302.182C-45.9263 284.654 -31.3191 270.491 -18.196 253.596C12.4095 214.193 3.71038 156.039 23.2093 110.597C41.6885 67.5312 74.7233 32.1642 114.52 15.2159C173.496 -9.90018 249.171 10.1789 298.646 51.3963C339.586 85.5046 370.866 119.547 423.811 123.616C490.511 128.743 548.478 150.592 587.339 218.659C608.457 255.65 616.365 300.706 611.972 344.136C605.757 405.584 578.356 448.517 540.598 478.027Z" fill="#FCF0E8"/>
<path d="M-69.4985 297.331C-62.4093 286.567 -54.4278 277.34 -45.9765 267.569C-40.2949 261.033 -35.1879 255.1 -30.2155 248.695C-12.4945 225.87 -7.94127 196.061 -3.53463 167.205C-0.358785 146.404 2.92461 124.895 11.0864 105.868C30.0164 61.7642 63.4297 26.8681 102.762 10.1277C130.867 -1.84701 164.06 -4.21074 198.744 3.29673C231.019 10.2987 262.538 25.6082 287.496 46.4035C293.513 51.4028 299.526 56.5958 304.83 61.1772C338.326 90.0593 367.255 115.002 412.331 118.478C449.342 121.322 479.574 129.166 504.752 142.454C534.456 158.141 557.877 181.494 576.351 213.846C596.888 249.795 605.674 294.534 601.092 339.822C595.37 396.321 571.262 441.542 529.382 474.271L529.272 474.354H522.635V473.381H529.006C570.579 440.866 594.544 395.893 600.235 339.711C604.795 294.646 596.056 250.135 575.627 214.374C557.242 182.178 533.939 158.941 504.386 143.335C479.306 130.098 449.175 122.283 412.273 119.446C366.937 115.954 337.913 90.9273 304.307 61.9483C299.004 57.3709 292.994 52.1796 286.985 47.1859C262.129 26.4745 230.733 11.2276 198.583 4.25021C164.055 -3.2213 131.027 -0.874558 103.065 11.0395C63.9385 27.691 30.6971 62.4104 11.8613 106.294C3.75351 125.195 0.481727 146.634 -2.68903 167.397C-7.11265 196.359 -11.6859 226.305 -29.5655 249.337C-34.5531 255.76 -39.6703 261.701 -45.3601 268.249C-53.7896 277.995 -61.7527 287.199 -68.8063 297.91C-84.0706 321.166 -92.0136 350.296 -91.1717 379.93C-90.3314 409.785 -80.6205 438.168 -63.8288 459.849C-60.1478 464.584 -56.0242 469.136 -51.5703 473.381H-44.806V474.354H-51.7387L-51.9408 474.33L-52.067 474.182C-56.5763 469.889 -60.7506 465.283 -64.4772 460.489C-81.4002 438.639 -91.187 410.04 -92.0337 379.961C-92.881 350.108 -84.8791 320.764 -69.4985 297.331Z" fill="#FCF0E8"/>
<path d="M478.016 419.735C478.86 426.638 479.348 433.54 479.517 440.423C479.636 444.819 479.616 449.206 479.467 453.582C479.347 457.302 479.139 461.022 478.821 464.722C478.771 465.488 478.712 466.253 478.642 467.009C478.418 469.407 478.152 471.798 477.863 474.186H491.623C495.059 468.276 497.314 461.849 499.396 455.094C504.883 437.34 507.05 417.925 503.909 399.177C502.07 388.176 497.706 376.549 487.627 369.219C481.137 364.495 473.831 367.598 471.952 373.814C469.825 380.856 472.002 388.574 473.702 395.745C475.6 403.722 477.042 411.679 478.016 419.735Z" fill="#C6E5FD"/>
<path d="M494.387 407.001C496.742 423.999 496.126 441.644 491.564 458.223C490.049 463.718 488.059 469.06 485.607 474.183H486.713C499.266 447.709 499.532 415.165 491.226 387.596C489.277 381.151 486.803 374.716 483.125 369.047C482.787 368.51 481.922 369.007 482.27 369.554C489.377 380.535 492.617 394.2 494.387 407.001Z" fill="#B9E0FB"/>
<path d="M446.457 411.219C462.346 428.627 471.544 451.113 475.924 474.184H476.93C472.576 451.16 463.492 428.743 447.799 411.229C447.391 410.762 446.974 410.304 446.546 409.847C446.109 409.369 445.403 410.076 445.841 410.543C446.049 410.762 446.258 410.991 446.457 411.219Z" fill="#B9E0FB"/>
<path d="M460.153 437.241C456.803 438.731 452.795 439.176 448.968 438.485C445.142 437.793 441.524 435.968 438.872 433.394C442.078 431.518 445.438 430.38 449.399 430.996C453.36 431.611 457.586 434.467 460.153 437.241Z" fill="#CDE8F9"/>
<path d="M472.699 469.129C469.304 470.25 465.476 470.32 462.018 469.326C458.56 468.332 455.496 466.28 453.468 463.6C456.797 462.099 460.139 461.313 463.736 462.247C467.333 463.181 470.785 466.267 472.699 469.129Z" fill="#CDE8F9"/>
<path d="M462.209 403.121C457.376 407.096 455.567 413.623 457.701 419.392C460.892 418.798 463.546 415.925 463.931 413.105C464.317 410.285 463.826 405.704 462.209 403.121Z" fill="#CDE8F9"/>
<path d="M451.5 420.775C445.694 424.734 437.644 423.575 432.818 418.086C438.785 414.632 446.321 415.858 451.5 420.775Z" fill="#CDE8F9"/>
<path d="M484.207 437.012C477.246 440.657 473.209 447.945 474.144 455.182C478.161 455.164 482.18 452.35 483.446 449.117C484.713 445.883 485.424 440.393 484.207 437.012Z" fill="#CDE8F9"/>
<path d="M466.27 455.485C458.142 458.903 448.76 455.827 444.498 448.346C452.679 445.556 461.421 448.601 466.27 455.485Z" fill="#CDE8F9"/>
<path d="M478.694 467.829C478.002 461.084 483.463 456.007 491.366 456.047C491.483 462.584 486.235 467.246 478.694 467.829Z" fill="#CDE8F9"/>
<path d="M432.668 397.484C436.488 398.228 440.219 399.758 443.071 402.172C445.923 404.585 447.821 407.928 447.794 411.27C443.719 411.265 439.134 410.14 436.255 407.485C433.376 404.83 432.4 400.989 432.668 397.484Z" fill="#CDE8F9"/>
<path d="M476.65 418.277C477.112 421.621 476.668 425.062 474.946 427.964C473.224 430.865 470.146 433.174 466.421 433.879C465.052 430.484 464.756 426.419 466.737 423.443C468.718 420.466 472.661 418.816 476.65 418.277Z" fill="#CDE8F9"/>
<path d="M0.0739555 458.046C0.511194 458.583 0.978446 459.12 1.4655 459.667C2.18121 460.512 2.93653 461.388 3.68196 462.352C4.96425 464.023 5.98786 465.883 6.72367 467.852C7.49626 469.879 7.92954 472.021 8.07613 474.184H29.9895C29.9926 473.044 29.9123 471.903 29.734 470.767C29.2965 467.942 28.5411 465.117 28.5711 462.342C28.581 461.417 28.6804 460.502 28.909 459.587C29.2073 458.413 29.6842 457.329 30.2907 456.305C31.6921 453.957 33.7396 451.928 35.6284 449.82C36.1949 449.193 36.7417 448.557 37.2584 447.9C39.465 445.105 40.9958 441.813 41.8207 438.342C42.7549 434.453 42.8149 430.335 41.96 426.447C41.6617 425.004 41.2244 423.602 40.6579 422.249C37.2486 414.014 27.1697 409.19 26.6827 399.413C26.3346 392.381 31.8514 385.419 29.4756 378.785C27.6766 373.732 23.144 370.49 18.8698 367.605C16.6632 366.113 14.9137 365.188 13.403 362.851C12.5979 361.608 10.7491 357.739 10.8289 355.68C9.33777 358.544 7.89671 361.468 7.17109 364.611C6.49528 367.555 6.62435 370.658 7.59872 373.513C8.59263 376.407 9.99405 378.983 10.0339 382.136C10.1533 390.292 2.73816 396.309 -0.770509 403.66C-2.89755 408.096 -3.26547 412.91 -2.47023 417.723C-1.66509 422.538 0.780047 426.685 1.74396 431.419C2.37024 434.543 1.45587 437.297 0.243197 440.003C-0.641468 442.002 -1.69508 443.971 -2.3907 446.05C-2.56956 446.597 -2.7286 447.164 -2.84803 447.731C-2.86784 447.79 -2.87775 447.84 -2.88765 447.9C-3.84193 452.545 -2.25146 455.24 0.0646279 458.035C0.0646279 458.035 0.0739555 458.036 0.0739555 458.046Z" fill="#C6E5FD"/>
<path d="M34.5526 474.186C40.5446 453.959 50.639 434.773 66.1039 420.322C66.3125 420.113 66.5313 419.924 66.7401 419.725C67.2074 419.298 66.5016 418.591 66.0343 419.029C65.6268 419.407 65.2193 419.785 64.8118 420.183C49.4968 434.733 39.4754 453.955 33.5264 474.186H34.5526Z" fill="#B9E0FB"/>
<path d="M51.2251 443.765C54.2637 445.417 58.0002 446.138 61.6506 445.774C65.3011 445.411 68.8411 443.967 71.5279 441.745C68.6535 439.739 65.579 438.417 61.8079 438.698C58.0367 438.98 53.848 441.349 51.2251 443.765Z" fill="#CDE8F9"/>
<path d="M37.0337 472.812C40.1427 474.121 43.7377 474.475 47.0644 473.8C50.3911 473.124 53.4271 471.425 55.5355 469.056C52.5173 467.395 49.4326 466.405 45.9797 467.013C42.5267 467.621 39.0489 470.263 37.0337 472.812Z" fill="#CDE8F9"/>
<path d="M51.8516 411.52C56.0994 415.622 57.3104 421.895 54.8703 427.161C51.9144 426.363 49.6339 423.461 49.4828 420.78C49.3317 418.099 50.1366 413.827 51.8516 411.52Z" fill="#CDE8F9"/>
<path d="M60.5991 428.927C65.7616 433.086 73.4199 432.602 78.371 427.802C73.018 424.105 65.8386 424.692 60.5991 428.927Z" fill="#CDE8F9"/>
<path d="M28.6201 441.742C34.8934 445.693 38.1428 452.85 36.721 459.586C32.9441 459.267 29.376 456.319 28.4274 453.183C27.4787 450.047 27.2221 444.83 28.6201 441.742Z" fill="#CDE8F9"/>
<path d="M44.1035 460.461C51.4913 464.286 60.5457 462.098 65.115 455.382C57.6308 452.143 49.1809 454.351 44.1035 460.461Z" fill="#CDE8F9"/>
<path d="M31.4931 471.137C32.6495 464.846 27.8948 459.661 20.4589 459.105C19.8589 465.244 24.4447 470.023 31.4931 471.137Z" fill="#CDE8F9"/>
<path d="M80.0572 408.438C76.409 408.85 72.7851 410.008 69.9217 412.064C67.0586 414.119 65.0224 417.121 64.7974 420.266C68.6301 420.567 73.0265 419.853 75.9335 417.572C78.8405 415.292 80.047 411.753 80.0572 408.438Z" fill="#CDE8F9"/>
<path d="M37.1332 424.691C36.4477 427.802 36.6065 431.071 38.0082 433.93C39.4099 436.788 42.1313 439.191 45.5825 440.134C47.1248 437.043 47.7078 433.243 46.0681 430.294C44.4284 427.346 40.8433 425.498 37.1332 424.691Z" fill="#CDE8F9"/>
<path d="M-6.17844 474.185H6.53062C6.57137 473.966 6.62543 473.775 6.65968 473.543C7.58566 467.263 5.2506 460.617 3.84577 454.603C-3.11015 424.821 -11.4533 396.459 -31.0241 372.423C-39.0772 362.533 -49.5703 353.486 -62.2338 352.009C-74.9106 350.53 -74.3008 364.861 -70.9353 372.682C-55.0832 409.515 -23.535 437.631 -6.34967 473.863C-6.29675 473.975 -6.23363 474.075 -6.17844 474.185Z" fill="#CDE8F9"/>
<path d="M18.5421 391.727C18.2537 397.018 15.9079 401.156 13.5225 405.731C11.9419 408.755 10.6299 412.007 11.2859 415.468C12.0217 419.347 14.4369 422.649 16.2857 426.041C18.6909 430.427 19.7446 435.251 19.3073 440.234C18.522 449.355 13.8307 457.57 12.916 466.681C12.6667 469.176 12.6338 471.681 12.6955 474.185H13.6889C13.6385 472.244 13.6405 470.303 13.7707 468.361C14.387 459.171 18.8599 451.015 20.1122 441.964C20.6887 437.747 20.4105 433.48 18.9493 429.462C17.5974 425.762 15.212 422.599 13.5519 419.048C11.1167 413.827 12.5181 409.599 15.1622 404.786C17.1602 401.145 18.8797 397.654 19.3767 393.467C19.9135 389.021 19.5852 383.909 17.7763 379.771C16.9015 377.762 15.7288 375.922 14.7049 373.993C13.2239 371.198 12.1904 368.254 11.4945 365.18C11.3555 364.554 10.4012 364.813 10.5402 365.439C11.5341 369.855 13.3928 373.625 15.5499 377.553C17.9656 381.96 18.8104 386.714 18.5421 391.727Z" fill="#B9E0FB"/>
<path d="M253.072 496.001C451.934 496.001 613.143 487.335 613.143 476.645C613.143 465.955 451.934 457.289 253.072 457.289C54.2096 457.289 -107 465.955 -107 476.645C-107 487.335 54.2096 496.001 253.072 496.001Z" fill="#FCF0E8"/>
<path d="M302.23 171.279V46.332H203.106V171.279H302.23Z" fill="white"/>
<path d="M420.471 171.279V46.332H321.347V171.279H420.471Z" fill="white"/>
<path d="M302.23 315.353V190.406H203.106V315.353H302.23Z" fill="white"/>
<path d="M420.471 315.353V190.406H321.347V315.353H420.471Z" fill="white"/>
<path d="M146.473 89.3633C160.872 74.9556 160.872 51.5961 146.474 37.1885C132.075 22.7808 108.731 22.7809 94.3322 37.1887C79.9336 51.5964 79.9335 74.9559 94.332 89.3635C108.73 103.771 132.075 103.771 146.473 89.3633Z" fill="#F97316"/>
<path d="M90.7349 63.2749C90.7349 79.3492 103.499 92.4377 119.436 92.9499C119.757 92.9601 120.081 92.9664 120.405 92.9664C136.792 92.9664 150.077 79.6737 150.077 63.2751C150.077 46.8785 136.791 33.5859 120.405 33.5859C120.081 33.5859 119.756 33.5921 119.436 33.6023C103.499 34.114 90.7349 47.2025 90.7349 63.2749Z" fill="white"/>
<path d="M120.405 96.3667C120.043 96.3667 119.682 96.3596 119.325 96.3488C110.721 96.0722 102.675 92.5092 96.6698 86.3162C90.6512 80.1094 87.3369 71.9268 87.3369 63.2758C87.3369 54.626 90.6512 46.4443 96.6698 40.238C102.675 34.0451 110.721 30.4821 119.325 30.206C119.682 30.1946 120.043 30.1875 120.404 30.1875C138.639 30.1875 153.473 45.0309 153.473 63.2758C153.474 81.5222 138.639 96.3667 120.405 96.3667ZM120.405 31.203C120.054 31.203 119.703 31.2101 119.357 31.2209C101.971 31.7799 88.3521 45.8598 88.3521 63.2758C88.3521 80.693 101.971 94.7743 119.358 95.3336C119.703 95.3441 120.054 95.3509 120.405 95.3509C138.079 95.3509 152.459 80.9618 152.459 63.2758C152.459 45.5905 138.079 31.203 120.405 31.203Z" fill="white"/>
<path d="M108.994 57.0783C109.041 56.9194 109.18 56.8083 109.332 56.8083C109.384 56.8083 109.434 56.8208 109.482 56.846L120.021 62.4593L130.476 45.7424C130.536 45.6478 130.636 45.5938 130.75 45.5938C130.879 45.5938 131.006 45.666 131.074 45.7775C131.133 45.8767 131.137 45.9959 131.084 46.097L121.454 64.2499L121.467 64.2577L121.349 64.4464L121.246 64.6415L121.213 64.6222C121.003 64.8479 120.71 64.9796 120.394 64.9796C120.284 64.9796 120.175 64.9612 120.067 64.9278L120.048 64.9618L119.853 64.8399L118.967 64.2846L118.971 64.2764L109.128 57.4543C109.003 57.3748 108.951 57.2269 108.994 57.0783Z" fill="#F97316"/>
<path d="M120.087 41.305H120.726V36.543H120.087V41.305Z" fill="#F97316"/>
<path d="M120.087 90.0081H120.726V85.2461H120.087V90.0081Z" fill="#F97316"/>
<path d="M98.4499 63.5967V62.957H93.6909V63.5967H98.4499Z" fill="#F97316"/>
<path d="M147.121 63.5967V62.957H142.362V63.5967H147.121Z" fill="#F97316"/>
<path d="M137.01 363.706H194.87C195.202 363.706 195.471 363.436 195.471 363.104V355.535H136.408V363.104C136.408 363.436 136.677 363.706 137.01 363.706Z" fill="#3094D0"/>
<path d="M160.953 407.839H170.926V361.129H160.953V407.839Z" fill="#3094D0"/>
<path d="M158.836 447.84H173.043V393.77H158.836V447.84Z" fill="#3094D0"/>
<path d="M127.278 444.336H162.504H165.94H169.376H204.602C208.397 444.336 211.474 447.395 211.474 451.168V462.063H204.602V451.168H169.376V462.063H165.94H162.504V451.168H127.278V462.063H120.406V451.168C120.406 447.395 123.482 444.336 127.278 444.336Z" fill="#3094D0"/>
<path d="M121.171 470.406C125.806 470.406 129.564 466.67 129.564 462.061C129.564 457.452 125.806 453.715 121.171 453.715C116.535 453.715 112.777 457.452 112.777 462.061C112.777 466.67 116.535 470.406 121.171 470.406Z" fill="#3094D0"/>
<path d="M114.452 462.064C114.452 458.38 117.466 455.383 121.171 455.383C124.875 455.383 127.889 458.38 127.889 462.064C127.889 465.747 124.875 468.744 121.171 468.744C117.466 468.744 114.452 465.747 114.452 462.064ZM114.763 462.064C114.763 465.577 117.638 468.435 121.171 468.435C124.704 468.435 127.579 465.577 127.579 462.064C127.579 458.551 124.704 455.692 121.171 455.692C117.638 455.692 114.763 458.551 114.763 462.064Z" fill="#398DD1"/>
<path d="M165.94 470.406C170.575 470.406 174.333 466.67 174.333 462.061C174.333 457.452 170.575 453.715 165.94 453.715C161.304 453.715 157.546 457.452 157.546 462.061C157.546 466.67 161.304 470.406 165.94 470.406Z" fill="#3094D0"/>
<path d="M159.221 462.064C159.221 458.38 162.235 455.383 165.94 455.383C169.644 455.383 172.658 458.38 172.658 462.064C172.658 465.747 169.644 468.744 165.94 468.744C162.235 468.744 159.221 465.747 159.221 462.064ZM159.532 462.064C159.532 465.577 162.407 468.435 165.94 468.435C169.473 468.435 172.348 465.577 172.348 462.064C172.348 458.551 169.473 455.692 165.94 455.692C162.406 455.692 159.532 458.551 159.532 462.064Z" fill="#398DD1"/>
<path d="M210.709 470.406C215.344 470.406 219.102 466.67 219.102 462.061C219.102 457.452 215.344 453.715 210.709 453.715C206.073 453.715 202.315 457.452 202.315 462.061C202.315 466.67 206.073 470.406 210.709 470.406Z" fill="#3094D0"/>
<path d="M210.709 468.744C207.004 468.744 203.99 465.747 203.99 462.064C203.99 458.38 207.004 455.383 210.709 455.383C214.413 455.383 217.427 458.38 217.427 462.064C217.428 465.747 214.413 468.744 210.709 468.744ZM210.709 455.692C207.175 455.692 204.301 458.551 204.301 462.064C204.301 465.577 207.175 468.435 210.709 468.435C214.242 468.435 217.117 465.577 217.117 462.064C217.117 458.551 214.242 455.692 210.709 455.692Z" fill="#398DD1"/>
<path d="M106.763 320.501C107.903 325.664 109.568 330.816 112.631 335.125C116.321 340.319 121.789 343.97 127.441 346.901C140.874 353.884 157.071 355.693 173.885 357.082C182.498 357.792 191.275 358.398 199.918 359.529H263.489C264.619 359.529 265.647 359.067 266.397 358.326C266.891 357.833 267.25 357.216 267.446 356.527C263.787 355.879 262.025 355.385 258.521 355.416C246.887 355.509 234.574 355.395 223.927 351.302C220.802 350.109 217.822 348.567 215.047 346.592C204.122 338.817 198.336 325.469 196.28 312.223C194.214 298.966 195.376 285.453 195.53 272.043C195.694 258.632 195.777 246.963 189.877 234.921L99.5684 232.141C110.206 259.352 100.494 291.963 106.763 320.501Z" fill="#398DD1"/>
<path d="M241.375 359.53H263.489C265.759 359.53 267.6 357.689 267.6 355.417C267.6 353.145 265.759 351.302 263.489 351.302H241.375C217.251 351.302 197.695 331.734 197.695 307.595V272.116C197.695 259.373 196.249 248.511 193.851 238.104C193.323 235.813 190.987 234.435 188.726 235.074C186.619 235.669 185.345 237.805 185.835 239.94C188.075 249.693 189.474 260.129 189.474 272.116V307.595C189.473 336.277 212.71 359.53 241.375 359.53Z" fill="#1A70B4"/>
<path d="M98.6247 232.294L98.6261 232.293C100.888 231.655 103.223 233.032 103.751 235.323C106.149 245.731 107.595 259.372 107.595 272.115V307.595C107.595 331.734 127.151 351.302 151.275 351.302H173.885H199.921H263.489C265.76 351.302 267.6 353.143 267.6 355.416C267.6 355.796 267.548 356.177 267.445 356.526C267.25 357.215 266.89 357.832 266.397 358.326C265.647 359.066 264.619 359.529 263.488 359.529H199.921H173.885H151.274C122.61 359.529 99.3729 336.277 99.3729 307.594V272.114C99.3729 260.128 97.9741 246.912 95.7341 237.159C95.2442 235.024 96.5177 232.888 98.6247 232.294Z" fill="#1A70B4"/>
<path d="M249.498 429.586L247.651 443.003C247.426 445.389 247.493 446.783 249.338 447.557L259.288 452.446C264.482 454.625 262.925 460.35 257.293 460.35H231.297V452.424L233.5 429.586H249.498Z" fill="#FFC5BD"/>
<path d="M233.65 451.803C233.264 451.573 232.38 451.037 232.085 450.914C231.081 450.493 229.954 451.509 229.856 452.623L228.695 465.848C228.597 466.962 229.42 467.866 230.534 467.866H279.49C280.951 467.866 282.237 466.683 282.365 465.222C282.38 465.048 282.364 464.839 282.344 464.665C282.241 463.865 281.746 463.169 280.977 462.821L253.06 448.682C251.515 447.88 250.219 448.501 249.782 449.941C249.063 452.309 246.881 453.751 242.034 453.689C238.514 453.644 235.505 452.912 233.65 451.803Z" fill="#193368"/>
<path d="M228.798 464.664L228.695 465.847C228.597 466.96 229.421 467.865 230.534 467.865H279.49C280.951 467.865 282.237 466.682 282.365 465.221C282.38 465.047 282.364 464.838 282.344 464.664H228.798Z" fill="#193972"/>
<path d="M197.439 435.129V461.661L181.101 461.376L181.802 453.814L182.162 434.863L197.439 435.129Z" fill="#FFC5BD"/>
<path d="M212.905 468.052C212.193 469.727 210.424 470.99 207.087 471.168C202.358 471.389 189.919 470.7 183.808 469.716C180.071 469.145 178.887 468.201 179.089 465.843C179.137 465.27 179.195 464.63 179.262 463.922C179.613 460.993 180.134 457.657 180.761 454.323C180.894 453.618 181.762 453.227 182.268 453.709C183.761 455.084 184.777 455.561 186.578 455.707C188.562 455.868 190.5 454.829 190.682 453.053C190.872 451.201 192.511 450.655 195.916 450.715C197.939 450.75 199.215 450.808 201.69 453.347C204.455 456.23 211.522 462.832 212.692 464.1C213.424 464.889 213.598 466.512 212.905 468.052Z" fill="#193368"/>
<path d="M212.905 468.052C212.193 469.726 210.378 471.314 207.041 471.492C202.312 471.714 189.873 471.024 183.762 470.041C180.025 469.469 178.888 468.201 179.089 465.843C179.137 465.27 179.195 464.63 179.262 463.922C179.812 465.281 181.035 466.416 183.612 466.832C190.012 467.923 204.488 468.546 209.448 468.363C210.637 468.316 211.798 468.235 212.905 468.052Z" fill="#193972"/>
<path d="M198.321 307.302L202.013 309.364L254.404 323.461C264.789 326.256 271.303 336.545 269.391 347.135L252.027 443.278H227.785L233.592 355.574L161.712 348.445L161.367 307.301L182.548 298.941L198.321 307.302Z" fill="#193368"/>
<path d="M176.906 444.508H201.622L208.032 340.955C208.536 332.815 203.78 325.265 196.223 322.209L171.771 311.979L171.222 307.634L146.98 300.703L129.179 314.289V329.013C129.179 340.91 138.515 350.71 150.391 351.279L175.221 352.469L176.906 444.508Z" fill="#193972"/>
<path d="M216.789 216.73C217.968 223.15 213.909 229.32 207.647 230.837C207.423 230.891 207.197 230.939 206.969 230.981C200.324 232.203 193.947 227.804 192.726 221.155C191.505 214.506 195.902 208.125 202.547 206.903C209.191 205.681 215.568 210.081 216.789 216.73Z" fill="#FFC5BD"/>
<path d="M221.859 277.866C224.597 273.892 223.597 268.449 219.626 265.71C215.655 262.97 210.216 263.97 207.478 267.944C204.74 271.918 205.74 277.361 209.711 280.1C213.682 282.84 219.121 281.839 221.859 277.866Z" fill="#FFC5BD"/>
<path d="M192.73 221.155C195.918 239.15 200.355 256.901 206.011 274.278L206.087 274.511L223.267 271.351C219.852 253.398 217.693 235.228 216.805 216.974L216.793 216.73L192.73 221.155Z" fill="#FFC5BD"/>
<path d="M247.14 280.285C249.151 277.96 248.897 274.444 246.574 272.432C244.251 270.42 240.737 270.673 238.726 272.998C236.715 275.323 236.969 278.839 239.292 280.851C241.615 282.863 245.129 282.61 247.14 280.285Z" fill="#FFC5BD"/>
<path d="M243.333 275.547C243.915 273.503 245.44 271.913 247.811 271.308C250.062 270.733 252.567 270.818 254.809 271.401C259.389 272.592 263.811 276.122 264.868 280.884C264.87 280.89 264.871 280.897 264.872 280.902C265.085 281.868 264.324 282.776 263.335 282.776H247.942C247.136 282.776 246.347 282.515 245.684 282.061C244.655 281.356 243.475 280.305 243.198 279.051C242.949 277.927 243.018 276.652 243.333 275.547Z" fill="#1A70B4"/>
<path d="M241.968 282.103C241.968 282.103 246.174 282.739 246.59 282.814C247.364 282.953 248.223 283.206 249.012 283.131C249.917 283.046 250.251 282.271 249.839 281.516C249.496 280.887 248.851 280.481 248.192 280.203C247.532 279.925 246.831 279.747 246.191 279.424C245.524 279.088 244.486 278.255 244.68 277.381C244.875 276.499 246.128 276.401 246.804 276.131C247.373 275.903 247.93 275.64 248.507 275.422C248.527 275.414 248.548 275.407 248.569 275.411C248.586 275.414 248.601 275.427 248.615 275.438C248.811 275.603 249.011 275.762 249.201 275.934C249.452 276.161 249.703 276.388 249.959 276.609C251.915 278.3 252.831 281.208 255.198 282.457C256.397 283.089 257.542 282.328 257.663 280.961C257.736 280.138 257.496 279.433 257.152 278.717C256.101 276.528 255.047 274.36 253.905 272.219C253.102 270.714 252.233 268.873 250.414 268.462C249.096 268.165 247.813 268.801 246.648 269.338C245.381 269.923 242.554 271.068 242.554 271.068C242.547 271.092 241.968 282.103 241.968 282.103Z" fill="#FFC5BD"/>
<path d="M255.45 269.439C256.061 269.378 256.703 269.344 257.267 269.59C258.014 269.914 258.477 270.656 258.891 271.358C260.549 274.171 262.154 277.016 263.704 279.891C264.322 281.036 263.43 282.021 262.193 282.01C260.959 281.999 259.839 281.266 258.969 280.391C256.99 278.401 255.911 275.59 253.705 273.854C253.133 273.404 252.494 273.034 251.981 272.518C249.426 269.95 253.696 269.614 255.45 269.439Z" fill="#FFC5BD"/>
<path d="M258.236 276.272C260.134 276.849 262.053 277.434 263.757 278.45C265.339 279.393 266.471 277.997 265.377 276.549C263.56 274.144 260.072 272.319 257.335 271.18C257.268 273.147 257.656 274.392 258.236 276.272Z" fill="#FFC5BD"/>
<path d="M217.211 216.594C215.946 209.706 209.34 205.148 202.456 206.414C197.122 207.395 193.186 211.586 192.273 216.628C192.002 218.126 192.067 219.653 192.221 221.16C192.755 226.409 193.373 231.662 194.095 236.915C195.105 244.261 196.352 251.574 197.835 258.841L223.104 256.113C220.701 244.295 218.867 232.368 217.608 220.373L217.211 216.594Z" fill="#F97316"/>
<path d="M129.345 305.691L134.339 255.913L134.667 209.443C140.232 204.432 152.972 198.23 163.848 196.176L191.82 197.789C198.94 199.894 207.999 205.051 213.73 209.944L210.132 217.18L203.051 264.778L203.907 303.234L206.168 310.485L202.013 309.367C184.203 309.367 175.359 308.595 160.985 308.595C146.471 308.595 141.537 316.22 128.125 316.22L129.345 305.691Z" fill="#F97316"/>
<path d="M205.603 257.985C205.597 257.985 205.589 257.985 205.581 257.985C205.144 257.972 204.798 257.607 204.809 257.168L205.369 236.328C205.381 235.89 205.702 235.584 206.185 235.555C206.622 235.567 206.968 235.932 206.957 236.371L206.397 257.212C206.385 257.643 206.033 257.985 205.603 257.985Z" fill="#F97316"/>
<path d="M159.466 223.064C158.21 230.642 151.256 235.851 143.718 235.029C143.449 235 143.179 234.963 142.909 234.918C135.066 233.616 129.763 226.199 131.064 218.351C132.365 210.502 139.777 205.196 147.621 206.497C155.464 207.799 160.767 215.216 159.466 223.064Z" fill="#FFC5BD"/>
<path d="M132.566 293.334C138.242 293.323 142.834 288.708 142.822 283.029C142.811 277.349 138.199 272.754 132.523 272.766C126.846 272.778 122.254 277.392 122.266 283.072C122.278 288.752 126.89 293.346 132.566 293.334Z" fill="#FFC5BD"/>
<path d="M131.068 218.352C127.273 236.766 122.415 263.269 122.41 281.085L122.401 281.373L142.68 284.739C146.728 264.466 151.972 243.619 159.387 223.341L159.471 223.066L131.068 218.352Z" fill="#FFC5BD"/>
<path d="M162.777 222.209C164.05 214.067 157.779 206.324 148.77 204.913C141.788 203.82 135.601 207.112 132.401 212.321C131.451 213.868 130.903 215.586 130.472 217.317C128.972 223.346 127.183 229.153 125.912 235.263C124.135 243.808 122.4 257.382 121.493 266.073L150.23 271.725C153.103 257.6 158.33 240.349 161.711 226.556L162.777 222.209Z" fill="#F97316"/>
<path d="M150.231 272.568C150.198 272.568 150.164 272.566 150.131 272.561L146.139 272.08C145.676 272.026 145.347 271.606 145.403 271.143C145.461 270.68 145.89 270.35 146.34 270.407L149.495 270.785L153.349 238.64C153.405 238.177 153.851 237.853 154.286 237.904C154.749 237.959 155.078 238.378 155.022 238.842L151.068 271.825C151.041 272.047 150.928 272.25 150.752 272.388C150.603 272.505 150.419 272.568 150.231 272.568Z" fill="#F97316"/>
<path d="M179.703 214.749C182.289 214.82 184.699 214.372 186.866 213.417C191.082 211.56 194.284 207.739 195.433 203.197C195.546 202.746 195.274 202.287 194.822 202.172C194.361 202.061 193.912 202.333 193.797 202.784C192.776 206.826 189.931 210.223 186.187 211.872C183.673 212.981 180.675 213.303 177.683 212.891C171.878 212.099 164.208 208.233 161.688 199.949C161.55 199.502 161.068 199.255 160.636 199.387C160.19 199.523 159.939 199.994 160.074 200.439C162.828 209.489 171.157 213.702 177.454 214.562C178.199 214.665 178.948 214.729 179.703 214.749Z" fill="#F97316"/>
<path d="M163.848 196.174L177.969 193.004L191.82 197.786L191.776 199.323C191.731 203.525 188.778 207.086 185.455 208.501C183.19 209.465 180.709 209.606 178.316 209.288C171.531 208.384 164.831 203.833 163.848 196.174Z" fill="#FFC5BD"/>
<path d="M160.562 154.953C161.415 152.729 163.513 150.269 166.987 149.484C167.648 144.022 170.084 140.509 175.271 138.277C177.878 137.154 181.872 136.926 184.575 137.817C186.552 138.469 188.283 139.974 189.091 141.832C190.952 140.068 193.173 138.699 195.88 138.317C200.701 137.637 205.96 139.231 208.739 142.419C211.353 145.416 211.653 150.55 208.433 152.888C211.735 155.003 213.127 159.593 211.541 163.136C209.954 166.679 205.131 168.806 201.326 167.815L170.124 179.991C165.98 175.328 161.985 167.389 160.436 161.818C159.909 159.922 159.858 156.789 160.562 154.953Z" fill="#193368"/>
<path d="M167.234 203.338L188.556 204.703L189.074 196.549L190.985 166.496L169.664 165.141L169.038 174.933L167.234 203.338Z" fill="#FFC5BD"/>
<path d="M169.038 174.933C170.086 185.974 178.459 194.731 189.074 196.549L190.985 166.496L169.664 165.141L169.038 174.933Z" fill="#EF9B8F"/>
<path d="M205.49 173.944C206.413 171.285 205.243 168.463 202.878 167.64C200.512 166.818 197.845 168.306 196.922 170.965C195.999 173.624 197.168 176.446 199.534 177.268C201.9 178.091 204.567 176.602 205.49 173.944Z" fill="#EF9B8F"/>
<path d="M166.925 160.938C166.492 169.682 168.04 177.203 172.353 184.167C173.996 186.819 176.342 189.111 179.149 190.637C184.455 193.521 191.839 193.541 196.132 189.406C199.959 185.72 201.811 180.244 202.745 174.966C203.733 169.387 204.277 163.731 204.272 158.072C204.265 150.061 196.919 143.187 186.033 142.69C173.796 142.131 167.43 150.73 166.925 160.938Z" fill="#FFC5BD"/>
<path d="M186.128 141.703C197.031 142.222 205.251 149.262 205.258 158.07C205.294 159.129 205.197 159.352 205.197 159.352C197.401 161.656 186.481 160.585 178.874 157.58L178.832 157.5C178.139 160.011 176.281 162.332 174.459 163.18L174.275 167.065L171.583 171.035L166.383 170.788C165.907 167.707 165.766 164.425 165.934 160.891C166.542 148.699 174.445 141.168 186.128 141.703Z" fill="#193368"/>
<path d="M171.166 175.926C173.6 175.331 175.032 172.633 174.365 169.898C173.698 167.164 171.184 165.429 168.751 166.023C166.318 166.617 164.886 169.316 165.553 172.05C166.22 174.785 168.733 176.52 171.166 175.926Z" fill="#FFC5BD"/>
<path d="M172.386 171.888C172.396 171.888 172.402 171.889 172.412 171.889C172.643 171.885 172.83 171.693 172.828 171.46C172.822 171.028 172.734 170.593 172.567 170.166C172.007 168.754 170.613 167.783 169.246 167.896C169.005 167.914 168.769 167.962 168.544 168.042C168.092 168.202 167.692 168.485 167.381 168.861C167.234 169.042 167.261 169.307 167.442 169.454C167.619 169.605 167.884 169.578 168.035 169.397C168.245 169.14 168.517 168.945 168.823 168.837C168.98 168.784 169.143 168.749 169.308 168.737C170.287 168.679 171.354 169.398 171.78 170.477C171.91 170.806 171.98 171.141 171.984 171.473C171.986 171.697 172.166 171.877 172.386 171.888Z" fill="#EF9B8F"/>
<path d="M169.926 175.755C171.07 175.06 171.967 173.728 172.444 172.092C173.007 170.193 173.091 167.698 172.161 165.965L174.268 167.078C174.198 168.561 173.959 170.036 173.691 171.408C173.164 173.984 173.167 176.753 174.2 179.166C174.869 180.718 176.406 181.771 177.758 181.733C178.737 181.712 179.554 181.583 180.48 181.255C186.466 179.289 194.384 179.825 199.858 182.179C200.446 182.432 200.702 183.166 200.435 183.748C199.351 186.11 197.982 188.074 196.351 189.642C193.944 191.994 190.411 193.177 186.437 192.988C183.811 192.863 181.245 192.167 178.974 190.944C176.177 189.427 173.789 187.118 172.064 184.334C171.88 184.037 171.723 183.732 171.548 183.432C170.346 181.114 169.794 177.954 169.926 175.755Z" fill="#193368"/>
<path d="M197.792 170.133C198.559 170.017 199.275 170.545 199.391 171.312C199.508 172.08 198.98 172.797 198.213 172.913C197.446 173.03 196.729 172.502 196.613 171.734C196.497 170.967 197.024 170.25 197.792 170.133Z" fill="#193368"/>
<path d="M186.426 169.594C187.194 169.478 187.909 170.006 188.026 170.773C188.142 171.541 187.615 172.258 186.848 172.374C186.08 172.49 185.364 171.962 185.247 171.195C185.131 170.427 185.659 169.71 186.426 169.594Z" fill="#193368"/>
<path d="M182.384 165.167C182.467 164.876 182.85 164.727 183.202 164.692C184.838 164.531 186.449 164.801 188.019 165.232C188.571 165.383 190.078 165.663 189.802 166.402C189.623 166.881 188.718 167.192 188.165 167.11C186.93 166.929 185.701 166.717 184.48 166.475C183.788 166.337 182.112 166.123 182.384 165.167Z" fill="#193368"/>
<path d="M195.989 166.062C197.525 165.505 199.159 165.381 200.797 165.426C201.254 165.438 201.741 165.4 202.18 165.521C202.381 165.576 202.569 165.664 202.688 165.819C202.829 166.001 202.852 166.426 202.749 166.629C202.648 166.829 202.434 166.976 202.203 167.064C201.537 167.316 200.741 167.32 200.033 167.375C199.266 167.434 198.498 167.481 197.729 167.516C197.022 167.548 195.342 167.743 195.334 166.73C195.331 166.423 195.659 166.181 195.989 166.062Z" fill="#193368"/>
<path d="M192.943 179.559C192.999 179.562 193.055 179.553 193.112 179.532C193.975 179.209 194.558 178.724 194.842 178.091C195.1 177.518 195.091 176.866 194.818 176.157C194.666 175.757 194.426 175.256 194.156 174.696C193.829 174.017 193.457 173.249 193.157 172.473C193.075 172.258 192.833 172.146 192.612 172.233C192.397 172.316 192.286 172.56 192.371 172.778C192.682 173.585 193.061 174.37 193.397 175.062C193.655 175.598 193.886 176.076 194.033 176.459C194.22 176.951 194.236 177.384 194.074 177.744C193.889 178.16 193.451 178.505 192.813 178.743C192.598 178.825 192.485 179.067 192.567 179.285C192.628 179.448 192.778 179.551 192.943 179.559Z" fill="#EF9B8F"/>
<path d="M194.523 182.344L186.166 180.898C187.285 184.599 192.846 185.61 194.523 182.344Z" fill="white"/>
<path d="M198.147 176.649C195.499 176.663 193.333 174.52 193.318 171.87C193.304 169.221 195.443 167.054 198.094 167.039C200.742 167.024 202.908 169.168 202.923 171.817C202.936 174.277 201.091 176.322 198.708 176.614C198.524 176.636 198.337 176.648 198.147 176.649ZM193.775 171.868C193.788 174.265 195.749 176.205 198.145 176.192C200.542 176.179 202.479 174.217 202.466 171.82C202.453 169.422 200.493 167.482 198.097 167.495C197.925 167.496 197.756 167.507 197.59 167.528C195.433 167.792 193.763 169.642 193.775 171.868Z" fill="white"/>
<path d="M186.483 176.094C185.2 176.101 183.991 175.608 183.079 174.706C182.167 173.803 181.661 172.599 181.654 171.315C181.647 170.032 182.14 168.823 183.042 167.91C183.944 166.997 185.148 166.49 186.43 166.484C189.078 166.469 191.244 168.613 191.258 171.263C191.265 172.546 190.773 173.756 189.871 174.668C189.103 175.445 188.117 175.928 187.049 176.058C186.863 176.081 186.673 176.094 186.483 176.094ZM183.367 168.231C182.55 169.057 182.104 170.152 182.111 171.313C182.117 172.475 182.575 173.564 183.4 174.381C184.226 175.198 185.319 175.644 186.48 175.638C187.64 175.631 188.73 175.173 189.546 174.347C190.362 173.521 190.808 172.427 190.802 171.265C190.789 168.868 188.829 166.928 186.432 166.941C186.26 166.942 186.089 166.953 185.92 166.974C184.954 167.092 184.061 167.528 183.367 168.231Z" fill="white"/>
<path d="M193.462 170.904C192.727 170.548 191.935 170.514 191.175 170.816C190.886 170.93 190.702 170.483 190.991 170.369C191.866 170.021 192.805 170.05 193.654 170.46C193.933 170.595 193.743 171.04 193.462 170.904Z" fill="white"/>
<path d="M182.034 169.729C180.246 169.125 179.038 168.703 177.249 168.099C176.956 167.999 177.092 167.535 177.388 167.635C178.993 168.177 181.988 169.203 182.172 169.266C182.466 169.365 182.33 169.829 182.034 169.729Z" fill="white"/>
<path d="M360.993 471.534H349.559L299.24 305.042L299.214 304.955L297.826 300.359L294.808 290.392L293.376 285.648C300.727 285.787 307.773 285.979 314.417 286.214C315.115 286.241 315.814 286.267 316.503 286.293L317.649 291.054L319.717 299.688L320.667 303.629L320.837 304.353L360.949 471.325C360.966 471.395 360.984 471.464 360.993 471.534Z" fill="#70BEED"/>
<path d="M214.036 285.676L212.958 290.385L210.688 300.289L209.637 304.859L209.619 304.955L171.6 470.506H160.399L188.553 304.296L188.669 303.593L189.337 299.63L190.797 291.036L191.598 286.309C192.079 286.292 192.56 286.275 193.05 286.257C199.665 286.014 206.699 285.814 214.036 285.676Z" fill="#70BEED"/>
<path d="M420.969 289.605V297.202C420.969 303.773 350.429 309.132 261.336 309.531C257.829 309.545 254.268 309.559 250.706 309.559C243.584 309.559 236.543 309.531 229.669 309.459C145.546 308.718 80.4722 303.516 80.4722 297.202V289.605H116.557C143.337 287.125 182.9 285.401 228.067 284.973C235.467 284.902 243.031 284.859 250.706 284.859C254.627 284.859 258.547 284.873 262.385 284.888C312.108 285.13 355.922 286.926 384.856 289.605H420.969Z" fill="#3094D0"/>
<path d="M420.968 289.602V289.617C420.968 294.133 387.324 298.1 337.187 300.252C336.695 300.28 336.189 300.295 335.697 300.309C325.588 300.745 314.79 301.096 303.501 301.35C302.77 301.364 302.053 301.378 301.321 301.392C288.035 301.701 274.046 301.884 259.579 301.926C256.654 301.954 253.688 301.954 250.721 301.954C242.538 301.954 234.482 301.912 226.609 301.828C217.541 301.743 208.697 301.589 200.149 301.406C199.6 301.391 199.038 301.378 198.49 301.363C187.242 301.11 176.515 300.759 166.434 300.337L165.38 300.294C115.032 298.17 81.0365 294.231 80.4741 289.729C80.46 289.687 80.46 289.659 80.46 289.616C80.46 284.917 116.692 280.809 170.005 278.727C170.764 278.699 171.524 278.671 172.297 278.643C182.743 278.249 193.85 277.925 205.435 277.701C206.532 277.673 207.643 277.644 208.753 277.63C214.686 277.517 220.732 277.433 226.89 277.377C234.299 277.293 241.849 277.25 249.54 277.25H250.721C264.218 277.25 277.336 277.363 289.933 277.574C291.409 277.602 292.872 277.63 294.334 277.658C305.877 277.883 316.941 278.193 327.374 278.573C328.47 278.615 329.567 278.657 330.649 278.699C384.343 280.781 420.898 284.876 420.968 289.602Z" fill="#70BEED"/>
<path d="M484.833 370.886H426.973C426.64 370.886 426.371 370.616 426.371 370.283V362.715H485.434V370.283C485.434 370.616 485.165 370.886 484.833 370.886Z" fill="#3094D0"/>
<path d="M460.889 368.309H450.916V415.019H460.889V368.309Z" fill="#3094D0"/>
<path d="M463.006 400.949H448.799V455.019H463.006V400.949Z" fill="#3094D0"/>
<path d="M494.565 451.516H459.339H455.903H452.467H417.241C413.445 451.516 410.369 454.575 410.369 458.348V469.243H417.241V458.348H452.467V469.243H455.903H459.339V458.348H494.565V469.243H501.437V458.348C501.437 454.575 498.36 451.516 494.565 451.516Z" fill="#3094D0"/>
<path d="M455.903 477.586C460.538 477.586 464.296 473.85 464.296 469.241C464.296 464.632 460.538 460.895 455.903 460.895C451.267 460.895 447.509 464.632 447.509 469.241C447.509 473.85 451.267 477.586 455.903 477.586Z" fill="#3094D0"/>
<path d="M455.903 475.923C452.198 475.923 449.184 472.926 449.184 469.242C449.184 465.559 452.198 462.562 455.903 462.562C459.608 462.562 462.622 465.559 462.622 469.242C462.622 472.926 459.607 475.923 455.903 475.923ZM455.903 462.871C452.37 462.871 449.495 465.73 449.495 469.242C449.495 472.756 452.37 475.615 455.903 475.615C459.436 475.615 462.311 472.755 462.311 469.242C462.311 465.73 459.436 462.871 455.903 462.871Z" fill="#398DD1"/>
<path d="M411.134 477.586C415.769 477.586 419.527 473.85 419.527 469.241C419.527 464.632 415.769 460.895 411.134 460.895C406.498 460.895 402.741 464.632 402.741 469.241C402.741 473.85 406.498 477.586 411.134 477.586Z" fill="#3094D0"/>
<path d="M404.415 469.242C404.415 465.559 407.429 462.562 411.134 462.562C414.838 462.562 417.852 465.559 417.852 469.242C417.852 472.926 414.838 475.923 411.134 475.923C407.429 475.923 404.415 472.926 404.415 469.242ZM404.726 469.242C404.726 472.756 407.601 475.615 411.134 475.615C414.667 475.615 417.542 472.755 417.542 469.242C417.542 465.729 414.667 462.871 411.134 462.871C407.601 462.871 404.726 465.73 404.726 469.242Z" fill="#398DD1"/>
<path d="M515.08 327.681C513.939 332.844 512.274 337.996 509.211 342.305C505.521 347.499 500.054 351.149 494.401 354.08C480.968 361.063 464.771 362.873 447.957 364.262C439.344 364.971 430.568 365.578 421.924 366.709H358.353C357.223 366.709 356.195 366.246 355.445 365.506C354.951 365.012 354.592 364.395 354.397 363.706C358.055 363.058 359.817 362.565 363.321 362.596C374.956 362.688 387.268 362.575 397.915 358.482C401.04 357.289 404.02 355.746 406.795 353.772C417.72 345.997 423.507 332.648 425.562 319.402C427.628 306.146 426.466 292.633 426.312 279.222C426.148 265.812 426.065 254.143 431.965 242.1L522.274 239.32C511.637 266.532 521.349 299.143 515.08 327.681Z" fill="#398DD1"/>
<path d="M380.468 366.71H358.353C356.083 366.71 354.243 364.868 354.243 362.597C354.243 360.325 356.083 358.483 358.353 358.483H380.468C404.591 358.483 424.147 338.915 424.147 314.776V279.296C424.147 266.552 425.594 255.692 427.991 245.284C428.519 242.993 430.855 241.616 433.116 242.254L433.118 242.255C435.225 242.849 436.498 244.985 436.008 247.12C433.768 256.873 432.369 267.308 432.369 279.295V314.775C432.369 343.458 409.132 366.71 380.468 366.71Z" fill="#1A70B4"/>
<path d="M523.218 239.473H523.216C520.955 238.835 518.619 240.212 518.092 242.503C515.694 252.91 514.247 266.551 514.247 279.294V314.774C514.247 338.914 494.691 358.482 470.568 358.482H447.957H421.921H358.353C356.082 358.482 354.243 360.323 354.243 362.595C354.243 362.976 354.294 363.356 354.397 363.706C354.592 364.395 354.952 365.012 355.445 365.506C356.195 366.246 357.223 366.709 358.354 366.709H421.921H447.957H470.568C499.233 366.709 522.47 343.457 522.47 314.774V279.294C522.47 267.307 523.868 254.092 526.108 244.338C526.598 242.204 525.325 240.068 523.218 239.473Z" fill="#1A70B4"/>
<path d="M418.376 211.16C411.513 214.046 408.162 221.779 410.628 228.711C410.716 228.958 410.811 229.205 410.914 229.45C413.9 236.562 422.084 239.905 429.191 236.917C436.299 233.928 439.641 225.74 436.654 218.627C433.667 211.515 425.484 208.172 418.376 211.16Z" fill="#EAA196"/>
<path d="M377.684 253.447C382.008 250.038 382.75 243.767 379.343 239.441C375.935 235.115 369.668 234.372 365.345 237.781C361.022 241.191 360.279 247.462 363.687 251.788C367.094 256.114 373.361 256.857 377.684 253.447Z" fill="#EAA196"/>
<path d="M429.19 236.913C410.026 245.113 395.758 249.292 375.642 254.748L375.373 254.821L367.651 236.431C386.917 228.474 400.16 221.857 418.134 211.297L418.374 211.156L429.19 236.913Z" fill="#EAA196"/>
<path d="M413.473 211.918C423.43 207.079 433.122 209.651 437.025 218.211C439.858 224.42 436.325 232.556 432.165 236.773C430.93 238.026 427.104 240.152 425.576 240.961C420.253 243.776 398.42 252.955 388.232 256.477L375.864 231.725C388.413 225.484 403.114 216.952 413.473 211.918Z" fill="#F97316"/>
<path d="M328.354 233.082L333.279 221.5C339.161 223.923 346.264 226.426 354.271 229.399C363.209 232.717 371.065 235.414 375.485 236.717L367.754 254.898C354.4 249.101 338.594 241.029 328.354 233.082Z" fill="#EAA196"/>
<path d="M378.392 252.708C382.248 248.85 382.248 242.595 378.392 238.737C374.537 234.879 368.286 234.879 364.43 238.737C360.575 242.595 360.575 248.85 364.43 252.708C368.286 256.566 374.537 256.566 378.392 252.708Z" fill="#EAA196"/>
<path d="M332.958 233.043C336.18 231.744 337.739 228.077 336.441 224.853C335.142 221.629 331.478 220.069 328.256 221.368C325.035 222.668 323.475 226.334 324.774 229.558C326.072 232.782 329.737 234.342 332.958 233.043Z" fill="#EAA196"/>
<path d="M336.64 228.464C337.283 225.11 335.086 221.869 331.734 221.225C328.382 220.582 325.143 222.779 324.5 226.134C323.857 229.488 326.053 232.729 329.405 233.373C332.758 234.016 335.996 231.818 336.64 228.464Z" fill="#EAA196"/>
<path d="M327.835 232.248L334.012 222.492L333.834 222.203C332.492 221.265 330.973 219.529 330.36 217.776C330.124 217.1 330.022 216.404 329.893 215.722C329.66 214.485 329.417 213.205 328.709 212.043C328.051 210.963 327.321 209.993 326.432 208.839L325.341 207.42C324.93 206.873 324.584 206.463 324.238 206.052L323.604 205.287C323.513 205.17 323.408 205.003 323.294 204.823C322.942 204.265 322.5 203.57 321.906 203.388C321.429 203.291 321.031 203.412 320.708 203.694C319.928 204.354 319.894 205.499 320.206 206.339C320.454 207.028 321.003 208.039 321.293 208.664C321.483 209.071 321.935 209.773 322.089 210.397C322.176 210.741 322.156 210.986 322.027 211.153C321.964 211.242 321.878 211.31 321.761 211.365C321.042 211.708 320.54 211.482 319.431 211.143C318.457 210.845 317.496 210.332 316.767 209.919C315.246 209.049 313.671 208.266 312.094 207.483C310.148 206.516 308.136 205.516 306.252 204.354C305.814 204.088 305.489 203.895 305.148 203.759L304.829 203.642C304.69 203.6 304.549 203.57 304.402 203.552C303.694 203.467 302.786 203.791 302.514 204.563C302.32 205.091 302.361 205.947 303.675 207.006L304.275 207.479C305.828 208.703 307.444 209.826 309.183 210.983C307.762 210.434 306.391 209.678 305.057 208.94L303.98 208.338C303.381 207.993 302.783 207.651 302.15 207.373C301.775 207.208 301.419 207.051 301.054 206.94C300.656 206.818 300.323 206.771 300.033 206.793C299.8 206.814 299.595 206.877 299.422 206.985C298.952 207.3 298.676 207.854 298.71 208.403C298.78 209.565 300.148 210.45 300.882 210.927C302.284 211.838 303.701 212.723 305.117 213.606C306.081 214.206 307.042 214.804 307.997 215.412C307.87 215.38 307.735 215.343 307.596 215.3C307.298 215.209 306.097 214.782 305.785 214.686L304.997 214.468C304.037 214.175 303.077 213.628 302.149 213.099C301.776 212.886 301.408 212.676 301.046 212.487C300.859 212.389 300.625 212.28 300.385 212.207C299.386 211.901 298.964 212.38 298.797 212.692C298.661 212.957 298.616 213.297 298.669 213.653C298.959 215.014 299.967 215.874 300.916 216.552C302.835 217.919 304.895 219.059 307.057 219.948C305.976 219.85 304.9 219.563 303.937 219.269C303.937 219.269 302.738 218.886 302.721 218.88C302.272 218.743 301.94 218.67 301.596 218.731C301.146 218.813 300.934 219.047 300.837 219.229C300.667 219.539 300.687 219.953 300.89 220.425C301.052 220.789 301.263 221.099 301.477 221.313C301.923 221.757 302.458 222.047 303.059 222.356C304.329 223.019 305.617 223.676 306.943 224.218C307.397 224.4 307.851 224.542 308.299 224.681C309.029 224.908 309.718 225.121 310.375 225.513C311.646 226.275 313.168 227.154 314.787 227.877C315.061 228 315.34 228.119 315.617 228.231L316.377 228.52C316.717 228.642 317.238 228.808 317.25 228.811C317.577 228.911 318.455 229.134 318.455 229.134L319.668 229.384L320.526 229.531C321.508 229.701 322.388 229.937 323.297 230.283C323.718 230.443 324.153 230.639 324.562 230.832C324.969 231.02 325.373 231.252 325.76 231.504L326.384 231.92C326.641 232.1 327.236 232.532 327.236 232.532L327.835 232.248Z" fill="#EAA196"/>
<path d="M324.737 222.838C324.9 222.89 325.085 222.84 325.196 222.697C325.341 222.514 325.307 222.249 325.125 222.104C322.713 220.213 321.663 217.075 322.447 214.113C322.508 213.889 322.341 213.642 322.148 213.596C321.921 213.537 321.692 213.671 321.632 213.896C320.761 217.186 321.929 220.668 324.604 222.768C324.645 222.801 324.689 222.823 324.737 222.838Z" fill="#CC7972"/>
<path d="M372.344 436.766L374.191 450.183C374.417 452.569 374.35 453.963 372.504 454.737L362.554 459.625C357.36 461.805 358.917 467.53 364.55 467.53H390.545V459.604L388.343 436.766H372.344Z" fill="#EAA196"/>
<path d="M388.192 458.983C388.578 458.752 389.463 458.217 389.758 458.093C390.761 457.673 391.888 458.689 391.986 459.802L393.148 473.027C393.246 474.142 392.422 475.045 391.308 475.045H342.352C340.892 475.045 339.606 473.863 339.477 472.401C339.462 472.227 339.479 472.019 339.498 471.845C339.602 471.045 340.097 470.349 340.866 470.001L368.782 455.861C370.328 455.06 371.624 455.681 372.061 457.12C372.78 459.488 374.961 460.931 379.809 460.868C383.328 460.823 386.337 460.092 388.192 458.983Z" fill="#193368"/>
<path d="M393.044 471.844L393.148 473.027C393.246 474.14 392.421 475.045 391.308 475.045H342.352C340.892 475.045 339.606 473.862 339.477 472.401C339.462 472.227 339.479 472.018 339.498 471.844H393.044Z" fill="#193972"/>
<path d="M424.404 442.309V468.841L440.742 468.556L440.041 460.994L439.68 442.043L424.404 442.309Z" fill="#EAA196"/>
<path d="M408.937 475.232C409.65 476.907 411.418 478.171 414.756 478.349C419.484 478.57 431.924 477.881 438.035 476.897C441.772 476.326 442.955 475.382 442.753 473.023C442.705 472.45 442.648 471.81 442.58 471.103C442.229 468.174 441.708 464.838 441.082 461.504C440.949 460.798 440.08 460.408 439.575 460.889C438.081 462.265 437.066 462.742 435.264 462.888C433.28 463.049 431.343 462.01 431.16 460.234C430.97 458.382 429.331 457.836 425.926 457.895C423.904 457.931 422.628 457.988 420.152 460.528C417.387 463.41 410.321 470.012 409.15 471.281C408.418 472.07 408.244 473.693 408.937 475.232Z" fill="#193368"/>
<path d="M408.937 475.231C409.65 476.906 411.465 478.494 414.802 478.672C419.531 478.893 431.97 478.204 438.081 477.22C441.818 476.649 442.955 475.381 442.753 473.022C442.705 472.449 442.648 471.809 442.58 471.102C442.031 472.461 440.808 473.596 438.231 474.012C431.831 475.102 417.355 475.726 412.395 475.542C411.205 475.496 410.045 475.415 408.937 475.231Z" fill="#193972"/>
<path d="M423.521 314.482L419.829 316.545L367.438 330.642C357.053 333.436 350.539 343.726 352.451 354.316L369.815 450.459H394.057L388.25 362.754L460.131 355.626L460.475 314.482L439.294 306.121L423.521 314.482Z" fill="#193368"/>
<path d="M444.936 451.688H420.221L413.811 348.135C413.307 339.995 418.063 332.445 425.62 329.389L450.071 319.159L450.621 314.813L474.863 307.883L492.663 321.469V336.193C492.663 348.089 483.327 357.89 471.452 358.459L446.622 359.649L444.936 451.688Z" fill="#193972"/>
<path d="M492.498 312.869L487.503 263.091L487.175 216.622C481.61 211.611 468.871 205.409 457.994 203.355L430.023 204.968C422.902 207.073 413.844 212.23 408.113 217.123L411.711 224.359L418.791 271.957L417.935 310.413L415.674 317.664L419.829 316.546C437.639 316.546 446.483 315.774 460.858 315.774C475.371 315.774 480.305 323.399 493.717 323.399L492.498 312.869Z" fill="#F97316"/>
<path d="M435.148 274.789C430.225 273.467 421.685 273.849 416.588 273.892C411.406 273.937 405.101 279.142 402.794 283.574C402.166 284.779 401.539 285.984 400.912 287.189C400.742 287.514 400.593 287.964 400.872 288.202C401.332 288.594 403.108 288.327 403.619 288.192C404.082 288.069 404.501 287.819 404.891 287.542C405.617 287.027 406.272 286.413 406.831 285.72C406.505 286.125 405.898 287.786 406.284 288.234C406.871 288.915 408.441 288.716 409.23 288.57C410.252 288.381 411.171 287.886 411.919 287.168C412.682 286.435 413.322 285.577 414.123 284.886C415.464 283.731 417.171 283.109 418.837 282.511C416.555 283.554 415.361 285.449 413.829 287.437C413.121 288.357 412.064 289.995 414.077 289.8C415.433 289.668 416.289 288.509 417.272 287.708C418.211 286.944 419.088 285.886 420.262 285.477C421.688 284.981 423.079 285.969 424.416 286.382C425.371 286.677 426.383 287.177 427.371 287.29C428.513 287.421 429.288 287.007 430.602 287.059C431.886 287.111 433.285 287.824 434.698 287.915C434.745 286.334 435.213 275.91 435.148 274.789Z" fill="#EAA196"/>
<path d="M408.417 274.317C407.041 274.535 406.083 275.764 405.306 276.922C404.799 277.678 404.306 278.445 403.875 279.247C403.072 280.742 402.487 282.354 402.145 284.017C402.095 284.258 402.051 284.506 402.09 284.749C402.246 285.7 403.606 285.969 404.43 285.47C405.253 284.97 405.692 284.043 406.208 283.23C407.925 280.529 410.993 278.738 414.188 278.572C414.863 278.536 415.645 278.521 416.056 277.985C416.425 277.505 416.306 276.784 415.945 276.299C414.729 274.662 410.302 274.019 408.417 274.317Z" fill="#EAA196"/>
<path d="M439.315 286.624C442.216 284.438 442.797 280.313 440.612 277.41C438.427 274.508 434.305 273.927 431.404 276.113C428.503 278.299 427.923 282.424 430.107 285.327C432.292 288.229 436.415 288.81 439.315 286.624Z" fill="#EAA196"/>
<path d="M462.376 230.244C463.632 237.822 470.586 243.031 478.125 242.209C478.393 242.179 478.663 242.142 478.933 242.098C486.776 240.796 492.079 233.378 490.778 225.53C489.477 217.682 482.065 212.375 474.222 213.677C466.379 214.979 461.075 222.396 462.376 230.244Z" fill="#EAA196"/>
<path d="M490.166 300.464C495.821 299.978 500.012 294.997 499.526 289.338C499.04 283.679 494.061 279.486 488.406 279.972C482.751 280.458 478.56 285.44 479.046 291.098C479.532 296.757 484.51 300.951 490.166 300.464Z" fill="#EAA196"/>
<path d="M490.774 225.531C494.57 243.944 499.428 270.447 499.433 288.264L499.442 288.551L479.163 291.917C475.115 271.644 469.871 250.797 462.456 230.52L462.371 230.245L490.774 225.531Z" fill="#EAA196"/>
<path d="M459.066 229.39C457.792 221.248 464.063 213.504 473.073 212.093C480.055 210.999 486.242 214.291 489.441 219.501C490.391 221.048 490.94 222.766 491.37 224.497C492.871 230.525 494.66 236.333 495.93 242.443C497.707 250.988 499.442 264.563 500.349 273.254L471.612 278.905C468.739 264.78 463.513 247.529 460.131 233.736L459.066 229.39Z" fill="#F97316"/>
<path d="M442.139 221.93C439.554 222.001 437.144 221.553 434.976 220.597C430.76 218.74 427.558 214.919 426.409 210.378C426.296 209.926 426.569 209.467 427.02 209.352C427.481 209.241 427.93 209.514 428.045 209.964C429.066 214.006 431.911 217.403 435.655 219.052C438.169 220.162 441.167 220.483 444.159 220.071C449.964 219.279 457.635 215.413 460.155 207.129C460.292 206.682 460.775 206.435 461.206 206.567C461.653 206.703 461.903 207.174 461.769 207.619C459.015 216.669 450.685 220.882 444.388 221.742C443.644 221.846 442.894 221.909 442.139 221.93Z" fill="#F97316"/>
<path d="M457.994 203.354L443.873 200.184L430.023 204.967L430.066 206.504C430.111 210.705 433.065 214.266 436.388 215.681C438.653 216.645 441.133 216.787 443.527 216.468C450.312 215.564 457.011 211.014 457.994 203.354Z" fill="#EAA196"/>
<path d="M454.608 210.514L433.286 211.879L432.768 203.725L430.857 173.672L452.179 172.316L452.805 182.108L454.608 210.514Z" fill="#EAA196"/>
<path d="M452.805 182.108C451.756 193.15 443.384 201.906 432.768 203.725L430.857 173.672L452.179 172.316L452.805 182.108Z" fill="#CC7972"/>
<path d="M434.565 287.94L436.608 274.941C444.464 276.177 456.159 277.148 467.771 277.823C477.651 278.397 486.309 279.245 491.077 279.995L487.87 300.4C468.876 296.755 452.132 292.555 434.677 287.969L434.565 287.94Z" fill="#EAA196"/>
<path d="M494.788 298.824C499.594 295.756 501.003 289.371 497.937 284.563C494.871 279.755 488.49 278.344 483.685 281.412C478.88 284.48 477.47 290.865 480.536 295.673C483.602 300.482 489.983 301.893 494.788 298.824Z" fill="#EAA196"/>
<path d="M439.256 286.72C442.191 284.581 442.838 280.465 440.7 277.528C438.563 274.59 434.45 273.943 431.514 276.082C428.579 278.222 427.932 282.337 430.07 285.274C432.208 288.212 436.32 288.859 439.256 286.72Z" fill="#EAA196"/>
<path d="M463.849 164.347C463.176 162.063 461.28 159.443 457.879 158.384C457.654 152.888 455.505 149.192 450.511 146.554C448.001 145.228 444.039 144.683 441.273 145.356C439.25 145.848 437.406 147.211 436.452 148.999C434.737 147.093 432.632 145.551 429.963 144.955C425.212 143.893 419.843 145.065 416.819 148.021C413.976 150.801 413.269 155.895 416.293 158.481C412.834 160.327 411.082 164.791 412.381 168.45C413.681 172.108 418.32 174.611 422.192 173.927L452.328 188.546C456.829 184.227 461.443 176.631 463.428 171.201C464.105 169.353 464.405 166.234 463.849 164.347Z" fill="#193368"/>
<path d="M417.558 179.696C418.267 182.42 420.807 184.116 423.231 183.485C425.654 182.853 427.045 180.133 426.336 177.409C425.627 174.685 423.087 172.989 420.663 173.62C418.239 174.252 416.849 176.972 417.558 179.696Z" fill="#CC7972"/>
<path d="M457.031 169.812C456.767 178.562 454.627 185.936 449.774 192.535C447.926 195.048 445.405 197.146 442.487 198.443C436.968 200.896 429.606 200.33 425.655 195.866C422.133 191.888 420.722 186.281 420.21 180.946C419.668 175.306 419.575 169.624 420.03 163.984C420.673 155.999 428.542 149.731 439.433 150.102C451.675 150.518 457.339 159.595 457.031 169.812Z" fill="#EAA196"/>
<path d="M439.416 149.111C428.506 148.761 419.754 155.126 419.047 163.904C418.927 164.957 419.006 165.187 419.006 165.187C426.594 168.104 437.565 167.905 445.387 165.515L445.435 165.438C445.925 167.997 447.593 170.458 449.342 171.448L449.086 179.426L451.585 179.506L456.788 179.674C457.508 176.641 457.909 173.38 458.022 169.843C458.385 157.642 451.105 149.507 439.416 149.111Z" fill="#193368"/>
<path d="M457.532 180.957C458.414 178.284 457.201 175.48 454.823 174.694C452.445 173.908 449.802 175.438 448.92 178.111C448.037 180.784 449.25 183.587 451.629 184.373C454.007 185.159 456.65 183.63 457.532 180.957Z" fill="#EAA196"/>
<path d="M450.72 180.291C450.71 180.291 450.704 180.291 450.694 180.29C450.464 180.268 450.293 180.061 450.313 179.83C450.354 179.394 450.476 178.966 450.673 178.561C451.343 177.198 452.79 176.34 454.163 176.562C454.403 176.599 454.635 176.666 454.852 176.764C455.29 176.959 455.665 177.273 455.946 177.672C456.078 177.865 456.03 178.126 455.838 178.259C455.649 178.394 455.387 178.347 455.252 178.154C455.063 177.881 454.806 177.665 454.511 177.534C454.358 177.468 454.198 177.42 454.034 177.395C453.064 177.26 451.943 177.891 451.432 178.933C451.277 179.245 451.184 179.574 451.154 179.91C451.134 180.133 450.94 180.298 450.72 180.291Z" fill="#CC7972"/>
<path d="M425.531 176.522C424.776 176.345 424.02 176.815 423.843 177.571C423.666 178.326 424.134 179.083 424.891 179.26C425.646 179.437 426.402 178.968 426.579 178.212C426.755 177.456 426.287 176.7 425.531 176.522Z" fill="#193368"/>
<path d="M436.904 176.889C436.148 176.712 435.392 177.181 435.215 177.937C435.038 178.693 435.507 179.449 436.263 179.627C437.019 179.804 437.774 179.334 437.951 178.578C438.128 177.822 437.659 177.066 436.904 176.889Z" fill="#193368"/>
<path d="M441.284 172.799C441.225 172.503 440.855 172.324 440.507 172.261C438.889 171.97 437.261 172.111 435.663 172.416C435.1 172.523 433.575 172.682 433.792 173.44C433.932 173.932 434.809 174.314 435.367 174.276C436.613 174.194 437.855 174.08 439.091 173.936C439.792 173.854 441.48 173.774 441.284 172.799Z" fill="#193368"/>
<path d="M427.651 172.606C426.165 171.929 424.546 171.676 422.909 171.59C422.453 171.566 421.971 171.489 421.523 171.574C421.319 171.614 421.124 171.687 420.993 171.831C420.838 172.001 420.781 172.423 420.867 172.634C420.953 172.842 421.154 173.005 421.377 173.11C422.021 173.415 422.814 173.483 423.516 173.594C424.276 173.713 425.038 173.822 425.801 173.918C426.504 174.006 428.163 174.333 428.252 173.325C428.279 173.018 427.971 172.752 427.651 172.606Z" fill="#193368"/>
<path d="M429.616 186.304C429.56 186.302 429.504 186.289 429.449 186.264C428.615 185.873 428.072 185.343 427.84 184.69C427.628 184.098 427.688 183.449 428.017 182.764C428.2 182.377 428.479 181.897 428.793 181.36C429.173 180.709 429.605 179.973 429.965 179.223C430.067 179.016 430.311 178.923 430.528 179.027C430.736 179.128 430.827 179.379 430.724 179.59C430.35 180.369 429.911 181.122 429.521 181.785C429.221 182.3 428.953 182.757 428.776 183.127C428.55 183.603 428.5 184.033 428.633 184.405C428.784 184.834 429.193 185.212 429.81 185.501C430.018 185.6 430.112 185.85 430.013 186.061C429.938 186.219 429.78 186.309 429.616 186.304Z" fill="#CC7972"/>
<path d="M429.057 188.997L437.503 188.219C436.093 191.82 430.47 192.385 429.057 188.997Z" fill="white"/>
<path d="M414.791 245.922C414.381 245.922 414.021 245.622 413.959 245.202L412.585 235.964C412.516 235.504 412.833 235.075 413.294 235.007C413.749 234.93 414.183 235.254 414.251 235.717L415.625 244.955C415.694 245.414 415.377 245.844 414.916 245.912C414.875 245.919 414.832 245.922 414.791 245.922Z" fill="#F97316"/>
<path d="M394.194 238.012L375.864 231.727L370.2 234.138L333.343 220.277L325.634 236.267L365.715 258.332C368.964 260.12 372.777 260.587 376.361 259.634L388.232 256.479L394.194 238.012Z" fill="#F97316"/>
<path d="M432.343 273.303V289.045L487.935 302.731C495.832 304.675 503.242 298.136 502.303 290.053L500.349 273.253L487.972 265.602L471.042 276.713L432.343 273.303Z" fill="#F97316"/>
<path d="M476.981 277.497L432.281 274.14C431.817 274.104 431.467 273.7 431.502 273.235C431.538 272.771 431.952 272.42 432.406 272.456L474.933 275.652L469.993 248.367C469.91 247.909 470.214 247.47 470.673 247.386C471.117 247.312 471.568 247.606 471.652 248.067L476.981 277.497Z" fill="#F97316"/>
<path d="M490.503 304.616C490.444 304.616 490.386 304.609 490.327 304.597L431.5 292.136V287.948C431.5 287.482 431.877 287.105 432.343 287.105C432.809 287.105 433.186 287.482 433.186 287.948V290.769L490.675 302.947C491.131 303.044 491.421 303.491 491.326 303.947C491.242 304.344 490.891 304.616 490.503 304.616Z" fill="#F97316"/>
<path d="M387.101 290.886H331.639C328.936 290.886 326.618 288.955 326.129 286.296L319.001 247.597C318.635 245.61 320.16 243.777 322.18 243.777H373.701C376.438 243.777 378.785 245.732 379.281 248.426L387.101 290.886Z" fill="#68B8E9"/>
<path d="M416.753 287.195H327.478C327.394 287.195 327.326 287.264 327.326 287.348V290.734C327.326 290.818 327.394 290.886 327.478 290.886H416.753C416.837 290.886 416.906 290.818 416.906 290.734V287.348C416.906 287.264 416.837 287.195 416.753 287.195Z" fill="#68B8E9"/>
<path d="M384.413 290.886H328.95C326.248 290.886 323.93 288.956 323.44 286.296L316.313 247.597C315.948 245.61 317.472 243.777 319.492 243.777H371.013C373.75 243.777 376.097 245.732 376.593 248.426L384.413 290.886Z" fill="#429FD7"/>
<path d="M350.599 270.986C352.617 270.15 353.575 267.835 352.739 265.815C351.903 263.796 349.589 262.837 347.571 263.673C345.553 264.51 344.595 266.825 345.431 268.844C346.267 270.864 348.58 271.823 350.599 270.986Z" fill="white"/>
<path d="M215.648 281.593C220.442 281.053 223.889 276.726 223.349 271.93C222.809 267.134 218.485 263.684 213.692 264.224C208.899 264.765 205.451 269.091 205.991 273.888C206.531 278.684 210.855 282.134 215.648 281.593Z" fill="#FFC5BD"/>
<path d="M241.839 272.016L240.199 283.084L215.188 281.628L217.888 264.773L241.839 272.016Z" fill="#FFC5BD"/>
<path d="M244.346 282.057C246.826 280.216 247.345 276.712 245.506 274.231C243.667 271.749 240.165 271.23 237.685 273.07C235.205 274.911 234.686 278.414 236.525 280.896C238.364 283.378 241.866 283.897 244.346 282.057Z" fill="#FFC5BD"/>
<path d="M186.694 267.61C191.617 266.288 200.157 266.67 205.254 266.713C210.436 266.758 216.742 271.963 219.049 276.395C219.676 277.6 220.303 278.805 220.931 280.01C221.1 280.335 221.249 280.785 220.971 281.023C220.511 281.415 218.735 281.148 218.223 281.013C217.76 280.89 217.342 280.64 216.951 280.363C216.225 279.849 215.57 279.234 215.011 278.541C215.338 278.946 215.945 280.607 215.559 281.055C214.972 281.736 213.401 281.537 212.613 281.391C211.591 281.202 210.672 280.707 209.924 279.989C209.161 279.256 208.521 278.398 207.719 277.708C206.379 276.552 204.672 275.93 203.006 275.332C205.288 276.375 206.482 278.27 208.013 280.259C208.722 281.179 209.778 282.816 207.765 282.621C206.409 282.489 205.554 281.33 204.57 280.529C203.632 279.765 202.755 278.707 201.58 278.298C200.155 277.802 198.763 278.79 197.426 279.203C196.472 279.498 195.46 279.998 194.471 280.111C193.329 280.242 192.555 279.828 191.24 279.881C189.956 279.932 188.557 280.645 187.145 280.736C187.098 279.155 186.629 268.731 186.694 267.61Z" fill="#FFC5BD"/>
<path d="M213.425 267.137C214.801 267.355 215.76 268.584 216.536 269.742C217.043 270.498 217.536 271.265 217.967 272.068C218.77 273.562 219.355 275.174 219.698 276.837C219.747 277.078 219.792 277.326 219.752 277.569C219.597 278.52 218.236 278.789 217.413 278.29C216.589 277.791 216.151 276.863 215.634 276.05C213.918 273.349 210.849 271.558 207.654 271.392C206.98 271.357 206.198 271.341 205.786 270.805C205.418 270.325 205.537 269.604 205.898 269.119C207.113 267.482 211.54 266.84 213.425 267.137Z" fill="#FFC5BD"/>
<path d="M189.654 279.972C192.835 278.219 193.993 274.217 192.241 271.034C190.488 267.852 186.489 266.693 183.309 268.446C180.128 270.199 178.97 274.201 180.722 277.384C182.474 280.566 186.473 281.725 189.654 279.972Z" fill="#FFC5BD"/>
<path d="M234.741 283.711H290.204C292.907 283.711 295.224 281.78 295.714 279.12L302.841 240.422C303.207 238.434 301.682 236.602 299.663 236.602H248.142C245.404 236.602 243.057 238.557 242.562 241.25L234.741 283.711Z" fill="#627EB0"/>
<path d="M205.089 280.02H294.364C294.448 280.02 294.516 280.088 294.516 280.172V283.558C294.516 283.642 294.448 283.711 294.364 283.711H205.089C205.005 283.711 204.937 283.642 204.937 283.558V280.172C204.937 280.088 205.005 280.02 205.089 280.02Z" fill="#627EB0"/>
<path d="M237.43 283.711H292.892C295.595 283.711 297.912 281.78 298.402 279.12L305.529 240.422C305.895 238.434 304.37 236.602 302.351 236.602H250.83C248.092 236.602 245.745 238.557 245.25 241.25L237.43 283.711Z" fill="#193972"/>
<path d="M272.774 264.111C274.958 264.111 276.729 262.339 276.729 260.153C276.729 257.967 274.958 256.195 272.774 256.195C270.589 256.195 268.819 257.967 268.819 260.153C268.819 262.339 270.589 264.111 272.774 264.111Z" fill="white"/>
<path d="M187.277 280.761L185.235 267.762C177.379 268.998 165.683 269.969 154.071 270.644C144.191 271.218 135.533 272.065 130.766 272.816L133.972 293.221C152.967 289.576 169.711 285.376 187.165 280.79L187.277 280.761Z" fill="#FFC5BD"/>
<path d="M142.564 285.699C144.05 280.192 140.793 274.523 135.29 273.036C129.787 271.549 124.122 274.807 122.636 280.314C121.15 285.82 124.406 291.49 129.909 292.977C135.412 294.464 141.078 291.205 142.564 285.699Z" fill="#FFC5BD"/>
<path d="M191.819 278.094C193.957 275.157 193.31 271.041 190.374 268.902C187.439 266.763 183.326 267.41 181.188 270.348C179.051 273.285 179.697 277.4 182.633 279.539C185.568 281.679 189.681 281.031 191.819 278.094Z" fill="#FFC5BD"/>
<path d="M74.6 449.011L82.2428 434.059L95.8889 440.944L89.645 453.93C88.2207 456.703 87.8083 458.559 88.352 459.985L93.879 473.919C95.1788 477.292 90.9845 480.071 88.3885 477.557L66.252 456.117L74.6 449.011Z" fill="#FFC5BD"/>
<path d="M106.546 480.7C106.478 479.823 105.973 479.013 105.13 478.643L94.2397 474.088L92.7223 470.545C84.0579 466.328 77.5505 459.952 72.4935 451.214C72.2915 450.877 71.8868 450.81 71.6168 451.046L65.5821 456.106C65.1437 456.477 64.8403 456.916 64.6046 457.388C63.8289 458.94 64.0983 460.863 65.4137 462.111L76.2697 472.637L85.1115 481.193C86.6629 482.695 88.7368 483.534 90.8949 483.534H98.3192H104.219C105.534 483.534 106.579 482.42 106.579 480.97C106.58 480.869 106.58 480.768 106.546 480.7Z" fill="#193368"/>
<path d="M106.546 480.702H90.2363C89.2362 480.702 88.2751 480.313 87.5566 479.617L64.6051 457.391C63.8294 458.943 64.0988 460.865 65.4142 462.114L84.5978 480.702L86.411 482.455C87.1292 483.149 88.0889 483.537 89.0876 483.537H91.6106H104.22C105.534 483.537 106.58 482.423 106.58 480.973C106.58 480.872 106.58 480.77 106.546 480.702Z" fill="#193972"/>
<path d="M76.5259 439.931L95.6141 450.904C95.6141 450.872 131.532 383.102 136.84 372.991C140.517 366.081 146.223 355.542 145.325 346.175C144.778 340.463 140.875 334.145 133.214 331.572C129.146 330.206 125.138 328.952 120.999 327.871C120.231 329.758 82.8566 424.222 76.5259 439.931Z" fill="#193368"/>
<path d="M44.6228 325.473C44.6874 342.687 54.5927 357.219 66.997 358.29L130.948 364.068L140.337 351.704C144.802 345.824 140.023 334.039 133.909 331.824C120.205 326.858 96.4032 321.964 85.7728 320.781C73.8493 319.454 54.6439 318.283 44.1963 318.863L44.6228 325.473Z" fill="#193368"/>
<path d="M24.2422 311.438V329.802C24.2422 347.047 40.1651 361.157 53.7857 361.668L100.915 363.523L113.096 364.004L126.909 364.516L127.357 331.146C127.357 331.146 119.107 328.906 114.982 327.978C113.16 327.563 111.338 327.178 109.515 326.795C97.9722 324.427 86.3341 322.891 74.6633 322.187L71.775 311.438H24.2422Z" fill="#193972"/>
<path d="M106.686 285.648C106.895 282.644 104.631 280.039 101.628 279.83C98.6258 279.621 96.0225 281.887 95.8137 284.891C95.6048 287.896 97.8694 290.501 100.872 290.71C103.874 290.919 106.477 288.653 106.686 285.648Z" fill="#FFC5BD"/>
<path d="M131.287 291.873L121.879 292.662C121.36 291.983 120.925 291.268 120.322 290.625C119.241 289.443 117.735 288.703 116.289 287.986C118.204 289.126 119.075 290.902 120.244 292.799L117.347 293.042C117.285 292.989 117.252 292.934 117.189 292.881C116.4 292.08 115.706 291.04 114.683 290.548C113.418 289.931 112.068 290.709 110.787 290.932C109.907 291.121 108.925 291.464 108.031 291.481C106.962 291.484 106.135 290.917 105.186 290.621C104.71 290.458 104.051 290.514 103.558 290.497C103.269 290.492 102.925 290.521 102.554 290.581L102.526 290.584C102.241 290.636 101.954 290.66 101.699 290.71L101.498 290.727C101.234 289.304 101.81 287.551 102.182 286.132C102.418 285.158 102.714 284.209 102.919 283.209C103.129 282.266 102.414 280.968 102.653 280.023C105.617 280.237 114.564 279.805 119.204 280.37C120.371 280.503 121.592 280.95 122.742 281.576C126.286 283.534 129.553 287.364 130.775 290.586C130.955 291.005 131.137 291.453 131.287 291.873Z" fill="#FFC5BD"/>
<path d="M131.574 291.155C131.593 291.384 131.612 291.614 131.543 291.822L131.517 291.853C131.435 291.862 129.136 292.053 129.136 292.053C128.571 291.522 128.303 290.735 127.925 290.015C126.636 287.377 124.046 285.427 121.146 284.947C120.532 284.854 119.832 284.768 119.499 284.247C119.226 283.75 119.405 283.128 119.776 282.721C120.359 282.094 121.484 281.739 122.742 281.576C124.252 281.334 125.904 281.398 126.822 281.668C128.063 281.997 128.802 283.236 129.388 284.372C129.795 285.089 130.147 285.84 130.472 286.622C131.056 288.077 131.416 289.607 131.574 291.155Z" fill="#FFC5BD"/>
<path d="M101.641 290.725L100.482 279.883C93.9293 280.584 72.0085 279.873 68.0317 280.299L69.8514 297.318C76.5957 296.238 89.691 294.013 101.547 290.744L101.641 290.725Z" fill="#FFC5BD"/>
<path d="M69.1322 297.346C73.8557 297.346 77.6849 293.514 77.6849 288.788C77.6849 284.061 73.8557 280.23 69.1322 280.23C64.4088 280.23 60.5796 284.061 60.5796 288.788C60.5796 293.514 64.4088 297.346 69.1322 297.346Z" fill="#FFC5BD"/>
<path d="M105.652 288.468C107.416 286.028 106.869 282.62 104.431 280.855C101.993 279.091 98.587 279.638 96.8234 282.077C95.0598 284.517 95.6065 287.925 98.0444 289.69C100.483 291.454 103.889 290.907 105.652 288.468Z" fill="#FFC5BD"/>
<path d="M55.1351 245.721C61.0195 242.639 63.2923 235.366 60.2116 229.478C57.131 223.59 49.8634 221.316 43.9791 224.399C38.0948 227.481 35.822 234.753 38.9026 240.642C41.9833 246.53 49.2508 248.804 55.1351 245.721Z" fill="#FFC5BD"/>
<path d="M75.6118 292.527C77.5948 288.266 75.7509 283.204 71.4933 281.22C67.2357 279.235 62.1767 281.081 60.1937 285.341C58.2107 289.601 60.0547 294.664 64.3123 296.648C68.5699 298.632 73.6289 296.787 75.6118 292.527Z" fill="#FFC5BD"/>
<path d="M60.9681 231.203L61.0558 231.614C65.2678 251.323 69.5097 267.092 75.9565 286.187L59.8429 291.634L59.7557 291.449C51.1519 273.227 44.7045 258.205 38.2501 239.114L38.1802 238.907L60.9681 231.203Z" fill="#FFC5BD"/>
<path d="M16.5831 277.051C15.4358 254.334 15.8676 229.011 36.3392 214.23C40.5868 215.786 53.6249 220.388 53.6249 220.388C54.766 221.367 59.1828 226.401 61.532 229.482C67.2625 236.998 70.1348 244.348 70.656 252.047C70.9546 256.455 69.5532 261.086 69.3961 266.819C69.1717 275.009 69.5843 284.014 70.4472 292.578C70.6676 294.766 73.9414 314.019 74.9803 318.611C63.3138 319.792 41.1134 328.161 36.9131 328.664C32.9134 329.144 26.7191 330.144 24.0289 333.507C21.0766 321.442 19.545 309.078 18.2395 296.725C17.5464 290.166 16.9145 283.612 16.5831 277.051Z" fill="#F97316"/>
<path d="M52.25 218.805L52.9666 219.07L58.8672 224.817L53.4069 221.588L52.25 218.805Z" fill="#F2F2F2"/>
<path d="M44.9061 206.178C38.6223 204.505 33.6769 198.66 33.0647 192.182C33.2393 199.148 29.4078 205.78 23.8292 209.95C20.9245 212.122 17.7532 216.395 18.8883 221.588C11.3828 211.781 8.35944 198.672 10.8108 186.566C11.9921 180.731 14.5371 174.945 19.1252 171.156C23.7135 167.366 30.9122 165.811 36.0453 168.82C41.0559 164.397 47.4313 161.973 54.925 162.697C58.8143 163.074 62.8077 165.545 64.3954 168.55C68.1134 168.278 71.4928 169.765 74.0848 173.014C77.0645 176.75 77.5629 183.792 76.0132 188.313C74.4632 192.834 70.2954 197.077 67.0369 199.665C64.7788 201.458 60.9925 202.259 58.1704 202.847C53.0665 203.909 50.0103 205.115 44.9061 206.178Z" fill="#193368"/>
<path d="M32.2188 179.785C31.7898 179.759 31.4434 179.409 31.4287 178.97C31.2883 174.54 33.3429 170.384 35.4408 168.23C35.7677 167.897 36.3023 167.893 36.6342 168.215C36.9673 168.541 36.973 169.076 36.6492 169.41C34.859 171.245 32.9903 175.003 33.114 178.917C33.1287 179.382 32.7636 179.772 32.2975 179.786C32.2715 179.786 32.2449 179.786 32.2188 179.785Z" fill="#193972"/>
<path d="M53.1954 222.196L53.4558 221.106L53.4634 221.038L59.2641 197.559L43.1171 191.266L40.5562 199.734L35.8438 215.443L53.1954 222.196Z" fill="#FFC5BD"/>
<path d="M40.5566 199.734C41.9527 208.314 47.0493 217.182 53.4562 221.106L53.4638 221.038L59.2645 197.559L43.1175 191.266L40.5566 199.734Z" fill="#EF9B8F"/>
<path d="M51.3021 171.181C61.4817 170.286 68.6451 174.879 70.1688 183.202C71.4963 190.456 70.1391 200.832 67.1234 207.561C64.5667 213.267 61.0921 216.317 56.219 215.223C51.2532 214.109 46.4416 210.358 43.7332 206.476C40.7739 202.234 37.0564 196.599 36.3842 190.474C35.5814 180.923 39.8604 172.187 51.3021 171.181Z" fill="#FFC5BD"/>
<path d="M52.0475 170.099C53.1526 170.042 54.2243 170.046 55.2564 170.109C64.2808 170.657 70.36 175.719 71.5248 183.655C71.7343 185.096 71.8115 186.668 71.8214 188.285C71.5093 188.047 71.1974 187.804 70.8799 187.601C69.1434 186.496 66.8369 184.268 65.8829 182.618C60.8013 189.001 52.9477 192.293 44.0598 192.958C43.2436 194.914 41.9296 200.951 42.0179 204.139L39.4247 203.438C37.2165 199.569 35.866 195.025 35.4887 189.904C35.0501 180.768 39.1692 170.768 52.0475 170.099Z" fill="#193368"/>
<path d="M44.3491 191.384C46.0729 192.949 47.3204 195.051 48.0684 197.257C49.9526 195.605 50.7481 192.813 50.0174 190.415C48.5226 190.084 47.1922 190.023 45.7138 190.42C45.533 190.469 45.3479 190.526 45.2055 190.647C45.0632 190.769 44.9734 190.971 45.0371 191.148C44.9788 191.224 44.4069 191.308 44.3491 191.384Z" fill="#193368"/>
<path d="M40.9702 197.298C41.5993 199.748 43.8767 201.279 46.0569 200.719C48.2369 200.158 49.4943 197.718 48.8651 195.267C48.236 192.817 45.9584 191.286 43.7785 191.846C41.5985 192.407 40.3411 194.847 40.9702 197.298Z" fill="#FFC5BD"/>
<path d="M47.0733 197.131C47.0928 197.134 47.1127 197.134 47.1325 197.135C47.3651 197.128 47.5462 196.935 47.5431 196.703C47.5321 196.305 47.448 195.911 47.2898 195.525C46.766 194.248 45.5021 193.389 44.2374 193.497C44.0234 193.514 43.8092 193.56 43.6017 193.636C43.1869 193.788 42.8221 194.051 42.5439 194.399C42.4004 194.582 42.4298 194.847 42.6121 194.992C42.7907 195.14 43.0564 195.106 43.2061 194.926C43.3884 194.695 43.6193 194.529 43.8893 194.428C44.0274 194.379 44.1669 194.349 44.3041 194.337C45.2454 194.277 46.1219 194.903 46.5113 195.846C46.6307 196.136 46.6933 196.43 46.6995 196.723C46.7049 196.935 46.8673 197.108 47.0733 197.131Z" fill="#EF9B8F"/>
<path d="M66.8757 194.145L71.4844 201.431C72.1175 202.431 71.494 203.751 70.3193 203.896L64.6431 204.6L66.8757 194.145Z" fill="#FFC5BD"/>
<path d="M64.6326 194.721C65.3996 194.6 66.1187 195.123 66.2404 195.89C66.3612 196.657 65.8379 197.377 65.0718 197.498C64.3049 197.619 63.5858 197.096 63.4641 196.329C63.3433 195.562 63.8665 194.842 64.6326 194.721Z" fill="#193368"/>
<path d="M60.0085 189.902C60.1195 189.622 60.5159 189.511 60.8691 189.512C62.5136 189.515 64.09 189.944 65.6086 190.528C66.1429 190.734 67.615 191.162 67.2667 191.87C67.0408 192.329 66.11 192.548 65.5672 192.412C64.3566 192.109 63.1546 191.776 61.9635 191.413C61.2888 191.207 59.6426 190.827 60.0085 189.902Z" fill="#193368"/>
<path d="M65.3851 201.395C64.0646 201.545 62.7648 201.172 61.7247 200.344C60.6847 199.515 60.0293 198.331 59.8796 197.01C59.7296 195.688 60.1026 194.387 60.9303 193.347C61.7581 192.306 62.9416 191.65 64.2621 191.501C66.988 191.191 69.4578 193.158 69.7677 195.886C69.9177 197.207 69.5447 198.508 68.7169 199.549C68.0122 200.434 67.05 201.041 65.9647 201.295C65.7751 201.339 65.5818 201.373 65.3851 201.395ZM61.3008 193.642C60.5517 194.583 60.2141 195.76 60.3496 196.956C60.4855 198.152 61.0781 199.224 62.0193 199.973C62.9603 200.723 64.1368 201.061 65.3319 200.925C66.5259 200.79 67.5973 200.196 68.3464 199.254C69.0955 198.313 69.4332 197.135 69.2976 195.939C69.0172 193.471 66.7823 191.691 64.3156 191.971C64.1379 191.991 63.9627 192.022 63.7909 192.062C62.8089 192.291 61.9384 192.84 61.3008 193.642Z" fill="white"/>
<path d="M60.0951 195.333C58.1854 194.91 53.9016 193.974 51.9919 193.55C51.6781 193.481 51.7667 192.988 52.0825 193.058C53.7958 193.437 59.9896 194.797 60.1857 194.841C60.4996 194.91 60.411 195.403 60.0951 195.333Z" fill="white"/>
<path d="M66.1121 207.118C65.0848 207.118 63.7711 206.746 62.9315 205.985C62.7603 205.828 62.7473 205.561 62.9018 205.388C63.0566 205.215 63.3331 205.205 63.4978 205.359C64.3012 206.09 65.7926 206.405 66.6289 206.227C66.8593 206.184 67.08 206.322 67.1293 206.55C67.1785 206.779 67.0339 207.003 66.8066 207.05C66.5995 207.095 66.3657 207.118 66.1121 207.118Z" fill="#EF9B8F"/>
<path d="M36.2899 213.25L53.407 221.587L55.5587 229.481L33.5332 216.424L36.2899 213.25Z" fill="#F2F2F2"/>
<path d="M44.9756 242.948C48.2515 237.166 46.2232 229.822 40.4451 226.544C34.6671 223.266 27.3274 225.296 24.0514 231.077C20.7755 236.859 22.8039 244.203 28.5819 247.482C34.36 250.76 41.6996 248.73 44.9756 242.948Z" fill="#FFC5BD"/>
<path d="M48.5069 301.421C52.5409 299.014 53.8613 293.791 51.4561 289.754C49.0509 285.718 43.8309 284.396 39.7968 286.803C35.7628 289.21 34.4424 294.433 36.8476 298.47C39.2528 302.506 44.4728 303.828 48.5069 301.421Z" fill="#FFC5BD"/>
<path d="M46.3864 235.055L46.4059 235.475C47.3526 255.608 49.2974 272.859 52.5493 292.75L35.7642 295.498L35.7082 295.301C30.1862 275.919 25.9437 259.045 22.6838 239.157L22.6484 238.941L46.3864 235.055Z" fill="#FFC5BD"/>
<path d="M92.9977 290.541L90.8882 279.121C83.9858 280.397 70.6858 281.841 60.4561 282.71C51.7524 283.45 46.8262 283.728 42.6372 284.503L45.9486 302.43C62.6217 298.765 76.4845 295.26 92.899 290.569L92.9977 290.541Z" fill="#FFC5BD"/>
<path d="M51.303 299.495C54.6387 295.726 54.2896 289.966 50.5232 286.628C46.7568 283.29 40.9995 283.64 37.6637 287.408C34.328 291.177 34.6772 296.937 38.4435 300.275C42.2099 303.613 47.9673 303.264 51.303 299.495Z" fill="#FFC5BD"/>
<path d="M93.6101 290.407C96.7129 289.603 98.5771 286.435 97.7739 283.33C96.9708 280.225 93.8043 278.36 90.7015 279.163C87.5987 279.967 85.7345 283.136 86.5377 286.24C87.3409 289.345 90.5073 291.211 93.6101 290.407Z" fill="#FFC5BD"/>
<path d="M95.3017 288.907C97.7772 287.194 98.3962 283.798 96.6843 281.321C94.9724 278.844 91.5778 278.224 89.1024 279.937C86.6269 281.65 86.0079 285.047 87.7198 287.524C89.4317 290.001 92.8263 290.62 95.3017 288.907Z" fill="#FFC5BD"/>
<path d="M93.2188 279.073C96.1835 279.073 105.069 277.999 109.736 278.222C114.48 278.448 120.07 283.441 122.025 287.583C122.556 288.709 123.088 289.835 123.62 290.961C123.763 291.265 123.884 291.683 123.62 291.891C123.185 292.233 121.567 291.925 121.104 291.783C120.684 291.654 120.31 291.409 119.962 291.142C119.315 290.645 118.737 290.058 118.25 289.404C118.535 289.787 119.032 291.329 118.662 291.726C118.099 292.329 116.668 292.09 115.951 291.928C115.023 291.719 114.198 291.232 113.539 290.548C112.866 289.849 112.31 289.041 111.601 288.38C110.414 287.273 108.873 286.643 107.368 286.036C109.421 287.072 110.448 288.851 111.779 290.727C112.395 291.595 113.304 293.133 111.467 292.882C110.23 292.713 109.488 291.62 108.615 290.852C107.783 290.118 107.017 289.118 105.957 288.701C104.669 288.196 103.359 289.051 102.119 289.382C101.235 289.617 100.29 290.039 99.3803 290.107C98.3298 290.186 97.4748 289.699 96.4973 289.463C96.0043 289.344 95.3645 289.443 94.8596 289.458C94.2752 289.476 93.3919 289.746 92.8285 289.844C92.4643 288.429 92.9041 286.652 93.1636 285.214C93.3427 284.222 93.5691 283.238 93.7024 282.238C93.83 281.281 93.043 280.024 93.2188 279.073Z" fill="#FFC5BD"/>
<path d="M161.897 467.795L156.355 447.941H171.811L175.549 460.924C176.281 463.29 177.421 465.116 179.412 466.039L193.068 472.205C196.347 473.724 195.265 478.639 191.652 478.639H160.844L161.897 467.795Z" fill="#FFC5BD"/>
<path d="M160.347 479.091C160.313 479.673 160.381 480.186 160.552 480.698C161.065 482.339 162.602 483.536 164.413 483.536H208.286C209.584 483.536 210.643 482.408 210.643 480.972C210.643 480.87 210.643 480.767 210.61 480.699C210.541 479.81 210.029 479.023 209.208 478.647L189.903 470.578C180.753 473.585 171.636 473.523 161.914 470.774C161.561 470.674 161.201 470.908 161.163 471.273L160.347 479.091Z" fill="#193368"/>
<path d="M160.552 480.695C161.065 482.336 162.602 483.533 164.413 483.533H208.286C209.584 483.533 210.644 482.405 210.644 480.969C210.644 480.866 210.644 480.764 210.61 480.696L160.552 480.695Z" fill="#193972"/>
<path d="M127.357 331.145C139.029 333.505 142.564 338.317 143.922 342.809C152.772 372.078 177.83 456.294 177.83 456.294L155.998 459.787C140.193 419.352 124.922 384.696 113.555 354.559L127.357 331.145Z" fill="#193972"/>
<path d="M49.5698 376.831H68.977C69.1708 376.831 69.3282 376.674 69.3282 376.48V368.66H49.2183V376.48C49.2186 376.674 49.376 376.831 49.5698 376.831Z" fill="#3094D0"/>
<path d="M54.2866 420.968H64.2593V374.258H54.2866V420.968Z" fill="#3094D0"/>
<path d="M52.1694 460.965H66.3767V406.895H52.1694V460.965Z" fill="#3094D0"/>
<path d="M20.6106 457.465H55.8368H59.2727H62.7086H97.9348C101.73 457.465 104.807 460.524 104.807 464.297V475.192H97.9348V464.297H62.7089V475.192H59.273H55.8371V464.297H20.6106V475.192H13.7388V464.297C13.7388 460.524 16.8153 457.465 20.6106 457.465Z" fill="#3094D0"/>
<path d="M14.5041 483.535C19.1396 483.535 22.8974 479.798 22.8974 475.189C22.8974 470.58 19.1396 466.844 14.5041 466.844C9.86864 466.844 6.11084 470.58 6.11084 475.189C6.11084 479.798 9.86864 483.535 14.5041 483.535Z" fill="#3094D0"/>
<path d="M7.78564 475.188C7.78564 471.505 10.7996 468.508 14.5044 468.508C18.2092 468.508 21.2232 471.505 21.2232 475.188C21.2232 478.872 18.2092 481.869 14.5044 481.869C10.7996 481.869 7.78564 478.872 7.78564 475.188ZM8.09639 475.188C8.09639 478.702 10.9711 481.56 14.5044 481.56C18.0377 481.56 20.9124 478.701 20.9124 475.188C20.9124 471.675 18.0377 468.817 14.5044 468.817C10.9711 468.817 8.09639 471.675 8.09639 475.188Z" fill="#398DD1"/>
<path d="M59.2732 483.535C63.9087 483.535 67.6665 479.798 67.6665 475.189C67.6665 470.58 63.9087 466.844 59.2732 466.844C54.6377 466.844 50.8799 470.58 50.8799 475.189C50.8799 479.798 54.6377 483.535 59.2732 483.535Z" fill="#3094D0"/>
<path d="M52.5542 475.188C52.5542 471.505 55.5681 468.508 59.2729 468.508C62.9777 468.508 65.9917 471.505 65.9917 475.188C65.9917 478.872 62.9777 481.869 59.2729 481.869C55.5684 481.869 52.5542 478.872 52.5542 475.188ZM52.8652 475.188C52.8652 478.702 55.7399 481.56 59.2732 481.56C62.8065 481.56 65.6812 478.701 65.6812 475.188C65.6812 471.675 62.8065 468.817 59.2732 468.817C55.7399 468.817 52.8652 471.675 52.8652 475.188Z" fill="#398DD1"/>
<path d="M104.042 483.535C108.677 483.535 112.435 479.798 112.435 475.189C112.435 470.58 108.677 466.844 104.042 466.844C99.4062 466.844 95.6484 470.58 95.6484 475.189C95.6484 479.798 99.4062 483.535 104.042 483.535Z" fill="#3094D0"/>
<path d="M104.042 481.869C100.337 481.869 97.3232 478.872 97.3232 475.188C97.3232 471.505 100.337 468.508 104.042 468.508C107.747 468.508 110.761 471.505 110.761 475.188C110.761 478.872 107.747 481.869 104.042 481.869ZM104.042 468.817C100.509 468.817 97.634 471.675 97.634 475.188C97.634 478.702 100.509 481.56 104.042 481.56C107.575 481.56 110.45 478.701 110.45 475.188C110.45 471.675 107.575 468.817 104.042 468.817Z" fill="#398DD1"/>
<path d="M-4.13842 244.475C-1.69554 243.919 1.33513 245.212 1.88358 247.897C3.92262 257.876 5.96166 267.854 8.00097 277.833C10.6476 290.785 13.294 303.736 15.9406 316.688C16.1441 317.683 16.3399 318.681 16.555 319.674C17.1621 322.479 17.9709 325.239 18.9755 327.927C19.1909 328.503 19.3737 329.178 19.672 329.724C19.708 329.791 19.7402 329.853 19.7603 329.899C19.8967 330.208 20.0354 330.516 20.1769 330.822C20.787 332.145 21.4461 333.445 22.1522 334.719C23.4447 337.05 24.8951 339.293 26.4898 341.429C26.526 341.478 26.5727 341.55 26.6203 341.628C26.7762 341.851 26.9837 342.066 27.1484 342.269C27.5647 342.783 27.9897 343.291 28.423 343.791C29.3603 344.873 30.3364 345.921 31.3492 346.932C32.2829 347.864 33.2473 348.765 34.241 349.633C34.7374 350.067 35.2411 350.492 35.7516 350.909C35.9956 351.108 36.2426 351.303 36.488 351.5C36.6052 351.589 36.722 351.678 36.8398 351.765C39.0452 353.41 41.365 354.9 43.7767 356.223C44.9382 356.86 46.1214 357.459 47.323 358.016C47.6242 358.156 47.9264 358.293 48.2295 358.428C48.2951 358.457 48.3979 358.511 48.5003 358.567C49.1139 358.871 49.8171 359.08 50.4488 359.315C52.9636 360.25 55.5423 361.013 58.1609 361.597C59.4848 361.892 60.8186 362.142 62.1597 362.345C62.2458 362.358 62.3539 362.386 62.458 362.417C62.7116 362.456 62.9985 362.456 63.2289 362.481C64.0261 362.57 64.8247 362.642 65.6248 362.697C67.0896 362.8 68.5567 362.841 70.0249 362.842C74.6837 362.846 99.9083 362.842 113.088 362.842C113.355 362.842 113.622 362.842 113.888 362.842C116.449 362.842 118.902 365.095 118.784 367.741C118.665 370.395 116.632 372.639 113.888 372.639C109.994 372.639 96.9568 372.639 89.1058 372.639C83.2043 372.639 77.3029 372.639 71.4017 372.639C63.041 372.639 54.7323 371.464 46.9121 368.406C35.6563 364.003 26.0022 356.75 18.6379 347.166C12.7962 339.564 8.81036 330.582 6.88877 321.197C6.0542 317.121 5.22273 313.045 4.38986 308.968C2.86957 301.528 1.349 294.087 -0.171294 286.647C-1.70177 279.157 -3.23224 271.668 -4.76272 264.178C-5.65191 259.827 -6.54111 255.475 -7.43031 251.124C-7.47276 250.916 -7.51519 250.709 -7.55764 250.501C-8.06903 247.998 -6.83458 245.09 -4.13842 244.475Z" fill="#1A70B4"/>
<path d="M3.91394 306.25C2.08461 306.25 0.544501 307.717 0.54252 309.548C0.506296 344.123 25.224 373.151 59.2932 378.551L60.3468 371.886C30.7148 367.19 8.91543 342.698 7.37448 312.998H93.1428C96.8666 312.998 99.8857 309.977 99.8857 306.25H3.91394Z" fill="#3094D0"/>
<path d="M124.576 293.316H166.074C168.776 293.316 171.094 291.385 171.584 288.725L178.711 250.027C179.077 248.039 177.552 246.207 175.533 246.207H137.976C135.239 246.207 132.892 248.162 132.396 250.855L124.576 293.316Z" fill="#1A70B4"/>
<path d="M94.9242 289.625H170.234C170.318 289.625 170.386 289.693 170.386 289.777V293.163C170.386 293.247 170.318 293.316 170.234 293.316H94.9242C94.8402 293.316 94.772 293.247 94.772 293.163V289.777C94.7717 289.693 94.8399 289.625 94.9242 289.625Z" fill="#1A70B4"/>
<path d="M127.265 293.316H168.762C171.465 293.316 173.783 291.385 174.272 288.725L181.399 250.027C181.765 248.039 180.241 246.207 178.221 246.207H140.665C137.927 246.207 135.581 248.162 135.085 250.855L127.265 293.316Z" fill="#539FDA"/>
<path d="M160.107 267.333C158.583 266.936 157.001 268.341 156.573 270.472C156.146 272.602 157.034 274.652 158.558 275.049C160.082 275.446 161.664 274.041 162.092 271.91C162.519 269.78 161.63 267.73 160.107 267.333Z" fill="white"/>
</g>
</g>
<defs>
<clipPath id="clip0_5794_45689">
<rect width="496" height="496" fill="white"/>
</clipPath>
</defs>
</svg>
