<svg width="49" height="48" viewBox="0 0 49 48" fill="none" xmlns="http://www.w3.org/2000/svg">
<path fill-rule="evenodd" clip-rule="evenodd" d="M6.50219 0C3.32103 0 0.742188 2.57884 0.742188 5.76V42.24C0.742188 45.4212 3.32102 48 6.50218 48H42.9822C46.1633 48 48.7422 45.4212 48.7422 42.24V5.76C48.7422 2.57884 46.1633 0 42.9822 0H6.50219ZM30.7473 27.8014L33.9985 28.1726C35.2913 28.3262 36.2641 29.4142 36.2513 30.707V32.9214C36.2513 34.3678 35.0481 35.571 33.6017 35.4814C22.6833 34.803 13.9409 26.0734 13.2625 15.1422C13.1729 13.6958 14.3761 12.4926 15.8225 12.4926H18.0369C18.6656 12.4916 19.2727 12.7219 19.7425 13.1398C20.2122 13.5576 20.5118 14.1337 20.5841 14.7582L20.9553 17.9838C21.0449 18.7646 20.7761 19.5326 20.2257 20.083L17.8577 22.451C19.7061 26.0844 22.6595 29.0378 26.2929 30.8862L28.6481 28.531C28.9202 28.2587 29.2504 28.0516 29.614 27.9252C29.9775 27.7988 30.365 27.7565 30.7473 27.8014Z" fill="#F97316"/>
</svg>
