<svg width="49" height="48" viewBox="0 0 49 48" fill="none" xmlns="http://www.w3.org/2000/svg">
<path fill-rule="evenodd" clip-rule="evenodd" d="M6.46312 0C3.28197 0 0.703125 2.57884 0.703125 5.76V42.24C0.703125 45.4212 3.28196 48 6.46312 48H42.9431C46.1243 48 48.7031 45.4212 48.7031 42.24V5.76C48.7031 2.57884 46.1243 0 42.9431 0H6.46312ZM26.2396 36.1598H21.1196V25.907H18.0527L18.5596 20.8126H21.1196V18.2398C21.1196 16.5425 21.7939 14.9146 22.9941 13.7144C24.1944 12.5141 25.8222 11.8398 27.5196 11.8398H31.3596V16.9598H27.5196C27.1801 16.9598 26.8546 17.0947 26.6145 17.3347C26.3745 17.5748 26.2396 17.9004 26.2396 18.2398V20.8126H31.3596L30.8527 25.907H26.2396V36.1598Z" fill="#F97316"/>
</svg>
