<svg width="49" height="48" viewBox="0 0 49 48" fill="none" xmlns="http://www.w3.org/2000/svg">
<path fill-rule="evenodd" clip-rule="evenodd" d="M0.015625 5.76C0.015625 2.57884 2.59447 0 5.77562 0H42.2556C45.4368 0 48.0156 2.57884 48.0156 5.76V42.24C48.0156 45.4212 45.4368 48 42.2556 48H5.77562C2.59446 48 0.015625 45.4212 0.015625 42.24V5.76ZM24.7789 38.4103L24.7649 38.4128L24.674 38.4576L24.6484 38.4627L24.6305 38.4576L24.5396 38.4128C24.5259 38.4085 24.5157 38.4107 24.5089 38.4192L24.5037 38.432L24.482 38.9799L24.4884 39.0055L24.5012 39.0221L24.6343 39.1168L24.6535 39.1219L24.6689 39.1168L24.802 39.0221L24.8173 39.0016L24.8225 38.9799L24.8007 38.4333C24.7973 38.4196 24.79 38.412 24.7789 38.4103ZM25.1181 38.2656L25.1015 38.2682L24.8647 38.3872L24.8519 38.4L24.8481 38.4141L24.8711 38.9645L24.8775 38.9799L24.8877 38.9888L25.145 39.1079C25.1612 39.1121 25.1736 39.1087 25.1821 39.0976L25.1873 39.0797L25.1437 38.2938C25.1395 38.2784 25.1309 38.269 25.1181 38.2656ZM24.2029 38.2682C24.1973 38.2648 24.1906 38.2636 24.1841 38.2651C24.1777 38.2665 24.172 38.2704 24.1684 38.2759L24.1607 38.2938L24.1172 39.0797C24.118 39.0951 24.1253 39.1053 24.1389 39.1104L24.1581 39.1079L24.4154 38.9888L24.4282 38.9786L24.4333 38.9645L24.4551 38.4141L24.4513 38.3987L24.4385 38.3859L24.2029 38.2682ZM20.3717 12.9356C19.528 12.3715 18.6134 11.9213 17.6517 11.5968L17.6504 11.598C17.6075 11.5834 17.5636 11.5683 17.5189 11.553C16.638 11.2502 15.4508 10.8422 14.732 11.6377C14.2112 12.2148 14.1016 13.0885 14.0083 13.8322L14.0076 13.838L14.0012 13.8867C13.8988 14.6995 13.8757 15.7593 14.1445 16.8089C13.1192 18.135 12.501 19.7171 12.501 21.44C12.501 24.055 13.9167 26.3232 16.012 27.895C17.0209 28.6411 18.1392 29.2266 19.3272 29.6307C19.049 30.2692 18.9039 30.9578 18.901 31.6544L18.6872 31.6979C17.7682 31.8233 17.1807 31.712 16.78 31.5417C16.0392 31.2269 15.573 30.5505 15.1215 29.8953C14.9801 29.6902 14.8401 29.4871 14.6936 29.2979C14.3135 28.8038 13.758 28.1894 12.9055 27.9052C12.5833 27.798 12.2317 27.8231 11.9281 27.975C11.6244 28.127 11.3936 28.3933 11.2863 28.7155C11.179 29.0376 11.2041 29.3892 11.356 29.6929C11.4313 29.8432 11.5354 29.9773 11.6625 30.0874C11.7895 30.1975 11.937 30.2816 12.0965 30.3347C12.5866 30.498 12.973 31.1253 13.3136 31.6783C13.4694 31.9313 13.6157 32.1688 13.758 32.3391C14.2354 32.9126 14.8703 33.5116 15.7816 33.8982C16.6533 34.2681 17.6786 34.4012 18.901 34.2515V35.52C18.901 35.8594 19.0359 36.185 19.2759 36.425C19.5159 36.6651 19.8415 36.7999 20.181 36.7999H27.861C28.2005 36.7999 28.526 36.6651 28.7661 36.425C29.0061 36.185 29.141 35.8594 29.141 35.52V31.68C29.141 30.9516 28.9887 30.2579 28.7148 29.6307C29.9028 29.2266 31.0211 28.6411 32.03 27.895C34.1253 26.3232 35.541 24.0537 35.541 21.44C35.541 19.7145 34.9215 18.1312 33.8936 16.8038C34.1624 15.7542 34.1381 14.6969 34.0357 13.8854C33.9448 13.1584 33.8168 12.206 33.3048 11.6377C32.586 10.8421 31.3997 11.2492 30.5177 11.5518C30.4732 11.5671 30.4294 11.5822 30.3864 11.5968C29.4253 11.921 28.5111 12.3707 27.6677 12.9344C26.5183 12.6387 25.292 12.48 24.021 12.48C22.7902 12.4773 21.5641 12.6304 20.3717 12.9356Z" fill="#F97316"/>
</svg>
