<svg width="640" height="640" viewBox="0 0 640 640" fill="none" xmlns="http://www.w3.org/2000/svg">
<path d="M320.685 640L319.176 639.55L334.418 588.204L335.93 588.654L320.685 640Z" fill="#893436"/>
<path d="M316.91 639.887L315.348 639.66L322.956 586.652L324.514 586.878L316.91 639.887Z" fill="#893436"/>
<path d="M186.906 639.773L213.249 479.652H199.712L176.727 639.773H186.906Z" fill="#311A27"/>
<path d="M242.534 568.872C267.592 597.238 452.922 601.022 486.488 577.855C520.057 554.689 533.768 418.053 520.057 362.267C506.347 306.477 446.777 291.348 412.262 294.186C377.75 297.02 250.461 434.575 250.461 434.575C250.461 434.575 219.84 478.57 219.84 505.044C219.84 531.522 242.534 568.872 242.534 568.872Z" fill="#D7D7D7"/>
<path d="M415.787 559.607C399.945 559.607 384.739 557.912 373.624 556.067C344.308 551.2 260.148 540.485 260.148 540.485L343.845 467.987H462.373L459.672 451.598C459.672 451.598 459.785 451.598 459.995 451.598C463.546 451.598 495.359 450.989 506.795 429.294C509.306 437.835 510.222 447.608 504.746 454.12C501.502 457.977 496.602 459.689 491.222 460.149C495.256 486.024 497.904 523.324 483.611 539.222C469.365 555.067 441.721 559.607 415.787 559.607Z" fill="#B82E2A"/>
<path d="M510.736 415.033C507.901 452.543 459.672 451.6 459.672 451.6L462.374 467.988H238.278L222.641 424.49C222.641 424.49 234.934 313.539 277.17 262.792C290.56 246.704 308.984 236.731 328.853 231.235C349.165 225.612 370.993 224.67 390.479 226.662C412.05 228.867 430.76 234.659 441.392 241.674C471.021 261.217 513.574 377.527 510.736 415.033Z" fill="#FA8F45"/>
<path d="M388.31 457.744L388.25 455.536C415.161 454.793 439.81 453.054 459.532 450.503L459.815 452.691C440.023 455.249 415.294 456.998 388.31 457.744Z" fill="#CE5E38"/>
<path d="M422.64 427.009C422.64 430.867 421.837 434.554 420.371 437.951C415.425 449.433 402.927 457.584 388.281 457.584C387.082 457.584 385.903 457.531 384.734 457.424C378.605 456.864 372.952 454.873 368.209 451.828C367.073 451.102 365.997 450.313 364.971 449.47C358.179 443.887 353.926 435.89 353.926 427.009C353.926 418.219 358.093 410.291 364.771 404.715C370.917 399.582 379.184 396.435 388.281 396.435C392.095 396.435 395.766 396.991 399.193 398.013C412.82 402.067 422.64 413.519 422.64 427.009Z" fill="#CE5E38"/>
<path d="M422.64 427.011C422.64 430.868 421.837 434.555 420.371 437.953C415.958 438.149 410.342 438.153 404.746 437.49C401.488 437.103 398.237 436.494 395.239 435.564C393.94 437.923 392.088 440.388 389.66 441.51C389.22 441.717 388.761 441.877 388.281 441.983C387.571 442.146 386.975 442.23 386.472 442.26C388.574 447.183 391.089 456.073 384.734 457.425C378.411 458.771 371.863 457.412 368.209 451.829C366.72 449.548 363.919 444.991 363.605 441.197C363.545 440.451 363.399 438.762 363.379 438.066C363.122 441.157 365.104 446.786 364.971 449.471C364.768 453.591 364.078 456.766 360.957 457.585C353.136 459.637 338.953 427.011 338.953 427.011L340.529 424.805C342.88 415.269 352.86 408.884 364.771 404.717C370.877 402.581 377.489 401.023 383.848 399.923C389.314 398.977 394.593 398.368 399.193 398.015C412.82 402.068 422.64 413.52 422.64 427.011Z" fill="#EFB68E"/>
<path d="M437.255 551.4C436.553 563.308 436.07 577.575 438.241 587.764C441.812 604.519 440.536 627.969 441.076 639.773H336.275C336.534 632.858 337.111 618.439 338.007 601.005C338.7 587.461 336.907 574.4 335.155 565.397C317.768 565.197 300.277 571.579 287.893 586.255C287.663 600.855 283.333 612.287 281.267 620.547C279.649 627.029 276.984 634.944 275.288 639.773H175.609C176.397 636.812 177.507 632.535 178.746 627.492C182.863 610.741 188.366 585.532 187.968 572.005C187.338 550.571 184.996 503.605 210.282 491.627C235.564 479.652 239.661 473.03 273.39 473.819C307.116 474.605 358.179 472.717 359.438 472.4C360.7 472.084 463.456 473.819 463.456 473.819L475.118 475.868C475.118 475.868 483.316 520.313 469.446 534.179C460.509 543.116 446.392 546.121 437.255 551.4Z" fill="#383936"/>
<path d="M138.799 467.988H164.961L170.004 411.569H129.027L138.799 467.988Z" fill="#F44944"/>
<path d="M132.834 448.209C132.281 448.209 131.691 448.149 131.072 448.006C128.276 447.353 125.87 445.201 123.921 441.607C119.703 433.833 118.735 428.293 120.964 424.679C122.715 421.838 126.278 420.476 131.563 420.642L131.446 424.423C127.616 424.303 125.172 425.059 124.184 426.664C123.197 428.263 122.927 431.844 127.246 439.805C128.637 442.37 130.257 443.932 131.931 444.322C133.624 444.718 134.978 443.832 134.991 443.822L137.174 446.91C136.951 447.07 135.253 448.209 132.834 448.209Z" fill="#F44944"/>
<path d="M104.125 467.987H555.811L546.87 479.652H111.278L104.125 467.987Z" fill="#CCC492"/>
<path d="M520.134 639.773L497.15 479.669H483.613L509.954 639.773H520.134Z" fill="#311A27"/>
<path d="M390.48 226.66C383.255 233.585 358.58 256.099 341.789 257.431C324.694 258.787 327.689 237.255 328.855 231.233C349.167 225.61 370.994 224.668 390.48 226.66Z" fill="#C16728"/>
<path d="M319.018 185.76L317.969 184.581L323.615 179.551L324.661 180.727L319.018 185.76Z" fill="#614A5F"/>
<path d="M322.021 171.98C322.021 171.98 309.323 161.904 312.294 148.954C315.265 136 328.233 133.841 328.233 133.841L322.021 171.98Z" fill="#903631"/>
<path d="M466.696 519.92C462.023 524.64 453.432 525.742 444.339 526.915C432.974 528.377 421.219 529.886 418.827 539.106C416.895 546.554 418.334 557.536 420.153 571.443C422.505 589.423 425.433 611.794 423.424 639.773H421.848L421.852 639.717C423.854 611.873 420.936 589.57 418.594 571.649C416.749 557.573 415.296 546.454 417.305 538.709C419.96 528.463 432.251 526.881 444.136 525.352C452.566 524.263 461.283 523.144 465.574 518.81C475.58 508.704 465.49 478.946 465.391 478.646C465.247 478.236 465.467 477.787 465.88 477.647C466.29 477.5 466.736 477.72 466.879 478.133C467.312 479.395 477.385 509.127 466.696 519.92Z" fill="#C16728"/>
<path d="M387.803 147.584C402.066 148.457 397.989 172.323 383.15 185.42C368.307 198.514 382.567 153.986 382.567 153.986L387.803 147.584Z" fill="#903631"/>
<path d="M358.375 212.511C345.964 217.567 334.545 208.863 327.434 195.293C325.518 191.642 323.916 187.638 322.694 183.455C315.152 157.723 321.864 125.207 357.862 126.282C390.278 127.252 394.672 197.718 358.375 212.511Z" fill="#EFB68E"/>
<path d="M471.435 639.773L448.452 479.669H434.918L461.256 639.773H471.435Z" fill="#4D292A"/>
<path d="M132.695 639.773L159.037 479.652H145.501L122.516 639.773H132.695Z" fill="#4D292A"/>
<path d="M318.147 154.013L322.561 152.122C322.561 152.122 337.374 158.427 349.039 157.165C360.7 155.906 371.103 147.711 371.103 147.711L361.959 147.078C361.959 147.078 372.049 155.906 374.883 166.308C377.148 174.609 384.023 171.981 384.34 168.83C384.656 165.675 397.58 136.363 390.329 129.428C384.45 123.805 377.092 128.798 375.516 126.277C373.937 123.755 372.958 112.926 364.694 111.777C353.345 110.202 347.227 118.516 341.474 119.105C336.301 119.638 333.536 115.038 328.234 119.612C320.196 126.547 315.626 135.1 318.147 154.013Z" fill="#903631"/>
<path d="M389.072 171.98C389.072 176.68 385.261 180.49 380.561 180.49C375.861 180.49 372.051 176.68 372.051 171.98C372.051 167.28 375.861 163.469 380.561 163.469C385.261 163.469 389.072 167.28 389.072 171.98Z" fill="#EFB68E"/>
<path d="M320.669 154.013C335.485 167.567 367.318 164.416 372.991 148.97C378.667 133.525 333.906 142.352 333.906 142.352C333.906 142.352 323.926 146.868 323.4 146.975C322.874 147.078 320.039 151.179 320.039 151.179L320.669 154.013Z" fill="#903631"/>
<path d="M353.138 168.04C347.662 168.04 343.208 172.493 343.208 177.97C343.208 183.446 347.662 187.899 353.138 187.899C358.614 187.899 363.067 183.446 363.067 177.97C363.067 172.493 358.614 168.04 353.138 168.04ZM353.138 189.475C346.792 189.475 341.633 184.312 341.633 177.97C341.633 171.627 346.792 166.464 353.138 166.464C359.48 166.464 364.643 171.627 364.643 177.97C364.643 184.312 359.48 189.475 353.138 189.475Z" fill="#614A5F"/>
<path d="M327.842 173.006C322.846 173.006 318.779 177.07 318.779 182.066C318.779 187.062 322.846 191.13 327.842 191.13C332.839 191.13 336.906 187.062 336.906 182.066C336.906 177.07 332.839 173.006 327.842 173.006ZM327.842 192.705C321.976 192.705 317.203 187.932 317.203 182.066C317.203 176.2 321.976 171.43 327.842 171.43C333.708 171.43 338.481 176.2 338.481 182.066C338.481 187.932 333.708 192.705 327.842 192.705Z" fill="#614A5F"/>
<path d="M374.981 74.2168H303.06C302.627 74.2168 302.273 73.8637 302.273 73.4274C302.273 72.9944 302.627 72.6413 303.06 72.6413H374.981C375.414 72.6413 375.767 72.9944 375.767 73.4274C375.767 73.8637 375.414 74.2168 374.981 74.2168Z" fill="#F44944"/>
<path d="M325.124 80.0137H303.06C302.627 80.0137 302.273 79.6606 302.273 79.2243C302.273 78.7912 302.627 78.4382 303.06 78.4382H325.124C325.56 78.4382 325.913 78.7912 325.913 79.2243C325.913 79.6606 325.56 80.0137 325.124 80.0137Z" fill="#F44944"/>
<path d="M369.148 80.0137H332.204C331.771 80.0137 331.418 79.6606 331.418 79.2243C331.418 78.7912 331.771 78.4382 332.204 78.4382H369.148C369.584 78.4382 369.937 78.7912 369.937 79.2243C369.937 79.6606 369.584 80.0137 369.148 80.0137Z" fill="#F44944"/>
<path d="M341.853 66.7852H323.383C322.947 66.7852 322.594 66.4321 322.594 65.9991C322.594 65.5627 322.947 65.2096 323.383 65.2096H341.853C342.29 65.2096 342.639 65.5627 342.639 65.9991C342.639 66.4321 342.29 66.7852 341.853 66.7852Z" fill="#778065"/>
<path d="M357.58 66.7852H346.935C346.502 66.7852 346.148 66.4321 346.148 65.9991C346.148 65.5627 346.502 65.2096 346.935 65.2096H357.58C358.017 65.2096 358.37 65.5627 358.37 65.9991C358.37 66.4321 358.017 66.7852 357.58 66.7852Z" fill="#778065"/>
<path d="M351.288 85.8086H303.06C302.627 85.8086 302.273 85.4555 302.273 85.0225C302.273 84.5862 302.627 84.2331 303.06 84.2331H351.288C351.721 84.2331 352.074 84.5862 352.074 85.0225C352.074 85.4555 351.721 85.8086 351.288 85.8086Z" fill="#FFD154"/>
<path d="M387.642 85.8086H359.692C359.255 85.8086 358.902 85.4555 358.902 85.0225C358.902 84.5862 359.255 84.2331 359.692 84.2331H387.642C388.075 84.2331 388.428 84.5862 388.428 85.0225C388.428 85.4555 388.075 85.8086 387.642 85.8086Z" fill="#F44944"/>
<path d="M380.6 91.6035H303.06C302.627 91.6035 302.273 91.2504 302.273 90.8174C302.273 90.3811 302.627 90.028 303.06 90.028H380.6C381.037 90.028 381.39 90.3811 381.39 90.8174C381.39 91.2504 381.037 91.6035 380.6 91.6035Z" fill="#F44944"/>
<path d="M380.6 97.4004H303.06C302.627 97.4004 302.273 97.0507 302.273 96.6143C302.273 96.1779 302.627 95.8249 303.06 95.8249H380.6C381.037 95.8249 381.39 96.1779 381.39 96.6143C381.39 97.0507 381.037 97.4004 380.6 97.4004Z" fill="#FFD154"/>
<path d="M129.392 187.303H149.881V166.815H129.392V187.303ZM150.669 188.879H128.604C128.169 188.879 127.816 188.526 127.816 188.089V166.025C127.816 165.592 128.169 165.239 128.604 165.239H150.669C151.104 165.239 151.457 165.592 151.457 166.025V188.089C151.457 188.526 151.104 188.879 150.669 188.879Z" fill="#CCC492"/>
<path d="M479.453 252.063H546.018V209.903H479.453V252.063ZM546.768 253.559H478.703C478.29 253.559 477.957 253.225 477.957 252.812V209.157C477.957 208.744 478.29 208.408 478.703 208.408H546.768C547.181 208.408 547.517 208.744 547.517 209.157V252.812C547.517 253.225 547.181 253.559 546.768 253.559Z" fill="#CCC492"/>
<path d="M151.932 403.174C151.236 403.174 150.671 402.608 150.671 401.911C150.671 394.4 140.46 388.461 129.649 382.172C116.737 374.664 103.387 366.897 103.387 354.625C103.387 342.634 121.954 336.808 139.91 331.176C156.358 326.016 173.366 320.68 173.366 311.333C173.366 310.637 173.931 310.071 174.627 310.071C175.323 310.071 175.888 310.637 175.888 311.333C175.888 322.532 158.779 327.898 140.665 333.58C123.578 338.943 105.908 344.486 105.908 354.625C105.908 365.448 118.622 372.842 130.917 379.994C142.373 386.656 153.193 392.951 153.193 401.911C153.193 402.608 152.629 403.174 151.932 403.174Z" fill="#CCC492"/>
<path d="M402.516 394.916L402.023 392.768C402.333 392.694 433.264 385.623 448.943 384.923L449.043 387.125C433.561 387.818 402.826 394.846 402.516 394.916Z" fill="#CE5E38"/>
<path d="M437.246 387.172C434.771 350.395 415.521 321.059 415.328 320.77L417.163 319.547C417.213 319.62 422.173 327.128 427.363 339.13C432.149 350.202 438.132 367.499 439.447 387.025L437.246 387.172Z" fill="#CE5E38"/>
<path d="M160.547 290.527C160.425 290.527 160.301 290.511 160.178 290.471C155.995 289.192 148.308 288.515 139.408 287.733C127.52 286.687 114.047 285.501 102.987 282.48C89.672 278.846 82.8289 273.266 82.0671 265.432C79.7744 241.849 136.98 231.407 139.416 230.973C140.102 230.854 140.756 231.31 140.878 231.993C140.999 232.679 140.543 233.335 139.857 233.455C139.712 233.482 125.15 236.103 111.07 241.443C98.3974 246.246 83.5151 254.267 84.577 265.189C86.0662 280.511 117.024 283.233 139.628 285.221C148.671 286.017 156.48 286.703 160.916 288.062C161.582 288.266 161.956 288.968 161.753 289.635C161.586 290.178 161.087 290.527 160.547 290.527Z" fill="#CCC492"/>
<path d="M144.785 347.055C144.236 347.055 143.731 346.695 143.573 346.142C143.382 345.473 143.77 344.773 144.44 344.583C144.581 344.543 158.69 340.476 172.593 332.925C185.218 326.07 200.267 314.864 200.261 300.405C200.251 274.154 135.496 270.39 134.842 270.353C134.147 270.317 133.613 269.724 133.65 269.027C133.688 268.331 134.28 267.798 134.977 267.835C135.144 267.845 151.947 268.784 168.531 273.124C178.338 275.693 186.173 278.934 191.817 282.761C199.091 287.697 202.781 293.633 202.783 300.405C202.786 307.4 199.689 314.225 193.578 320.687C188.781 325.76 182.113 330.63 173.759 335.16C159.616 342.834 145.275 346.965 145.131 347.008C145.016 347.041 144.9 347.055 144.785 347.055Z" fill="#CCC492"/>
<path d="M443.81 467.988C443.81 467.042 438.344 421.182 438.344 421.182H481.003L477.522 467.988H443.81Z" fill="white"/>
<path d="M467.764 403.037C467.764 403.037 443.178 304.485 506.22 310.577C569.261 316.673 467.764 403.037 467.764 403.037Z" fill="#8CAD4A"/>
<path d="M448.433 401.912C448.433 401.912 373.207 353.74 414.813 344.913C456.42 336.086 448.433 401.912 448.433 401.912Z" fill="#8CAD4A"/>
<path d="M466.139 418.344H466.082C465.649 418.31 465.32 417.937 465.35 417.501C467.884 380.827 479.526 353.67 488.843 337.349C498.952 319.638 508.618 310.471 508.715 310.378C509.032 310.082 509.531 310.098 509.828 310.415C510.124 310.731 510.111 311.231 509.794 311.527C509.698 311.617 500.171 320.664 490.175 338.191C480.955 354.363 469.433 381.267 466.922 417.611C466.895 418.027 466.549 418.344 466.139 418.344Z" fill="#56654A"/>
<path d="M455.264 418.344C454.944 418.344 454.647 418.151 454.527 417.837C436.63 370.871 411.632 346.449 411.382 346.209C411.069 345.906 411.059 345.41 411.362 345.096C411.662 344.78 412.161 344.77 412.474 345.073C412.538 345.136 418.916 351.315 427.42 363.253C435.258 374.255 446.58 392.556 456 417.275C456.153 417.681 455.95 418.137 455.543 418.294C455.45 418.327 455.357 418.344 455.264 418.344Z" fill="#56654A"/>
<path d="M335.157 566.188C334.78 566.188 334.447 565.918 334.381 565.535C334.351 565.355 331.306 547.424 332.112 528.914C332.585 517.995 334.287 509.005 337.169 502.184C340.829 493.516 346.412 488.327 353.76 486.761C354.187 486.671 354.606 486.941 354.696 487.367C354.786 487.794 354.516 488.21 354.09 488.303C347.275 489.756 342.072 494.629 338.624 502.79C335.816 509.432 334.154 518.235 333.688 528.961C332.885 547.304 335.903 565.088 335.933 565.265C336.01 565.695 335.72 566.101 335.29 566.178C335.247 566.184 335.2 566.188 335.157 566.188Z" fill="#C16728"/>
<path d="M287.892 587.045C287.472 587.045 287.122 586.709 287.106 586.282C287.052 584.763 285.98 549.029 299.747 543.846C313.047 538.84 332.406 534.713 332.6 534.673C333.026 534.579 333.446 534.852 333.536 535.279C333.626 535.705 333.352 536.122 332.926 536.211C332.733 536.255 313.49 540.355 300.303 545.318C287.585 550.108 288.668 585.869 288.681 586.229C288.695 586.662 288.355 587.028 287.922 587.042L287.892 587.045Z" fill="#C16728"/>
<path d="M437.257 552.188H437.2C436.767 552.158 436.441 551.781 436.471 551.348L437.56 535.39C437.59 534.953 437.963 534.623 438.399 534.657C438.836 534.687 439.162 535.063 439.132 535.496L438.043 551.455C438.013 551.871 437.666 552.188 437.257 552.188Z" fill="#C16728"/>
<path d="M483.584 639.961L470.023 584.581L471.556 584.208L485.116 639.588L483.584 639.961Z" fill="#893436"/>
<path d="M486.911 639.863L480.223 580.932L481.788 580.752L488.48 639.683L486.911 639.863Z" fill="#893436"/>
<path d="M290.766 640L289.254 639.55L304.5 588.204L306.012 588.654L290.766 640Z" fill="#893436"/>
<path d="M286.989 639.887L285.43 639.66L293.038 586.652L294.596 586.878L286.989 639.887Z" fill="#893436"/>
<path d="M349.506 200.502C348.481 200.502 347.758 200.375 347.681 200.362C347.168 200.269 346.828 199.779 346.922 199.263C347.012 198.75 347.505 198.41 348.018 198.5C348.078 198.51 351.858 199.146 354.077 197.184C355.296 196.108 355.852 194.39 355.732 192.075C355.705 191.552 356.105 191.109 356.628 191.082C357.151 191.055 357.594 191.455 357.621 191.975C357.774 194.899 356.998 197.131 355.319 198.61C353.53 200.185 351.135 200.502 349.506 200.502Z" fill="#C2774C"/>
<path d="M338.136 180.611L336.867 179.675C337.72 178.513 340.068 176.777 342.843 178.546L342 179.875C339.818 178.486 338.303 180.388 338.136 180.611Z" fill="#614A5F"/>
<path d="M362.47 173.488C362.23 173.488 361.993 173.382 361.837 173.175C361.577 172.825 361.647 172.332 361.993 172.069L375.927 161.61C376.273 161.347 376.766 161.42 377.029 161.767C377.289 162.113 377.219 162.609 376.872 162.869L362.942 173.332C362.799 173.438 362.633 173.488 362.47 173.488Z" fill="#614A5F"/>
<path d="M260.308 403.043C260.142 378.627 265.495 356.75 270.015 342.696C274.911 327.461 279.928 317.848 279.978 317.751L281.93 318.777C281.88 318.873 276.937 328.353 272.097 343.422C267.637 357.312 262.35 378.927 262.514 403.03L260.308 403.043Z" fill="#CE5E38"/>
<path d="M198.689 458.638C198.689 458.638 197.112 467.988 209.195 467.988C221.278 467.988 364.8 467.988 364.8 467.988C364.8 467.988 382.295 467.988 393.327 467.988C404.359 467.988 404.832 457.589 404.832 457.589L198.689 458.638Z" fill="#EBE3E3"/>
<path d="M186.372 348.297C177.488 356.511 186.902 452.779 195.027 459.714C203.154 466.652 342.373 466.339 358.778 463.684C369.783 461.902 366.269 355.638 354.158 344.65C347.226 338.361 195.984 339.41 186.372 348.297Z" fill="#EBE3E3"/>
<path d="M359.924 463.178C365.806 438.306 361.919 357.354 351.12 347.554C344.748 341.772 220.061 342.005 186.07 348.62C186.169 348.5 186.268 348.394 186.372 348.297C195.984 339.413 347.226 338.361 354.155 344.65C366.01 355.405 369.277 454.581 359.924 463.178Z" fill="white"/>
<path d="M276.45 397.522C278.522 404.457 276.03 411.984 270.887 414.339C265.744 416.698 259.895 412.984 257.823 406.052C255.752 399.117 258.243 391.586 263.386 389.231C268.529 386.876 274.378 390.587 276.45 397.522Z" fill="white"/>
<path d="M558.359 171.76H431.543V82.6804H558.359V171.76Z" fill="#F1F1F1"/>
<path d="M558.359 93.0762H431.543V82.6803H558.359V93.0762Z" fill="#F44944"/>
<path d="M321.855 126.805C329.024 113.381 348.486 110.074 345.648 127.804C342.814 145.535 321.855 126.805 321.855 126.805Z" fill="#903631"/>
<mask id="mask0_22092_859" style="mask-type:luminance" maskUnits="userSpaceOnUse" x="383" y="398" width="40" height="41">
<path d="M415.289 438.062C411.988 438.062 408.364 437.913 404.75 437.486C405.03 437.12 405.319 436.727 405.623 436.307C412.864 426.311 401.202 403.537 383.852 399.92C389.318 398.974 394.597 398.364 399.197 398.011C412.824 402.065 422.644 413.517 422.644 427.007C422.644 430.864 421.841 434.552 420.375 437.949C418.813 438.019 417.098 438.062 415.289 438.062Z" fill="white"/>
</mask>
<g mask="url(#mask0_22092_859)">
<path d="M383.852 438.062H422.644V398.011H383.852V438.062Z" fill="#D0956E"/>
</g>
<path d="M385.486 442.756C383.614 439.055 380.576 435.841 380.546 435.811L379.84 435.068L380.529 434.309C380.636 434.189 383.214 431.194 381.559 426.091L383.657 425.412C385.196 430.158 383.69 433.509 382.764 434.971C383.807 436.167 385.945 438.779 387.454 441.76L385.486 442.756Z" fill="#CE5E38"/>
<path d="M335.961 510.969C335.985 511.402 335.648 511.775 335.215 511.795C334.662 511.822 279.785 514.613 263.467 527.091C253.584 534.642 255.519 563.485 257.388 591.378C258.574 609.052 259.8 627.326 257.891 639.773H256.305C256.305 639.737 256.309 639.693 256.315 639.654C258.221 627.372 256.998 609.125 255.816 591.481C254.873 577.448 253.904 562.935 254.46 551.18C255.106 537.594 257.668 529.539 262.508 525.839C279.216 513.065 332.86 510.333 335.139 510.223C335.568 510.197 335.945 510.533 335.961 510.969Z" fill="#C16728"/>
<path d="M456.134 104.691H438.656V101.917H456.134V104.691Z" fill="#778065"/>
<path d="M515.904 104.691H462.992V101.917H515.904V104.691Z" fill="#778065"/>
<path d="M495.172 112.285H453.648V109.51H495.172V112.285Z" fill="#F44944"/>
<path d="M546.184 112.285H500.184V109.51H546.184V112.285Z" fill="#FFD100"/>
<path d="M479.207 118.615H453.648V115.841H479.207V118.615Z" fill="#F44944"/>
<path d="M495.173 118.615H483.441V115.841H495.173V118.615Z" fill="#F44944"/>
<path d="M530.215 118.615H500.184V115.841H530.215V118.615Z" fill="#FFD100"/>
<path d="M462.459 124.941H453.648V122.167H462.459V124.941Z" fill="#FFD100"/>
<path d="M475.236 124.941H466.426V122.167H475.236V124.941Z" fill="#FFD100"/>
<path d="M528.197 124.941H519.387V122.167H528.197V124.941Z" fill="#F44944"/>
<path d="M540.467 137.598H531.656V134.823H540.467V137.598Z" fill="#FFD100"/>
<path d="M551.245 124.941H531.656V122.167H551.245V124.941Z" fill="#FFD100"/>
<path d="M514.885 124.941H481.445V122.167H514.885V124.941Z" fill="#F44944"/>
<path d="M470.833 131.27H453.648V128.495H470.833V131.27Z" fill="#FFD100"/>
<path d="M506.658 131.27H475.234V128.495H506.658V131.27Z" fill="#F44944"/>
<path d="M546.183 131.27H511.621V128.495H546.183V131.27Z" fill="#778065"/>
<path d="M490.012 137.598H453.648V134.823H490.012V137.598Z" fill="#F44944"/>
<path d="M527.881 137.598H494.488V134.823H527.881V137.598Z" fill="#F44944"/>
<path d="M495.173 143.928H483.441V141.153H495.173V143.928Z" fill="#F44944"/>
<path d="M546.184 143.928H500.184V141.153H546.184V143.928Z" fill="#FFD100"/>
<path d="M456.349 154.402H438.875V151.628H456.349V154.402Z" fill="#778065"/>
<path d="M516.127 154.402H463.215V151.628H516.127V154.402Z" fill="#778065"/>
<path d="M495.387 161.996H453.867V159.221H495.387V161.996Z" fill="#778065"/>
<path d="M546.403 161.996H500.406V159.221H546.403V161.996Z" fill="#778065"/>
<path d="M268.793 128.41H162.336V53.6273H268.793V128.41Z" fill="#F1F1F1"/>
<path d="M268.793 63.6582H162.336V54.9278H268.793V63.6582Z" fill="#FFD154"/>
<path d="M177.847 81.3047H169.742V78.3102H177.847V81.3047Z" fill="#FFD100"/>
<path d="M189.601 81.3047H181.496V78.3102H189.601V81.3047Z" fill="#FFD100"/>
<path d="M238.32 81.3047H230.215V78.3102H238.32V81.3047Z" fill="#F44944"/>
<path d="M249.604 94.9648H241.496V91.9703H249.604V94.9648Z" fill="#FFD100"/>
<path d="M259.52 81.3047H241.496V78.3102H259.52V81.3047Z" fill="#FFD100"/>
<path d="M226.071 81.3047H195.309V78.3102H226.071V81.3047Z" fill="#F44944"/>
<path d="M185.549 88.1328H169.742V85.1416H185.549V88.1328Z" fill="#FFD100"/>
<path d="M218.506 88.1328H189.602V85.1416H218.506V88.1328Z" fill="#F44944"/>
<path d="M254.866 88.1328H223.074V85.1416H254.866V88.1328Z" fill="#778065"/>
<path d="M203.191 94.9648H169.742V91.9703H203.191V94.9648Z" fill="#F44944"/>
<path d="M238.027 94.9648H207.309V91.9703H238.027V94.9648Z" fill="#F44944"/>
<path d="M207.936 101.793H197.145V98.7984H207.936V101.793Z" fill="#F44944"/>
<path d="M254.861 101.793H212.547V98.7984H254.861V101.793Z" fill="#FFD100"/>
<path d="M181.164 182.909V224.563H264.781L279.823 236.697V224.563V213.927V182.909H181.164Z" fill="#F44944"/>
<path d="M263.831 195.799H256.227V192.804H263.831V195.799Z" fill="white"/>
<path d="M220.284 195.799H188.902V192.804H220.284V195.799Z" fill="white"/>
<path d="M252.967 195.799H224.148V192.804H252.967V195.799Z" fill="white"/>
<path d="M224.738 202.627H214.613V199.632H224.738V202.627Z" fill="white"/>
<path d="M252.967 209.846H224.148V206.851H252.967V209.846Z" fill="white"/>
<path d="M199.027 215.18H188.902V212.185H199.027V215.18Z" fill="white"/>
<path d="M268.768 202.627H229.066V199.632H268.768V202.627Z" fill="white"/>
<path d="M146.614 184.824C146.412 184.824 146.211 184.748 146.057 184.594L132.098 170.634C131.79 170.328 131.79 169.828 132.098 169.522C132.405 169.212 132.905 169.212 133.212 169.522L147.171 183.479C147.479 183.788 147.479 184.288 147.171 184.594C147.018 184.748 146.816 184.824 146.614 184.824Z" fill="#CCC492"/>
<path d="M132.655 184.824C132.454 184.824 132.252 184.748 132.098 184.594C131.79 184.288 131.79 183.788 132.098 183.479L146.057 169.522C146.364 169.212 146.864 169.212 147.171 169.522C147.479 169.828 147.479 170.328 147.171 170.634L133.212 184.594C133.058 184.748 132.857 184.824 132.655 184.824Z" fill="#CCC492"/>
<path d="M235.879 16.8437C236.827 16.8437 237.613 16.9687 238.238 17.2187C238.874 17.4582 239.348 17.828 239.66 18.328C239.983 18.8176 240.145 19.4322 240.145 20.1718C240.145 20.651 240.072 21.0781 239.926 21.4531C239.78 21.8281 239.572 22.1562 239.301 22.4375C239.04 22.7187 238.728 22.9531 238.363 23.1406L241.41 28H238.223L236.004 23.8125H235.27V28H232.441V16.8437H235.879ZM235.832 18.9374H235.27V21.7343H235.801C236.092 21.7343 236.348 21.6874 236.566 21.5937C236.785 21.4895 236.957 21.3281 237.082 21.1093C237.217 20.8801 237.285 20.5989 237.285 20.2656C237.285 19.9635 237.233 19.7187 237.129 19.5312C237.035 19.3333 236.879 19.1874 236.66 19.0937C236.452 18.9895 236.176 18.9374 235.832 18.9374ZM248.594 28H242.375V16.8437H248.594V18.9999H245.203V21.1406H248.359V23.2968H245.203V25.8125H248.594V28ZM256.854 28L256.338 25.6094H252.932L252.4 28H249.291L252.713 16.7968H256.479L259.947 28H256.854ZM255.166 21.1406C255.114 20.9114 255.052 20.6614 254.979 20.3906C254.916 20.1093 254.854 19.8228 254.791 19.5312C254.729 19.2291 254.671 18.9374 254.619 18.6562C254.578 18.9374 254.525 19.2291 254.463 19.5312C254.4 19.8228 254.338 20.1093 254.275 20.3906C254.223 20.6614 254.166 20.9114 254.104 21.1406L253.51 23.3906H255.76L255.166 21.1406ZM265.511 18.8905C265.168 18.8905 264.855 18.9739 264.574 19.1405C264.293 19.2968 264.053 19.5312 263.855 19.8437C263.668 20.1562 263.527 20.5312 263.433 20.9687C263.339 21.4062 263.293 21.901 263.293 22.4531C263.293 23.2031 263.381 23.8385 263.558 24.3593C263.735 24.8802 263.996 25.276 264.339 25.5469C264.694 25.8177 265.141 25.9531 265.683 25.9531C266.131 25.9531 266.563 25.8958 266.98 25.7812C267.407 25.6562 267.839 25.5 268.277 25.3125V27.5625C267.819 27.7708 267.345 27.9219 266.855 28.0156C266.365 28.1094 265.85 28.1563 265.308 28.1563C264.162 28.1563 263.23 27.9219 262.511 27.4531C261.792 26.9739 261.261 26.3073 260.917 25.4531C260.574 24.5885 260.402 23.5833 260.402 22.4375C260.402 21.5937 260.511 20.8229 260.73 20.1249C260.949 19.4166 261.272 18.8072 261.699 18.2968C262.136 17.7864 262.668 17.3905 263.293 17.1093C263.928 16.828 264.657 16.6874 265.48 16.6874C265.99 16.6874 266.543 16.7603 267.136 16.9062C267.73 17.0416 268.256 17.2291 268.714 17.4687L267.855 19.5937C267.48 19.3958 267.105 19.2291 266.73 19.0937C266.355 18.9583 265.949 18.8905 265.511 18.8905ZM274.939 28H272.111V19.0468H269.548V16.8437H277.501V19.0468H274.939V28ZM277.626 26.8281C277.626 26.3177 277.777 25.9635 278.079 25.7656C278.381 25.5573 278.736 25.4531 279.142 25.4531C279.538 25.4531 279.881 25.5573 280.173 25.7656C280.465 25.9635 280.611 26.3177 280.611 26.8281C280.611 27.3073 280.465 27.6562 280.173 27.875C279.881 28.0938 279.538 28.2031 279.142 28.2031C278.736 28.2031 278.381 28.0938 278.079 27.875C277.777 27.6562 277.626 27.3073 277.626 26.8281ZM281.571 31.375C281.248 31.375 280.967 31.3594 280.727 31.3282C280.488 31.2969 280.279 31.2604 280.102 31.2188V29.0781C280.258 29.1094 280.425 29.1406 280.602 29.1719C280.769 29.2136 280.951 29.2344 281.149 29.2344C281.482 29.2344 281.743 29.1719 281.93 29.0469C282.118 28.9219 282.248 28.7135 282.321 28.4219C282.404 28.1302 282.446 27.7344 282.446 27.2344V16.8437H285.29V27.1094C285.29 28.1406 285.134 28.9688 284.821 29.5938C284.509 30.2292 284.071 30.6823 283.509 30.9532C282.956 31.2344 282.311 31.375 281.571 31.375ZM294.4 24.7656C294.4 25.401 294.259 25.9791 293.978 26.5C293.697 27.0104 293.249 27.4167 292.634 27.7187C292.03 28.0104 291.254 28.1563 290.306 28.1563C289.817 28.1563 289.39 28.1302 289.025 28.0781C288.671 28.026 288.338 27.9531 288.025 27.8594C287.723 27.7552 287.405 27.625 287.072 27.4687V25.0468C287.634 25.3073 288.202 25.526 288.775 25.7031C289.358 25.8802 289.89 25.9687 290.369 25.9687C290.65 25.9687 290.879 25.9271 291.056 25.8437C291.233 25.75 291.364 25.6302 291.447 25.4844C291.53 25.3281 291.572 25.151 291.572 24.9531C291.572 24.7135 291.509 24.5104 291.384 24.3437C291.27 24.1666 291.072 24 290.791 23.8437C290.509 23.677 290.14 23.5 289.681 23.3125C289.296 23.1458 288.947 22.9687 288.634 22.7812C288.322 22.5833 288.056 22.3593 287.838 22.1093C287.619 21.8489 287.447 21.5416 287.322 21.1874C287.207 20.8229 287.15 20.3958 287.15 19.9062C287.15 19.2083 287.317 18.6249 287.65 18.1562C287.983 17.677 288.442 17.3124 289.025 17.0624C289.619 16.8124 290.306 16.6874 291.088 16.6874C291.775 16.6874 292.39 16.7603 292.931 16.9062C293.483 17.052 293.978 17.2395 294.416 17.4687L293.541 19.5468C293.103 19.3281 292.666 19.1614 292.228 19.0468C291.791 18.9218 291.384 18.8593 291.009 18.8593C290.759 18.8593 290.556 18.901 290.4 18.9843C290.244 19.0572 290.129 19.1666 290.056 19.3124C289.983 19.4478 289.947 19.6093 289.947 19.7968C289.947 20.0156 290.009 20.2083 290.134 20.3749C290.27 20.5312 290.489 20.6926 290.791 20.8593C291.093 21.026 291.499 21.2395 292.009 21.4999C292.52 21.7395 292.952 22.0052 293.306 22.2968C293.671 22.5781 293.942 22.9166 294.119 23.3125C294.306 23.6979 294.4 24.1823 294.4 24.7656Z" fill="#CCC492"/>
<path d="M419.797 55.4805H416.094L412.25 47.3085H412.188C412.188 47.4544 412.193 47.6419 412.203 47.871C412.214 48.0898 412.229 48.3398 412.25 48.621C412.271 48.8919 412.286 49.1783 412.297 49.4804C412.307 49.7721 412.318 50.0533 412.328 50.3242V55.4805H409.813V44.3241H413.5L417.328 52.4023H417.375C417.375 52.2669 417.37 52.0898 417.359 51.8711C417.349 51.6419 417.333 51.3971 417.313 51.1367C417.302 50.8658 417.292 50.5898 417.281 50.3085C417.271 50.0273 417.266 49.7565 417.266 49.496V44.3241H419.797V55.4805ZM428.299 55.4805H422.081V44.3241H428.299V46.4804H424.909V48.621H428.065V50.7773H424.909V53.293H428.299V55.4805ZM439.559 55.4805H436.294L434.247 51.6054L432.216 55.4805H429.028L432.512 49.746L429.231 44.3241H432.372L434.278 48.0742L436.091 44.3241H439.309L435.997 49.9335L439.559 55.4805ZM445.352 55.4805H442.524V46.5273H439.961V44.3241H447.914V46.5273H445.352V55.4805ZM448.039 54.3086C448.039 53.7982 448.19 53.444 448.492 53.2461C448.794 53.0377 449.149 52.9336 449.555 52.9336C449.951 52.9336 450.295 53.0377 450.586 53.2461C450.878 53.444 451.024 53.7982 451.024 54.3086C451.024 54.7878 450.878 55.1367 450.586 55.3555C450.295 55.5742 449.951 55.6836 449.555 55.6836C449.149 55.6836 448.794 55.5742 448.492 55.3555C448.19 55.1367 448.039 54.7878 448.039 54.3086ZM451.984 58.8555C451.661 58.8555 451.38 58.8399 451.14 58.8086C450.901 58.7774 450.692 58.7409 450.515 58.6992V56.5586C450.672 56.5899 450.838 56.6211 451.015 56.6524C451.182 56.694 451.364 56.7149 451.562 56.7149C451.895 56.7149 452.156 56.6524 452.343 56.5274C452.531 56.4024 452.661 56.194 452.734 55.9023C452.817 55.6107 452.859 55.2148 452.859 54.7148V44.3241H455.703V54.5898C455.703 55.6211 455.547 56.4492 455.234 57.0742C454.922 57.7097 454.484 58.1628 453.922 58.4336C453.369 58.7149 452.724 58.8555 451.984 58.8555ZM464.813 52.2461C464.813 52.8815 464.672 53.4596 464.391 53.9805C464.11 54.4909 463.662 54.8971 463.047 55.1992C462.443 55.4909 461.667 55.6367 460.719 55.6367C460.23 55.6367 459.803 55.6107 459.438 55.5586C459.084 55.5065 458.751 55.4336 458.438 55.3398C458.136 55.2357 457.818 55.1055 457.485 54.9492V52.5273C458.047 52.7877 458.615 53.0065 459.188 53.1836C459.771 53.3607 460.303 53.4492 460.782 53.4492C461.063 53.4492 461.292 53.4075 461.469 53.3242C461.646 53.2304 461.777 53.1107 461.86 52.9648C461.943 52.8086 461.985 52.6315 461.985 52.4336C461.985 52.194 461.922 51.9909 461.797 51.8242C461.683 51.6471 461.485 51.4804 461.204 51.3242C460.922 51.1575 460.553 50.9804 460.094 50.7929C459.709 50.6263 459.36 50.4492 459.047 50.2617C458.735 50.0638 458.469 49.8398 458.251 49.5898C458.032 49.3294 457.86 49.0221 457.735 48.6679C457.62 48.3033 457.563 47.8762 457.563 47.3866C457.563 46.6887 457.73 46.1054 458.063 45.6366C458.396 45.1575 458.855 44.7929 459.438 44.5429C460.032 44.2929 460.719 44.1679 461.501 44.1679C462.188 44.1679 462.803 44.2408 463.344 44.3866C463.896 44.5325 464.391 44.72 464.829 44.9491L463.954 47.0273C463.516 46.8085 463.079 46.6419 462.641 46.5273C462.204 46.4023 461.797 46.3398 461.422 46.3398C461.172 46.3398 460.969 46.3814 460.813 46.4648C460.657 46.5377 460.542 46.6471 460.469 46.7929C460.396 46.9283 460.36 47.0898 460.36 47.2773C460.36 47.496 460.422 47.6887 460.547 47.8554C460.683 48.0117 460.902 48.1731 461.204 48.3398C461.506 48.5065 461.912 48.72 462.422 48.9804C462.933 49.22 463.365 49.4856 463.719 49.7773C464.084 50.0585 464.355 50.3971 464.532 50.7929C464.719 51.1783 464.813 51.6627 464.813 52.2461Z" fill="#778065"/>
<path d="M198.945 161.527C197.361 161.527 196.113 160.928 195.199 159.729L197.102 157.933C197.66 158.593 198.219 158.923 198.777 158.923C199.153 158.923 199.447 158.796 199.661 158.543C199.874 158.29 199.98 157.917 199.98 157.43V150.685H202.919V157.447C202.919 158.746 202.569 159.745 201.868 160.445C201.148 161.168 200.173 161.527 198.945 161.527Z" fill="#CCC492"/>
<path d="M207.901 159.715C208.327 159.715 208.675 159.592 208.944 159.349C209.213 159.106 209.348 158.776 209.348 158.36V157.98C208.992 157.837 208.611 157.767 208.205 157.767C207.779 157.767 207.452 157.857 207.223 158.04C206.995 158.223 206.881 158.473 206.881 158.786V158.816C206.881 159.089 206.974 159.309 207.163 159.472C207.35 159.632 207.597 159.715 207.901 159.715ZM206.865 161.527C206.053 161.527 205.391 161.301 204.878 160.848C204.366 160.398 204.109 159.775 204.109 158.982V158.953C204.109 158.11 204.398 157.467 204.977 157.027C205.556 156.584 206.342 156.364 207.337 156.364C208.109 156.364 208.769 156.471 209.317 156.684V156.548C209.317 155.645 208.769 155.192 207.673 155.192C206.931 155.192 206.17 155.345 205.388 155.648L204.795 153.623C205.83 153.197 206.942 152.983 208.129 152.983C209.55 152.983 210.596 153.32 211.266 153.989C211.855 154.569 212.149 155.442 212.149 156.608V161.344H209.302V160.475C208.632 161.178 207.819 161.527 206.865 161.527Z" fill="#CCC492"/>
<path d="M215.864 161.404L212.574 153.107H215.62L217.203 157.917L218.802 153.107H221.787L218.498 161.404H215.864Z" fill="#CCC492"/>
<path d="M225.655 159.715C226.081 159.715 226.429 159.592 226.698 159.349C226.967 159.106 227.102 158.776 227.102 158.36V157.98C226.746 157.837 226.365 157.767 225.959 157.767C225.533 157.767 225.206 157.857 224.977 158.04C224.749 158.223 224.635 158.473 224.635 158.786V158.816C224.635 159.089 224.728 159.309 224.916 159.472C225.104 159.632 225.35 159.715 225.655 159.715ZM224.619 161.527C223.807 161.527 223.145 161.301 222.632 160.848C222.119 160.398 221.863 159.775 221.863 158.982V158.953C221.863 158.11 222.152 157.467 222.731 157.027C223.31 156.584 224.096 156.364 225.091 156.364C225.863 156.364 226.523 156.471 227.071 156.684V156.548C227.071 155.645 226.523 155.192 225.426 155.192C224.685 155.192 223.924 155.345 223.142 155.648L222.548 153.623C223.584 153.197 224.696 152.983 225.883 152.983C227.304 152.983 228.35 153.32 229.02 153.989C229.608 154.569 229.903 155.442 229.903 156.608V161.344H227.056V160.475C226.386 161.178 225.573 161.527 224.619 161.527Z" fill="#CCC492"/>
<path d="M235.737 161.527C233.757 161.527 232.092 160.938 230.742 159.759L232.387 157.797C233.473 158.649 234.625 159.076 235.843 159.076C236.666 159.076 237.077 158.833 237.077 158.343V158.313C237.077 158.08 236.955 157.893 236.711 157.757C236.468 157.62 235.985 157.46 235.265 157.277C234.615 157.127 234.082 156.977 233.666 156.837C233.249 156.694 232.838 156.498 232.432 156.251C232.026 156.001 231.727 155.688 231.534 155.305C231.341 154.925 231.245 154.472 231.245 153.943V153.913C231.245 152.897 231.618 152.077 232.364 151.445C233.11 150.815 234.112 150.502 235.371 150.502C237.117 150.502 238.579 150.975 239.757 151.918L238.28 154.003C237.325 153.303 236.33 152.953 235.295 152.953C234.584 152.953 234.229 153.183 234.229 153.64V153.67C234.229 153.913 234.356 154.109 234.61 154.256C234.864 154.402 235.356 154.552 236.087 154.706C237.417 154.999 238.409 155.392 239.064 155.885C239.72 156.378 240.047 157.09 240.047 158.023V158.056C240.047 159.132 239.654 159.978 238.874 160.598C238.092 161.218 237.046 161.527 235.737 161.527Z" fill="#CCC492"/>
<path d="M245.299 161.541C244.069 161.541 243.043 161.125 242.224 160.285C241.401 159.449 240.988 158.44 240.988 157.264V157.234C240.988 156.045 241.401 155.032 242.231 154.196C243.057 153.357 244.109 152.937 245.388 152.937C246.944 152.937 248.116 153.547 248.906 154.766L246.957 156.228C246.511 155.649 245.998 155.359 245.422 155.359C244.952 155.359 244.566 155.539 244.256 155.892C243.946 156.248 243.79 156.685 243.79 157.201V157.234C243.79 157.76 243.946 158.207 244.256 158.567C244.566 158.926 244.959 159.106 245.435 159.106C246.025 159.106 246.551 158.823 247.021 158.253L248.953 159.656C248.1 160.911 246.881 161.541 245.299 161.541Z" fill="#CCC492"/>
<path d="M249.973 161.344V153.106H252.867V154.765C253.394 153.516 254.263 152.916 255.472 152.97V156.014H255.226C253.653 156.014 252.867 156.934 252.867 158.769V161.344H249.973Z" fill="#CCC492"/>
<path d="M256.567 161.344V153.106H259.445V161.344H256.567ZM256.504 152.36V150.228H259.505V152.36H256.504Z" fill="#CCC492"/>
<path d="M265.598 159.106C266.064 159.106 266.46 158.929 266.79 158.58C267.12 158.23 267.286 157.78 267.286 157.234V157.201C267.286 156.664 267.12 156.218 266.79 155.862C266.46 155.509 266.064 155.329 265.598 155.329C265.118 155.329 264.718 155.509 264.392 155.862C264.069 156.218 263.906 156.664 263.906 157.201V157.234C263.906 157.77 264.069 158.217 264.392 158.573C264.718 158.929 265.118 159.106 265.598 159.106ZM261.074 163.779V153.107H263.965V154.203C264.668 153.35 265.501 152.924 266.464 152.924C267.48 152.924 268.342 153.313 269.052 154.096C269.765 154.879 270.118 155.908 270.118 157.187V157.217C270.118 158.516 269.765 159.559 269.058 160.345C268.356 161.135 267.493 161.528 266.48 161.528C265.494 161.528 264.658 161.131 263.965 160.338V163.779H261.074Z" fill="#CCC492"/>
<path d="M274.563 161.512C273.66 161.512 272.974 161.295 272.507 160.866C272.041 160.432 271.808 159.74 271.808 158.787V155.423H270.832V153.108H271.808V151.019H274.686V153.108H276.605V155.423H274.686V158.224C274.686 158.77 274.949 159.047 275.475 159.047C275.822 159.047 276.188 158.954 276.575 158.77V161.025C275.975 161.348 275.305 161.512 274.563 161.512Z" fill="#CCC492"/>
<path d="M503.469 228.74C503.125 228.74 502.813 228.823 502.531 228.99C502.25 229.146 502.01 229.381 501.813 229.693C501.625 230.006 501.484 230.381 501.391 230.818C501.297 231.256 501.25 231.751 501.25 232.303C501.25 233.053 501.339 233.688 501.516 234.209C501.693 234.73 501.953 235.126 502.297 235.396C502.651 235.667 503.099 235.803 503.641 235.803C504.089 235.803 504.521 235.745 504.938 235.631C505.365 235.506 505.797 235.35 506.234 235.162V237.412C505.776 237.62 505.302 237.771 504.813 237.865C504.323 237.959 503.807 238.006 503.266 238.006C502.12 238.006 501.188 237.771 500.469 237.303C499.75 236.824 499.219 236.157 498.875 235.303C498.531 234.438 498.359 233.433 498.359 232.287C498.359 231.443 498.469 230.672 498.688 229.975C498.906 229.266 499.229 228.657 499.656 228.146C500.094 227.636 500.625 227.24 501.25 226.959C501.885 226.678 502.615 226.537 503.438 226.537C503.948 226.537 504.5 226.61 505.094 226.756C505.688 226.891 506.214 227.079 506.672 227.318L505.813 229.443C505.438 229.245 505.063 229.079 504.688 228.943C504.313 228.808 503.906 228.74 503.469 228.74ZM515.115 234.615C515.115 235.251 514.974 235.829 514.693 236.35C514.412 236.86 513.964 237.266 513.349 237.568C512.745 237.86 511.969 238.006 511.021 238.006C510.532 238.006 510.105 237.98 509.74 237.928C509.386 237.876 509.052 237.803 508.74 237.709C508.438 237.605 508.12 237.475 507.787 237.318V234.896C508.349 235.157 508.917 235.376 509.49 235.553C510.073 235.73 510.605 235.818 511.084 235.818C511.365 235.818 511.594 235.777 511.771 235.693C511.948 235.6 512.079 235.48 512.162 235.334C512.245 235.178 512.287 235.001 512.287 234.803C512.287 234.563 512.224 234.36 512.099 234.193C511.985 234.016 511.787 233.85 511.506 233.693C511.224 233.527 510.855 233.35 510.396 233.162C510.011 232.995 509.662 232.818 509.349 232.631C509.037 232.433 508.771 232.209 508.552 231.959C508.334 231.699 508.162 231.391 508.037 231.037C507.922 230.672 507.865 230.245 507.865 229.756C507.865 229.058 508.032 228.475 508.365 228.006C508.698 227.527 509.157 227.162 509.74 226.912C510.334 226.662 511.021 226.537 511.802 226.537C512.49 226.537 513.105 226.61 513.646 226.756C514.198 226.902 514.693 227.089 515.131 227.318L514.256 229.396C513.818 229.178 513.381 229.011 512.943 228.896C512.506 228.771 512.099 228.709 511.724 228.709C511.474 228.709 511.271 228.751 511.115 228.834C510.959 228.907 510.844 229.016 510.771 229.162C510.698 229.297 510.662 229.459 510.662 229.646C510.662 229.865 510.724 230.058 510.849 230.225C510.985 230.381 511.204 230.542 511.506 230.709C511.808 230.876 512.214 231.089 512.724 231.35C513.235 231.589 513.667 231.855 514.021 232.146C514.386 232.428 514.657 232.766 514.834 233.162C515.021 233.547 515.115 234.032 515.115 234.615ZM523.568 234.615C523.568 235.251 523.428 235.829 523.147 236.35C522.865 236.86 522.417 237.266 521.803 237.568C521.199 237.86 520.423 238.006 519.475 238.006C518.985 238.006 518.558 237.98 518.193 237.928C517.839 237.876 517.506 237.803 517.193 237.709C516.891 237.605 516.574 237.475 516.24 237.318V234.896C516.803 235.157 517.37 235.376 517.943 235.553C518.527 235.73 519.058 235.818 519.537 235.818C519.818 235.818 520.048 235.777 520.225 235.693C520.402 235.6 520.532 235.48 520.615 235.334C520.699 235.178 520.74 235.001 520.74 234.803C520.74 234.563 520.678 234.36 520.553 234.193C520.438 234.016 520.24 233.85 519.959 233.693C519.678 233.527 519.308 233.35 518.85 233.162C518.464 232.995 518.115 232.818 517.803 232.631C517.49 232.433 517.225 232.209 517.006 231.959C516.787 231.699 516.615 231.391 516.49 231.037C516.376 230.672 516.318 230.245 516.318 229.756C516.318 229.058 516.485 228.475 516.818 228.006C517.152 227.527 517.61 227.162 518.193 226.912C518.787 226.662 519.475 226.537 520.256 226.537C520.943 226.537 521.558 226.61 522.1 226.756C522.652 226.902 523.147 227.089 523.584 227.318L522.709 229.396C522.272 229.178 521.834 229.011 521.397 228.896C520.959 228.771 520.553 228.709 520.178 228.709C519.928 228.709 519.725 228.751 519.568 228.834C519.412 228.907 519.298 229.016 519.225 229.162C519.152 229.297 519.115 229.459 519.115 229.646C519.115 229.865 519.178 230.058 519.303 230.225C519.438 230.381 519.657 230.542 519.959 230.709C520.261 230.876 520.667 231.089 521.178 231.35C521.688 231.589 522.121 231.855 522.475 232.146C522.839 232.428 523.11 232.766 523.287 233.162C523.475 233.547 523.568 234.032 523.568 234.615Z" fill="#CCC492"/>
<path d="M421.297 211.369H418.453V206.682H415.156V211.369H412.313V200.213H415.156V204.478H418.453V200.213H421.297V211.369ZM428.183 211.369H425.355V202.416H422.792V200.213H430.746V202.416H428.183V211.369ZM436.865 211.369L434.678 202.885H434.615C434.636 203.093 434.657 203.39 434.678 203.775C434.699 204.161 434.719 204.577 434.74 205.025C434.761 205.473 434.772 205.89 434.772 206.275V211.369H432.256V200.213H436.209L438.209 207.978H438.256L440.24 200.213H444.194V211.369H441.584V206.197C441.584 205.843 441.589 205.452 441.6 205.025C441.61 204.588 441.626 204.176 441.647 203.791C441.667 203.406 441.683 203.109 441.694 202.9H441.647L439.49 211.369H436.865ZM446.477 211.369V200.213H449.305V209.197H453.337V211.369H446.477Z" fill="#CCC492"/>
</svg>
