<svg width="496" height="496" viewBox="0 0 496 496" fill="none" xmlns="http://www.w3.org/2000/svg">
<rect width="496" height="496" fill="white"/>
<g clip-path="url(#clip0_5808_45703)">
<path d="M412.897 213.622H246.808C245.372 213.622 244.208 212.457 244.208 211.019V106.776C244.208 105.339 245.372 104.176 246.808 104.176H412.897C414.332 104.176 415.497 105.339 415.497 106.776V211.019C415.497 212.457 414.332 213.622 412.897 213.622Z" fill="white"/>
<path d="M253.365 104.554C248.525 104.554 244.59 108.49 244.59 113.329V204.458C244.59 209.298 248.525 213.233 253.365 213.233H406.337C411.177 213.233 415.114 209.298 415.114 204.458V113.329C415.114 108.49 411.177 104.554 406.337 104.554H253.365ZM406.337 214H253.365C248.104 214 243.822 209.719 243.822 204.458V113.329C243.822 108.068 248.104 103.789 253.365 103.789H406.337C411.598 103.789 415.879 108.068 415.879 113.329V204.458C415.879 209.719 411.598 214 406.337 214Z" fill="#5E5154"/>
<path d="M301.57 121.914H258.142V124.952H301.57V121.914Z" fill="#F4D9CA"/>
<path d="M321.868 121.914V124.952H365.985V121.914H321.868Z" fill="#F4D9CA"/>
<path d="M297.748 132.922H258.142V135.959H297.748V132.922Z" fill="#F4D9CA"/>
<path d="M318.041 132.922V135.959H343.924V132.922H318.041Z" fill="#F4D9CA"/>
<path d="M269.217 143.926H258.142V146.963H269.217V143.926Z" fill="#F4D9CA"/>
<path d="M320.1 143.926H293.041V146.963H320.1V143.926Z" fill="#F4D9CA"/>
<path d="M365.983 143.926H331.867V146.963H365.983V143.926Z" fill="#F4D9CA"/>
<path d="M269.217 154.93H258.142V157.967H269.217V154.93Z" fill="#F4D9CA"/>
<path d="M358.926 154.93H331.867V155.077H320.1V154.93H293.041V157.967H358.926V154.93Z" fill="#F4D9CA"/>
<path d="M366.279 154.93V157.967H402.046V154.93H366.279Z" fill="#F4D9CA"/>
<path d="M314.513 165.938H293.041V168.975H314.513V165.938Z" fill="#F4D9CA"/>
<path d="M340.985 165.938H327.749V168.975H340.985V165.938Z" fill="#F4D9CA"/>
<path d="M368.043 165.938H351.572V168.975H368.043V165.938Z" fill="#F4D9CA"/>
<path d="M269.217 165.938H258.142V168.975H269.217V165.938Z" fill="#F4D9CA"/>
<path d="M269.217 176.945H258.142V179.983H269.217V176.945Z" fill="#F4D9CA"/>
<path d="M353.63 176.945H293.041V179.983H353.63V176.945Z" fill="#F4D9CA"/>
<path d="M361.868 176.945V179.983H402.048V176.945H361.868Z" fill="#F4D9CA"/>
<path d="M269.217 187.949H258.142V190.986H269.217V187.949Z" fill="#F4D9CA"/>
<path d="M313.041 187.949H293.041V190.986H313.041V187.949Z" fill="#F4D9CA"/>
<path d="M350.394 187.949H327.453V190.986H350.394V187.949Z" fill="#F4D9CA"/>
<path d="M363.925 187.949V190.986H402.047V187.949H363.925Z" fill="#F4D9CA"/>
<path d="M269.217 198.953H258.142V201.991H269.217V198.953Z" fill="#F4D9CA"/>
<path d="M317.455 198.953H293.041V201.991H317.455V198.953Z" fill="#F4D9CA"/>
<path d="M327.453 198.953V201.991H357.454V198.953H327.453Z" fill="#F4D9CA"/>
<path d="M202.827 328.552V373.363C202.827 379.044 198.218 383.653 192.537 383.653H63.2873C57.6065 383.653 52.9976 379.044 52.9976 373.363V328.552C52.9976 322.87 57.6065 318.262 63.2873 318.262H192.537C198.218 318.262 202.827 322.87 202.827 328.552Z" fill="#F7F7F7"/>
<path d="M202.826 328.555V373.367C202.826 379.047 198.217 383.657 192.536 383.657H63.2869C58.5249 383.657 54.513 380.417 53.3418 376.024C54.9648 377.104 56.9172 377.73 59.015 377.73H188.266C193.945 377.73 198.554 373.121 198.554 367.44V322.629C198.554 321.711 198.433 320.83 198.211 319.98C200.989 321.818 202.826 324.972 202.826 328.555Z" fill="#E1E4E9"/>
<path d="M63.2866 318.645C57.8241 318.645 53.38 323.088 53.38 328.552V373.363C53.38 378.826 57.8241 383.271 63.2866 383.271H192.538C197.999 383.271 202.443 378.826 202.443 373.363V328.552C202.443 323.088 197.999 318.645 192.538 318.645H63.2866ZM192.538 384.036H63.2866C57.4017 384.036 52.6143 379.248 52.6143 373.363V328.552C52.6143 322.666 57.4017 317.879 63.2866 317.879H192.538C198.421 317.879 203.211 322.666 203.211 328.552V373.363C203.211 379.248 198.421 384.036 192.538 384.036Z" fill="#231F20"/>
<path d="M97.8145 351.378L117.339 341.32V344.225L100.886 352.472V352.557L117.339 360.803V363.708L97.8145 353.65V351.378Z" fill="#276BBD"/>
<path d="M120.075 365.394L131.815 334.887H134.678L122.896 365.394H120.075Z" fill="#276BBD"/>
<path d="M156.855 353.692L137.332 363.708V360.803L153.909 352.557V352.472L137.332 344.225V341.32L156.855 351.335V353.692Z" fill="#276BBD"/>
<path d="M266.801 191.135H245.112V188.074H266.801V191.135Z" fill="#E7E9F3"/>
<path d="M335.713 425.74L314.034 417.1L307.962 412.883L286.142 418.82L288.193 436.235C288.114 437.166 288.897 437.922 289.806 437.816L337.358 432.261C338.156 432.167 338.728 431.445 338.637 430.645L338.435 428.919C338.256 427.4 337.189 426.152 335.713 425.74Z" fill="#231F20"/>
<path d="M307.961 412.882L303.563 392.836L282.604 405.198L286.142 418.819C295.597 421.567 303.591 419.308 307.961 412.882Z" fill="#F5CEC9"/>
<path d="M316.054 423.773L315.344 423.493C316.622 420.249 319.57 419.597 319.696 419.57L319.853 420.318C319.746 420.342 317.179 420.925 316.054 423.773Z" fill="white"/>
<path d="M320.791 425.73L320.08 425.449C321.359 422.205 324.307 421.554 324.433 421.527L324.589 422.277C324.481 422.299 321.915 422.882 320.791 425.73Z" fill="white"/>
<path d="M211.645 269.375C211.645 269.375 243.877 272.434 256.463 283.157C269.051 293.88 309.777 397.393 309.777 397.393L278.398 410.394L221.781 307.783L211.645 269.375Z" fill="#1C2121"/>
<path d="M251.544 431.746L232.705 417.978L227.876 412.379L205.263 412.692L202.909 430.07C202.6 430.951 203.172 431.877 204.078 432.001L251.514 438.473C252.311 438.582 253.044 438.023 253.155 437.225L253.39 435.505C253.596 433.988 252.872 432.511 251.544 431.746Z" fill="#231F20"/>
<path d="M227.876 412.381L230.661 392.375L207.248 398.041L205.263 412.694C213.736 417.712 222.041 417.517 227.876 412.381Z" fill="#F5CEC9"/>
<path d="M233.002 424.943L232.382 424.495C234.428 421.671 237.445 421.771 237.574 421.78L237.542 422.545C237.43 422.538 234.797 422.465 233.002 424.943Z" fill="white"/>
<path d="M237.096 428.022L236.476 427.572C238.524 424.75 241.538 424.846 241.67 424.859L241.635 425.624C241.534 425.611 238.894 425.544 237.096 428.022Z" fill="white"/>
<path d="M121.265 263.925C139.395 261.401 150.627 261.26 164.183 269.043C185.861 265.312 240.89 269.374 245.51 283.779C251.109 301.236 237.82 411.056 237.82 411.056L200.882 401.585L202.328 318.266L149.416 317.613C130.848 316.85 116.637 300.805 118.118 282.281L121.265 263.925Z" fill="#1C2121"/>
<path d="M245.068 343.085L244.312 342.965C248.512 316.354 247.47 291.147 245.146 283.897L245.875 283.664C248.592 292.137 248.929 318.624 245.068 343.085Z" fill="white"/>
<path d="M251.005 208.905C251.005 208.905 209.786 247.705 200.235 245.728C191.169 243.863 176.452 211.997 176.452 211.997L200.285 208.422L207.035 218.023L241.809 195.164L251.005 208.905Z" fill="#F5CEC9"/>
<path d="M209.698 207.612L200.878 214.502L195.517 218.184L193.584 219.509L188.412 223.053L186.827 224.139L173.173 190.999L173.195 179.083C173.195 179.083 182.909 178.685 190.651 185.405C196.302 190.304 209.698 207.612 209.698 207.612Z" fill="#FA8F45"/>
<path d="M195.517 218.183L193.584 219.508L188.412 223.052L185.786 202.258L195.517 218.183Z" fill="#D95B05"/>
<path d="M182.029 182.325C176.148 174.248 138.898 181.736 127.4 190.3C113.445 200.695 114.683 277.939 114.683 277.939C142.534 277.943 161.018 279.912 184.486 266.293C184.486 266.293 194.546 199.514 182.029 182.325Z" fill="#F97316"/>
<path d="M183.251 127.205C183.251 127.205 183.536 138.825 176.196 141.241C168.856 143.656 166.187 136.636 166.187 136.636L168.876 127.47L175.627 126.848" fill="#231F20"/>
<path d="M145.428 176.518L150.709 185.356L163.601 185.521L170.78 186.489L167.736 175.568L167.661 172.794L167.471 165.458L144.641 153.551C144.808 154.501 144.954 155.445 145.08 156.373C146.604 167.428 145.428 176.518 145.428 176.518Z" fill="#F5CEC9"/>
<path d="M144.641 153.551C144.808 154.501 144.954 155.445 145.08 156.373C145.219 156.384 145.352 156.388 145.482 156.384C145.773 156.936 146.004 157.581 146.176 158.306C149.963 167.876 160.123 173.357 167.661 172.794L167.471 165.458L144.641 153.551Z" fill="#F19B91"/>
<path d="M145.428 176.52C148.104 181.522 156.659 183.72 163.602 185.52C163.602 185.52 162.68 197.602 160.649 197.748C158.779 197.88 141.254 193.289 140.632 184.007C143.132 181.851 143.612 179.422 145.428 176.52Z" fill="#D95B05"/>
<path d="M163.603 185.52C163.603 185.52 168.266 194.21 170.986 194.714C174.08 195.29 175.669 186.613 174.821 182.178L167.738 175.566C168.584 178.601 169.917 181.241 163.603 185.52Z" fill="#D95B05"/>
<path d="M166.623 170.082C159.026 171.126 148.247 165.597 144.316 155.672C144.146 154.953 143.92 154.305 143.627 153.753C141.82 153.774 139.787 152.84 138.224 151.111C135.748 148.367 135.384 144.63 137.441 142.797C138.611 141.74 140.276 141.517 141.983 142.056C142.224 131.264 147.418 122.552 155.043 121.319C160.133 120.497 165.231 123.165 169.147 128.037C169.621 128.622 170.079 129.242 170.512 129.894C173.006 133.599 174.867 138.284 175.695 143.51C177.926 157.227 174.608 168.98 166.623 170.082Z" fill="#F5CEC9"/>
<path d="M129.395 156.735C130.884 159.572 133.823 161.461 136.938 162.251C140.267 163.077 143.278 164.757 146.397 163.327L146.006 162.801C145.815 160.179 144.815 157.732 144.306 155.672C144.147 154.954 143.919 154.304 143.625 153.752C141.821 153.774 139.784 152.836 138.222 151.114C135.75 148.36 135.388 144.627 137.438 142.792C138.609 141.733 140.277 141.514 141.975 142.055C141.975 142.055 145.856 143.671 145.915 147.06L148.539 147.801L149.42 141.594C149.42 141.594 153.468 138.289 151.289 134.985C151.289 134.985 183.656 141.783 183.275 127.801C182.893 113.819 168.672 119.264 168.672 119.264C168.672 119.264 169.807 117.167 170.552 114.587C172.055 109.473 172.063 102.455 158.792 106.158C143.553 110.413 139.191 122.89 137.974 128.558C135.952 128.138 133.475 128.971 132.081 130.445C130.252 132.395 130.218 135.761 132.013 137.737C130.893 136.428 128.71 136.446 127.343 137.487C125.986 138.529 125.362 140.326 125.335 142.042C125.28 145.181 127.078 148.284 129.815 149.806C127.555 152.082 127.915 153.897 129.395 156.735Z" fill="#231F20"/>
<path d="M169.841 145.957L172.803 154.345L168.596 155.241L169.841 145.957Z" fill="#F19B91"/>
<path d="M145.936 213.828L142.253 243.634L171.856 247.993L131.691 254.989C131.691 254.989 129.034 249.91 128.734 249.519C128.435 249.13 135.468 224.021 135.468 224.021L145.936 213.828Z" fill="#D95B05"/>
<path d="M171.858 247.997L172.769 263.221C172.769 263.221 119.543 273.054 111.888 263.554C104.161 253.968 116.324 218.027 116.324 218.027L139.694 222.615L133.783 248.119L171.858 247.997Z" fill="#F5CEC9"/>
<path d="M133.634 186.975C116.859 190.46 109.997 228.455 109.997 228.455C119.419 235.008 132.889 236.219 142.256 232.916C142.256 232.916 146.206 215.506 147.404 202.796C148.446 191.732 138.141 186.037 133.634 186.975Z" fill="#FA8F45"/>
<path d="M194.034 250.169C194.408 252.013 191.924 252.761 190.072 252.841C192.292 253.047 196.036 254.722 195.944 255.681C195.699 258.233 190.466 256.809 188.926 256.537C190.414 256.842 194.599 258.887 194.305 259.729C193.766 261.287 189.344 260.374 187.357 260.109C189.089 260.39 191.261 262.801 190.755 263.388C188.909 265.514 170.34 263.151 170.101 262.653C167.463 262.472 168.446 248.195 171.083 248.376C171.083 248.376 181.776 242.918 184.472 244.714C187.17 246.512 180.321 249.299 180.321 249.299C180.321 249.299 193.544 247.743 194.034 250.169Z" fill="#F5CEC9"/>
<path d="M240.146 198.633C240.146 198.633 246.542 182.947 249.61 182.429C251.973 182.031 251.517 189.136 251.517 189.136C251.517 189.136 268.838 174.194 270.645 176.316C272.451 178.438 262.287 185.978 262.287 185.978C262.287 185.978 264.837 185.003 265.45 186.771C266.048 188.489 264.479 189.364 264.479 189.364C264.479 189.364 266.194 188.651 267.153 189.871C268.12 191.106 266.459 192.737 266.459 192.737C266.459 192.737 268.331 192.921 268.029 194.911C267.614 197.654 255.578 206.597 253.819 207.551C252.06 208.506 250.214 209.486 250.214 209.486L240.146 198.633Z" fill="#F5CEC9"/>
<path d="M256.732 195.152C256.688 195.152 256.645 195.15 256.606 195.146C256.303 195.114 256.062 194.977 255.903 194.746C255.577 194.272 255.468 193.722 255.584 193.117C256.016 190.839 259.593 188.41 259.745 188.309L260.173 188.945C260.139 188.967 256.708 191.295 256.336 193.261C256.26 193.664 256.325 194.007 256.536 194.314C256.549 194.333 256.578 194.372 256.686 194.385C257.941 194.55 262.028 191.17 264.311 189.026L264.834 189.582C264.217 190.163 258.843 195.152 256.732 195.152Z" fill="#F3B1A5"/>
<path d="M258.931 198.252C258.864 198.252 258.799 198.25 258.736 198.241C258.249 198.189 257.861 197.932 257.616 197.506C256.651 195.83 258.864 193.582 258.959 193.486L259.501 194.027C258.97 194.558 257.72 196.154 258.279 197.124C258.405 197.341 258.577 197.454 258.82 197.48C260.581 197.702 264.66 193.734 266.079 192.199L266.641 192.719C266.106 193.297 261.455 198.252 258.931 198.252Z" fill="#F3B1A5"/>
<path d="M259.743 201.216C259.575 201.216 259.419 201.201 259.275 201.166C258.914 201.077 258.634 200.875 258.466 200.577C258.188 200.082 258.121 199.564 258.271 199.04C258.614 197.834 260.019 197.044 260.078 197.012L260.449 197.681C260.436 197.688 259.26 198.351 259.006 199.253C258.914 199.575 258.956 199.886 259.134 200.203C259.175 200.273 259.251 200.373 259.458 200.423C260.745 200.738 264.052 198.805 265.219 198.038L265.641 198.675C265.219 198.955 261.728 201.216 259.743 201.216Z" fill="#F3B1A5"/>
<path d="M248.491 196.973L248.181 196.273C251.701 194.709 251.142 189.233 251.136 189.176L251.896 189.094C251.924 189.342 252.524 195.179 248.491 196.973Z" fill="#F3B1A5"/>
<path d="M209.844 276.524L209.851 276.531L164.996 275.983C162.763 275.959 160.974 274.124 160.998 271.882C161.011 270.819 161.433 269.865 162.102 269.152C162.787 268.432 163.718 267.962 164.777 267.886L189.179 266.273L214.138 264.625L209.844 276.524Z" fill="white"/>
<path d="M213.581 265.042L164.803 268.267C163.883 268.332 163.019 268.739 162.378 269.413C161.746 270.086 161.391 270.965 161.381 271.884C161.369 272.865 161.741 273.793 162.424 274.493C163.107 275.196 164.022 275.587 165 275.596L209.572 276.144L213.581 265.042ZM209.851 276.911H209.846L164.991 276.363C163.809 276.35 162.703 275.876 161.876 275.028C161.05 274.182 160.602 273.061 160.615 271.876C160.628 270.765 161.056 269.704 161.824 268.886C162.598 268.073 163.637 267.582 164.75 267.504L214.114 264.24C214.258 264.227 214.366 264.29 214.444 264.392C214.523 264.494 214.543 264.631 214.499 264.753L210.231 276.578C210.224 276.617 210.214 276.657 210.196 276.696C210.131 276.826 209.998 276.911 209.851 276.911Z" fill="#231F20"/>
<path d="M215.984 264.637L211.69 276.534L189.32 276.262L191.023 266.283L215.984 264.637Z" fill="#231F20"/>
<path d="M249.296 277.003L192.175 276.31L200.343 228.55C200.793 225.915 203.096 223.995 205.77 224.028L257.64 224.658C260.984 224.698 263.5 227.718 262.935 231.013L256.032 271.392C255.471 274.663 252.614 277.044 249.296 277.003Z" fill="white"/>
<path d="M192.627 275.933L249.298 276.62C249.326 276.62 249.352 276.62 249.378 276.62C252.496 276.62 255.127 274.406 255.653 271.326L262.558 230.95C262.808 229.489 262.406 227.997 261.458 226.86C260.51 225.721 259.116 225.058 257.633 225.04L205.765 224.41C205.743 224.41 205.724 224.41 205.702 224.41C203.228 224.41 201.139 226.169 200.719 228.615L192.627 275.933ZM249.381 277.385C249.35 277.385 249.319 277.385 249.289 277.385L192.17 276.693C192.057 276.691 191.953 276.641 191.881 276.555C191.809 276.47 191.779 276.356 191.796 276.246L199.964 228.486C200.447 225.671 202.854 223.645 205.702 223.645C205.726 223.645 205.75 223.645 205.774 223.645L257.644 224.275C259.349 224.295 260.953 225.058 262.047 226.369C263.138 227.68 263.599 229.395 263.313 231.078L256.408 271.454C255.818 274.905 252.87 277.385 249.381 277.385Z" fill="#231F20"/>
<path d="M206.442 224.032C205.003 224.858 203.95 226.289 203.65 228.015L195.387 276.346L192.175 276.31L200.343 228.556C200.793 225.917 203.098 223.998 205.77 224.028L206.442 224.032Z" fill="#231F20"/>
<path d="M236.449 250.62C236.406 254.237 233.438 257.133 229.827 257.09C227.857 257.066 226.102 256.172 224.929 254.781C225.501 254.928 226.098 255.005 226.716 255.013C231.062 255.065 234.634 251.585 234.686 247.232C234.692 246.813 234.664 246.391 234.606 245.988C235.764 247.188 236.471 248.821 236.449 250.62Z" fill="#C5D0E4"/>
<path d="M242.317 408.439C241.98 410.142 240.986 411.579 239.726 412.468C238.571 413.279 237.166 413.646 235.814 413.374C223.928 410.968 212.107 408.404 200.346 405.687C197.912 405.124 196.201 402.748 196.458 399.939C196.636 397.993 197.639 396.362 198.989 395.412C200.109 394.621 201.491 394.29 202.837 394.599C214.684 397.338 226.592 399.919 238.56 402.348C241.152 402.871 242.897 405.524 242.317 408.439Z" fill="#2F3D3E"/>
<path d="M240.87 395.414L215.381 397.338L239.566 402.489L240.87 395.414Z" fill="#231F20"/>
<path d="M314.579 393.729C315.174 395.359 315.072 397.103 314.454 398.518C313.889 399.812 312.88 400.856 311.582 401.323C300.175 405.438 288.741 409.387 277.279 413.172C274.907 413.954 272.211 412.811 270.972 410.278C270.115 408.521 270.124 406.608 270.783 405.095C271.33 403.838 272.339 402.836 273.652 402.403C285.197 398.59 296.714 394.613 308.204 390.474C310.689 389.576 313.559 390.937 314.579 393.729Z" fill="#2F3D3E"/>
<path d="M303.438 380.988L284.614 398.731L307.266 390.811L303.438 380.988Z" fill="#231F20"/>
<path d="M289.28 77.651L283.783 102.514C282.875 106.63 278.798 109.23 274.683 108.319L261.683 105.447C261.007 105.297 260.301 105.478 259.777 105.928L255.722 109.43C255.085 109.985 254.092 109.765 253.746 108.993L251.545 104.11C251.261 103.48 250.695 103.019 250.019 102.869L237.02 99.9945C232.905 99.0858 230.304 95.0114 231.213 90.8958L236.709 66.0302C237.62 61.9102 241.695 59.31 245.815 60.2209L283.468 68.5435C287.59 69.4545 290.188 73.5288 289.28 77.651Z" fill="white"/>
<path d="M244.152 60.4224C242.784 60.4224 241.443 60.8115 240.264 61.5638C238.632 62.6052 237.501 64.2228 237.084 66.1143L231.587 90.9799C231.17 92.8692 231.514 94.8107 232.555 96.4435C233.597 98.0762 235.212 99.2046 237.104 99.622L250.102 102.496C250.892 102.67 251.561 103.216 251.894 103.953L254.096 108.838C254.209 109.095 254.434 109.275 254.707 109.336C254.979 109.397 255.259 109.327 255.472 109.143L259.527 105.64C260.138 105.112 260.976 104.899 261.767 105.075L274.766 107.947C278.673 108.808 282.547 106.338 283.411 102.433L288.907 77.5698C289.77 73.6629 287.293 69.782 283.386 68.9189L245.732 60.5963C245.206 60.4811 244.676 60.4224 244.152 60.4224ZM254.903 110.123C254.784 110.123 254.662 110.11 254.542 110.084C254.029 109.971 253.612 109.632 253.399 109.153L251.196 104.268C250.964 103.749 250.492 103.366 249.935 103.244L236.938 100.37C234.847 99.909 233.062 98.6611 231.909 96.8544C230.759 95.0499 230.379 92.904 230.84 90.8146L236.336 65.9512C236.799 63.8575 238.047 62.0704 239.854 60.9181C241.658 59.7658 243.804 59.3854 245.898 59.8484L283.552 68.171C287.872 69.1276 290.607 73.415 289.654 77.7329L284.158 102.598C283.695 104.69 282.447 106.475 280.642 107.625C278.836 108.775 276.692 109.158 274.601 108.695L261.602 105.823C261.049 105.699 260.458 105.849 260.027 106.221L255.972 109.723C255.668 109.984 255.292 110.123 254.903 110.123Z" fill="#554D4F"/>
<path d="M250.075 78.1784C249.702 78.0967 249.344 78.1127 248.999 78.2266C248.657 78.3292 248.341 78.5265 248.052 78.8183C247.774 79.1127 247.533 79.486 247.327 79.9382C247.121 80.3904 246.953 80.9159 246.822 81.5147C246.644 82.3282 246.588 83.0383 246.657 83.6453C246.725 84.2523 246.913 84.7436 247.222 85.1191C247.541 85.497 247.995 85.7504 248.582 85.8792C249.068 85.9857 249.551 86.0263 250.03 86.0012C250.523 85.9672 251.029 85.9005 251.548 85.8011L251.013 88.2415C250.466 88.3584 249.916 88.4095 249.363 88.3948C248.81 88.3801 248.239 88.3083 247.652 88.1795C246.409 87.9071 245.454 87.4312 244.786 86.7519C244.12 86.0613 243.702 85.212 243.532 84.2038C243.365 83.1843 243.418 82.0532 243.691 80.8105C243.891 79.8953 244.193 79.0853 244.596 78.3803C245.002 77.6641 245.497 77.08 246.081 76.6279C246.677 76.1783 247.347 75.8753 248.092 75.7189C248.848 75.5649 249.672 75.5858 250.565 75.7815C251.119 75.9028 251.7 76.1132 252.309 76.4125C252.921 76.7005 253.447 77.029 253.887 77.3978L252.45 79.4983C252.091 79.1944 251.723 78.9245 251.349 78.6885C250.974 78.4524 250.55 78.2824 250.075 78.1784ZM263.174 87.7282C263.022 88.4173 262.733 89.0109 262.304 89.5089C261.877 89.9957 261.295 90.3298 260.557 90.5113C259.832 90.684 258.956 90.6576 257.927 90.4322C257.397 90.3158 256.939 90.186 256.556 90.0428C256.185 89.9022 255.841 89.7438 255.524 89.5678C255.221 89.383 254.907 89.1663 254.583 88.9175L255.159 86.2908C255.707 86.707 256.271 87.0792 256.85 87.4075C257.441 87.7383 257.996 87.9606 258.516 88.0745C258.821 88.1414 259.079 88.1507 259.291 88.1024C259.505 88.0428 259.675 87.9439 259.8 87.8055C259.927 87.6559 260.015 87.4737 260.062 87.2591C260.119 86.9992 260.099 86.764 260.004 86.5535C259.921 86.3343 259.746 86.1064 259.478 85.8701C259.213 85.6225 258.854 85.3425 258.401 85.0301C258.023 84.7577 257.687 84.4827 257.392 84.205C257.101 83.916 256.866 83.61 256.687 83.2868C256.512 82.9523 256.399 82.5782 256.347 82.1643C256.31 81.7417 256.349 81.2648 256.466 80.7338C256.632 79.9769 256.951 79.3838 257.424 78.9547C257.9 78.5143 258.484 78.2278 259.176 78.0953C259.879 77.9654 260.654 77.9933 261.502 78.179C262.247 78.3425 262.897 78.5677 263.449 78.8547C264.014 79.1441 264.506 79.4651 264.926 79.8177L263.482 81.8636C263.06 81.5223 262.625 81.2375 262.178 81.0092C261.733 80.7696 261.307 80.6052 260.901 80.516C260.629 80.4566 260.399 80.4535 260.21 80.5067C260.023 80.5487 259.873 80.64 259.759 80.7809C259.648 80.9104 259.57 81.0769 259.526 81.2802C259.474 81.5175 259.496 81.7413 259.591 81.9518C259.701 82.1535 259.9 82.3807 260.188 82.6332C260.476 82.8858 260.866 83.214 261.357 83.6178C261.854 83.999 262.26 84.39 262.574 84.7905C262.903 85.1822 263.116 85.6138 263.214 86.0852C263.326 86.5478 263.312 87.0955 263.174 87.7282ZM274.206 90.1468C274.056 90.836 273.766 91.4295 273.337 91.9275C272.91 92.4143 272.327 92.7484 271.589 92.9299C270.865 93.1026 269.988 93.0762 268.96 92.8508C268.429 92.7345 267.972 92.6047 267.589 92.4615C267.217 92.3208 266.873 92.1625 266.557 91.9865C266.254 91.8017 265.94 91.5849 265.616 91.3362L266.192 88.7094C266.74 89.1256 267.304 89.4978 267.882 89.8262C268.473 90.1569 269.029 90.3792 269.548 90.4932C269.853 90.56 270.112 90.5693 270.324 90.521C270.538 90.4615 270.707 90.3625 270.832 90.2242C270.96 90.0745 271.047 89.8923 271.094 89.6777C271.151 89.4178 271.132 89.1827 271.036 88.9722C270.954 88.7528 270.779 88.525 270.511 88.2887C270.246 88.0411 269.887 87.7611 269.434 87.4487C269.056 87.1763 268.719 86.9013 268.425 86.6237C268.133 86.3347 267.898 86.0286 267.721 85.7055C267.545 85.371 267.432 84.9968 267.381 84.583C267.342 84.1603 267.382 83.6835 267.499 83.1525C267.664 82.3955 267.984 81.8025 268.457 81.3733C268.932 80.9328 269.516 80.6464 270.208 80.514C270.912 80.384 271.687 80.4119 272.534 80.5977C273.28 80.7611 273.929 80.9863 274.482 81.2733C275.046 81.5627 275.538 81.8837 275.959 82.2363L274.515 84.2822C274.092 83.9409 273.658 83.6562 273.211 83.4278C272.766 83.1882 272.34 83.0238 271.933 82.9347C271.662 82.8752 271.432 82.8722 271.242 82.9253C271.056 82.9673 270.906 83.0587 270.792 83.1995C270.681 83.329 270.602 83.4955 270.558 83.6988C270.506 83.9361 270.528 84.16 270.624 84.3705C270.734 84.5722 270.932 84.7993 271.221 85.0518C271.509 85.3045 271.899 85.6327 272.39 86.0365C272.887 86.4177 273.292 86.8086 273.607 87.2091C273.936 87.6008 274.149 88.0324 274.247 88.5038C274.359 88.9665 274.345 89.5141 274.206 90.1468Z" fill="#CCC492"/>
<path d="M444.973 117.127L424.886 135.592C421.562 138.649 416.389 138.431 413.333 135.108L403.679 124.606C403.178 124.061 402.445 123.784 401.708 123.858L395.998 124.448C395.098 124.541 394.361 123.739 394.531 122.852L395.596 117.21C395.733 116.484 395.518 115.729 395.016 115.184L385.363 104.682C382.306 101.358 382.523 96.1837 385.849 93.1291L405.934 74.6641C409.263 71.603 414.435 71.8225 417.496 75.149L445.458 105.565C448.519 108.894 448.299 114.068 444.973 117.127Z" fill="white"/>
<path d="M401.942 123.464C402.704 123.464 403.443 123.783 403.961 124.346L413.614 134.845C415.024 136.38 416.944 137.271 419.025 137.359C421.114 137.439 423.097 136.719 424.627 135.311L444.712 116.846C446.247 115.434 447.141 113.513 447.228 111.43C447.317 109.349 446.586 107.358 445.176 105.825L417.214 75.4088C415.803 73.8739 413.881 72.9803 411.801 72.8934C409.713 72.8107 407.728 73.5325 406.193 74.9457L386.109 93.4085C382.945 96.3174 382.736 101.259 385.646 104.423L395.299 114.924C395.879 115.554 396.129 116.434 395.972 117.278L394.907 122.92C394.849 123.224 394.937 123.529 395.146 123.757C395.355 123.983 395.651 124.096 395.959 124.066L401.669 123.477C401.76 123.468 401.851 123.464 401.942 123.464ZM419.362 138.133C419.238 138.133 419.116 138.13 418.992 138.124C416.709 138.028 414.599 137.048 413.051 135.365L403.397 124.866C402.98 124.411 402.373 124.177 401.747 124.238L396.038 124.827C395.499 124.883 394.957 124.683 394.581 124.274C394.207 123.866 394.051 123.323 394.155 122.779L395.221 117.137C395.334 116.53 395.153 115.896 394.733 115.441L385.08 104.942C381.886 101.466 382.115 96.0413 385.591 92.8454L405.674 74.3804C409.15 71.1844 414.581 71.4127 417.777 74.8892L445.741 105.305C447.289 106.99 448.089 109.177 447.993 111.463C447.897 113.748 446.917 115.861 445.232 117.409L425.147 135.874C423.554 137.337 421.512 138.133 419.362 138.133Z" fill="#554D4F"/>
<path d="M405.869 89.7198C406.285 90.1779 406.57 90.6128 406.723 91.0246C406.886 91.4368 406.915 91.828 406.811 92.1985C406.716 92.5693 406.49 92.917 406.132 93.2415C405.901 93.4517 405.662 93.6038 405.417 93.6978C405.172 93.7919 404.922 93.8352 404.667 93.8277C404.417 93.8252 404.167 93.777 403.916 93.6831L402.905 97.2875L401.506 95.7472L402.557 92.8377L402.234 92.4828L400.21 94.32L398.97 92.9533L404.361 88.0586L405.869 89.7198ZM404.837 90.6158L404.59 90.344L403.238 91.571L403.472 91.8278C403.6 91.9687 403.734 92.0715 403.875 92.1361C404.022 92.1961 404.175 92.2083 404.336 92.1728C404.506 92.1377 404.672 92.047 404.833 91.9007C404.978 91.7682 405.074 91.6357 405.119 91.503C405.173 91.3709 405.175 91.2314 405.125 91.0845C405.083 90.9382 404.988 90.7819 404.837 90.6158ZM406.056 100.759L403.328 97.7538L408.719 92.8592L411.448 95.8645L410.405 96.8105L408.918 95.1719L407.883 96.111L409.268 97.6363L408.226 98.5824L406.842 97.0571L405.626 98.1608L407.113 99.7993L406.056 100.759ZM409.68 104.751L410.609 103.453L409.115 101.807L407.727 102.599L406.362 101.096L413.277 97.8345L414.93 99.6543L411.037 106.246L409.68 104.751ZM412.255 100.926C412.342 100.8 412.436 100.66 412.535 100.506C412.643 100.353 412.754 100.197 412.868 100.038C412.987 99.8757 413.102 99.7201 413.215 99.5715C413.061 99.6748 412.897 99.7776 412.724 99.8799C412.555 99.9777 412.39 100.073 412.227 100.166C412.073 100.26 411.927 100.342 411.788 100.412L410.44 101.113L411.428 102.2L412.255 100.926ZM417.881 104.938C417.73 104.772 417.553 104.657 417.348 104.595C417.15 104.527 416.932 104.514 416.693 104.556C416.46 104.602 416.217 104.699 415.965 104.846C415.712 104.992 415.452 105.187 415.185 105.429C414.823 105.758 414.555 106.079 414.381 106.394C414.207 106.708 414.13 107.007 414.15 107.292C414.174 107.582 414.305 107.858 414.543 108.12C414.74 108.336 414.957 108.52 415.195 108.671C415.443 108.823 415.708 108.963 415.99 109.092L414.903 110.079C414.602 109.949 414.32 109.786 414.06 109.591C413.8 109.395 413.552 109.167 413.314 108.905C412.811 108.351 412.515 107.798 412.427 107.245C412.343 106.687 412.432 106.138 412.694 105.597C412.961 105.052 413.371 104.528 413.925 104.025C414.333 103.655 414.753 103.37 415.187 103.169C415.625 102.964 416.061 102.853 416.495 102.835C416.933 102.823 417.358 102.906 417.768 103.084C418.183 103.268 418.571 103.559 418.932 103.956C419.155 104.203 419.363 104.502 419.553 104.853C419.748 105.199 419.888 105.536 419.973 105.862L418.569 106.379C418.5 106.111 418.417 105.857 418.317 105.616C418.218 105.376 418.073 105.15 417.881 104.938ZM417.615 113.491L416.374 112.124L420.7 108.196L419.577 106.957L420.641 105.991L424.13 109.834L423.065 110.801L421.942 109.563L417.615 113.491ZM419.36 114.275C419.607 114.052 419.844 113.969 420.072 114.028C420.305 114.083 420.511 114.208 420.69 114.405C420.863 114.596 420.963 114.808 420.991 115.04C421.023 115.268 420.916 115.493 420.669 115.718C420.438 115.928 420.205 116.01 419.972 115.965C419.738 115.92 419.534 115.802 419.36 115.611C419.182 115.415 419.08 115.195 419.053 114.953C419.026 114.712 419.128 114.485 419.36 114.275ZM418.893 118.177C418.752 118.02 418.636 117.878 418.546 117.748C418.456 117.618 418.382 117.502 418.325 117.398L419.359 116.459C419.412 116.548 419.47 116.642 419.533 116.742C419.586 116.84 419.656 116.938 419.743 117.033C419.889 117.195 420.033 117.293 420.176 117.329C420.319 117.365 420.477 117.336 420.65 117.243C420.827 117.156 421.037 117.002 421.278 116.783L426.3 112.224L427.547 113.598L422.587 118.102C422.088 118.555 421.619 118.842 421.18 118.966C420.736 119.093 420.325 119.081 419.947 118.928C419.569 118.784 419.218 118.534 418.893 118.177ZM427.716 121.477C427.409 121.755 427.068 121.941 426.693 122.033C426.323 122.122 425.93 122.083 425.514 121.919C425.108 121.755 424.697 121.444 424.282 120.986C424.067 120.749 423.892 120.532 423.757 120.332C423.627 120.138 423.516 119.945 423.424 119.753C423.342 119.562 423.265 119.351 423.195 119.121L424.365 118.058C424.486 118.445 424.629 118.815 424.795 119.17C424.965 119.529 425.156 119.825 425.366 120.057C425.489 120.192 425.61 120.285 425.728 120.333C425.851 120.378 425.966 120.388 426.073 120.365C426.185 120.337 426.289 120.279 426.385 120.192C426.5 120.087 426.571 119.968 426.597 119.834C426.632 119.701 426.626 119.532 426.578 119.328C426.535 119.119 426.458 118.862 426.348 118.558C426.259 118.299 426.192 118.053 426.145 117.82C426.104 117.582 426.095 117.355 426.12 117.14C426.15 116.92 426.223 116.702 426.34 116.486C426.466 116.271 426.647 116.056 426.883 115.841C427.221 115.535 427.576 115.359 427.948 115.315C428.327 115.265 428.703 115.327 429.08 115.499C429.462 115.677 429.824 115.954 430.167 116.332C430.468 116.664 430.703 116.993 430.87 117.318C431.042 117.649 431.168 117.971 431.249 118.283L429.861 118.772C429.775 118.464 429.663 118.18 429.527 117.918C429.395 117.652 429.247 117.428 429.083 117.247C428.973 117.126 428.863 117.046 428.755 117.007C428.651 116.963 428.548 116.956 428.445 116.985C428.348 117.009 428.254 117.062 428.163 117.145C428.058 117.24 427.992 117.355 427.967 117.489C427.95 117.623 427.968 117.799 428.02 118.018C428.072 118.238 428.147 118.528 428.245 118.888C428.353 119.24 428.415 119.566 428.429 119.865C428.453 120.165 428.408 120.444 428.295 120.703C428.191 120.963 427.998 121.221 427.716 121.477Z" fill="#FF9851"/>
<path d="M320.674 297.722L298.387 288.142C294.699 286.555 292.992 282.278 294.58 278.589L299.587 266.938C299.847 266.333 299.804 265.638 299.476 265.068L296.923 260.648C296.519 259.952 296.902 259.063 297.684 258.878L302.648 257.689C303.287 257.535 303.822 257.089 304.081 256.482L309.09 244.831C310.675 241.142 314.951 239.437 318.641 241.022L340.928 250.602C344.619 252.188 346.326 256.467 344.739 260.159L330.231 293.91C328.644 297.602 324.367 299.308 320.674 297.722Z" fill="white"/>
<path d="M315.778 240.817C313.106 240.817 310.56 242.38 309.438 244.984L304.431 256.635C304.127 257.349 303.492 257.884 302.735 258.064L297.772 259.254C297.517 259.314 297.311 259.486 297.209 259.725C297.106 259.967 297.122 260.234 297.252 260.46L299.807 264.88C300.194 265.554 300.244 266.38 299.937 267.094L294.928 278.744C293.427 282.234 295.047 286.293 298.537 287.793L320.822 297.372C322.516 298.099 324.387 298.125 326.099 297.444C327.809 296.762 329.151 295.453 329.879 293.761L344.385 260.012C345.885 256.52 344.266 252.457 340.774 250.957L318.489 241.375C317.604 240.997 316.684 240.817 315.778 240.817ZM323.546 298.703C322.52 298.703 321.494 298.494 320.519 298.075L298.235 288.495C294.356 286.83 292.558 282.319 294.226 278.442L299.235 266.791C299.446 266.297 299.411 265.728 299.144 265.263L296.591 260.842C296.337 260.405 296.306 259.888 296.506 259.423C296.706 258.958 297.102 258.625 297.593 258.507L302.557 257.32C303.079 257.194 303.516 256.827 303.727 256.334L308.736 244.684C310.403 240.806 314.912 239.005 318.791 240.673L341.076 250.252C342.957 251.061 344.409 252.553 345.166 254.453C345.924 256.353 345.896 258.434 345.087 260.314L330.581 294.064C329.775 295.944 328.281 297.396 326.383 298.155C325.466 298.52 324.505 298.703 323.546 298.703Z" fill="#7A7576"/>
<path d="M319.92 257.019L320.814 254.774L326.698 254.417L326.713 254.379C326.625 254.344 326.51 254.302 326.369 254.253C326.233 254.206 326.078 254.155 325.903 254.1C325.733 254.047 325.556 253.987 325.37 253.921C325.191 253.857 325.018 253.795 324.851 253.736L321.724 252.49L322.333 250.965L329.097 253.66L328.206 255.896L322.383 256.265L322.371 256.294C322.454 256.327 322.562 256.366 322.698 256.413C322.839 256.462 322.991 256.512 323.154 256.562C323.321 256.621 323.491 256.681 323.664 256.743C323.837 256.805 324.002 256.867 324.16 256.93L327.296 258.179L326.684 259.714L319.92 257.019ZM317.866 262.174L319.368 258.404L326.133 261.099L324.63 264.87L323.323 264.349L324.142 262.293L322.844 261.775L322.081 263.689L320.774 263.169L321.536 261.255L320.011 260.647L319.192 262.703L317.866 262.174ZM315.145 269.002L315.934 267.022L318.778 266.717L316.919 264.549L317.689 262.616L320.325 266.114L324.405 265.435L323.646 267.339L320.912 267.589L322.748 269.594L321.97 271.545L319.369 268.182L315.145 269.002ZM313.746 272.514L314.429 270.799L319.858 272.962L320.477 271.409L321.813 271.94L319.891 276.763L318.555 276.23L319.174 274.677L313.746 272.514ZM313.807 274.427C314.116 274.55 314.294 274.727 314.341 274.958C314.395 275.192 314.373 275.431 314.274 275.678C314.179 275.918 314.033 276.101 313.836 276.227C313.645 276.357 313.395 276.359 313.086 276.236C312.795 276.12 312.619 275.947 312.557 275.718C312.494 275.488 312.511 275.253 312.607 275.013C312.705 274.767 312.857 274.579 313.063 274.448C313.268 274.318 313.516 274.31 313.807 274.427ZM310.097 275.72C310.175 275.524 310.252 275.357 310.329 275.219C310.406 275.082 310.478 274.964 310.546 274.867L311.844 275.384C311.788 275.471 311.728 275.565 311.667 275.665C311.601 275.755 311.544 275.861 311.497 275.981C311.416 276.183 311.391 276.356 311.421 276.5C311.452 276.644 311.547 276.774 311.706 276.888C311.863 277.009 312.093 277.13 312.396 277.25L318.696 279.761L318.009 281.485L311.784 279.005C311.159 278.756 310.695 278.461 310.391 278.12C310.082 277.778 309.913 277.403 309.884 276.997C309.848 276.594 309.918 276.168 310.097 275.72ZM311.004 285.095C310.619 284.942 310.303 284.717 310.055 284.42C309.813 284.127 309.675 283.757 309.641 283.311C309.61 282.875 309.709 282.369 309.938 281.794C310.056 281.497 310.175 281.244 310.295 281.036C310.412 280.834 310.537 280.649 310.669 280.482C310.805 280.324 310.961 280.164 311.136 279.999L312.604 280.584C312.311 280.862 312.041 281.154 311.795 281.458C311.547 281.769 311.365 282.07 311.249 282.36C311.181 282.531 311.151 282.68 311.159 282.807C311.173 282.937 311.214 283.045 311.283 283.131C311.357 283.219 311.454 283.287 311.574 283.335C311.719 283.393 311.858 283.404 311.989 283.369C312.124 283.342 312.273 283.262 312.436 283.13C312.604 282.999 312.801 282.818 313.026 282.585C313.22 282.392 313.412 282.223 313.601 282.079C313.796 281.937 313.996 281.83 314.201 281.758C314.412 281.689 314.639 281.659 314.884 281.668C315.133 281.687 315.406 281.755 315.703 281.874C316.126 282.042 316.439 282.284 316.643 282.6C316.853 282.917 316.963 283.284 316.974 283.697C316.983 284.118 316.892 284.565 316.703 285.039C316.537 285.455 316.344 285.81 316.125 286.104C315.903 286.404 315.67 286.658 315.425 286.868L314.377 285.835C314.615 285.623 314.822 285.398 314.997 285.16C315.178 284.925 315.314 284.694 315.405 284.467C315.466 284.315 315.489 284.182 315.476 284.067C315.47 283.955 315.431 283.859 315.361 283.779C315.296 283.702 315.207 283.641 315.093 283.596C314.961 283.543 314.829 283.534 314.698 283.57C314.57 283.614 314.419 283.708 314.245 283.85C314.071 283.994 313.844 284.189 313.563 284.435C313.294 284.687 313.028 284.884 312.766 285.029C312.507 285.182 312.236 285.264 311.954 285.276C311.674 285.297 311.358 285.237 311.004 285.095Z" fill="#778065"/>
<path d="M378.933 414.49C378.933 414.49 366.441 380.178 375.309 369.005C384.177 357.834 393.865 368.32 393.865 368.32C393.865 368.32 395.361 344.341 407.471 331.773C419.581 319.206 434.393 325.126 437.718 335.014C441.044 344.904 427.056 353.494 421.818 356.156C416.578 358.819 408.728 366.057 411.721 368.657C414.713 371.257 423.731 366.561 422.842 378.263C421.953 389.964 378.933 414.49 378.933 414.49Z" fill="#16B1BD"/>
<path d="M375.425 426.159L374.68 425.978C381.254 398.888 414.747 344.22 415.083 343.672L415.736 344.072C415.401 344.62 381.969 399.186 375.425 426.159Z" fill="#231F20"/>
<path d="M386.655 397.223L386.022 396.794C386.499 396.092 397.802 379.59 408.329 378.625L408.399 379.388C398.232 380.321 386.771 397.055 386.655 397.223Z" fill="#231F20"/>
<path d="M383.885 403.101L383.168 402.832C383.203 402.738 386.577 393.307 377.959 380.078L378.6 379.66C387.446 393.238 384.033 402.706 383.885 403.101Z" fill="#231F20"/>
<path d="M371.832 408.509C371.832 408.509 396.787 381.85 393.013 368.094C389.241 354.338 376.216 360.183 376.216 360.183C376.216 360.183 384.249 337.541 378.04 321.228C371.832 304.916 355.886 304.551 348.947 312.343C342.008 320.133 351.504 333.523 355.277 338.026C359.051 342.531 363.434 352.269 359.66 353.486C355.886 354.704 349.435 346.846 345.661 357.958C341.886 369.068 371.832 408.509 371.832 408.509Z" fill="#16B1BD"/>
<path d="M371.237 420.745L370.48 420.619C375.044 393.24 365.706 329.934 365.613 329.297L366.369 329.184C366.465 329.823 375.818 393.249 371.237 420.745Z" fill="#231F20"/>
<path d="M371.504 389.596C371.467 389.396 367.489 369.506 358.503 364.658L358.868 363.984C368.171 369.004 372.093 388.617 372.256 389.45L371.504 389.596Z" fill="#231F20"/>
<path d="M360.219 419.585L363.554 436.896C363.73 437.819 364.54 438.487 365.48 438.487H385.634C386.576 438.487 387.386 437.819 387.56 436.896L390.897 419.585C391.13 418.372 390.2 417.25 388.971 417.25H362.145C360.914 417.25 359.985 418.372 360.219 419.585Z" fill="white"/>
<path d="M360.219 419.585L363.554 436.896C363.73 437.82 364.541 438.487 365.48 438.487H385.635C386.576 438.487 387.387 437.82 387.561 436.896L387.617 436.589C387.55 436.596 387.489 436.6 387.42 436.6H367.265C366.324 436.6 365.515 435.933 365.339 435.009L362.004 417.699C361.973 417.55 361.962 417.405 361.973 417.262C360.83 417.359 359.997 418.429 360.219 419.585Z" fill="#E7E9F3"/>
<path d="M360.594 419.511L363.929 436.822C364.071 437.565 364.723 438.104 365.479 438.104H385.636C386.392 438.104 387.045 437.565 387.184 436.823L390.521 419.511C390.61 419.046 390.489 418.572 390.186 418.207C389.886 417.841 389.442 417.633 388.971 417.633H362.144C361.672 417.633 361.229 417.841 360.929 418.207C360.627 418.57 360.505 419.046 360.594 419.513V419.511ZM385.636 438.87H365.479C364.356 438.87 363.386 438.069 363.177 436.965L359.842 419.657C359.709 418.965 359.89 418.258 360.337 417.717C360.786 417.178 361.442 416.867 362.144 416.867H388.971C389.671 416.867 390.33 417.178 390.777 417.717C391.226 418.258 391.406 418.965 391.273 419.657L387.936 436.967C387.727 438.069 386.757 438.87 385.636 438.87Z" fill="#231F20"/>
<path d="M372.511 396.125L371.745 396.092C371.763 395.67 372.341 385.622 385.805 376.605L386.231 377.24C373.113 386.026 372.515 396.027 372.511 396.125Z" fill="#231F20"/>
<path d="M97.715 130.571L113.103 150.86C115.649 154.219 114.992 159.006 111.633 161.554L97.0749 172.338C96.5231 172.756 96.202 173.412 96.2066 174.104L96.2494 179.461C96.2579 180.304 95.4481 180.919 94.6375 180.682L89.4898 179.197C88.8262 179.006 88.1075 179.139 87.5555 179.556L76.0184 188.696C72.6602 191.242 67.8716 190.586 65.3243 187.227L49.9369 166.937C47.3866 163.574 48.0447 158.787 51.4072 156.237L87.0139 129.101C90.3764 126.551 95.1649 127.207 97.715 130.571Z" fill="white"/>
<path d="M91.6214 127.935C90.0932 127.935 88.5539 128.415 87.2456 129.407L51.6393 156.542C50.0942 157.713 49.0982 159.416 48.8351 161.333C48.571 163.253 49.0712 165.162 50.2427 166.706L65.6299 186.997C66.7997 188.538 68.5008 189.534 70.4201 189.797C72.3416 190.06 74.2451 189.56 75.7883 188.391L87.3182 179.257C87.9684 178.763 88.8179 178.607 89.5963 178.829L94.7446 180.316C95.0152 180.394 95.2964 180.342 95.5199 180.172C95.7434 180.003 95.8697 179.744 95.8669 179.466L95.8242 174.107C95.8191 173.295 96.2004 172.522 96.8448 172.032L111.406 161.248C114.588 158.835 115.213 154.278 112.798 151.091L97.4107 130.802C95.9858 128.923 93.8151 127.935 91.6214 127.935ZM71.4233 190.632C71.0556 190.632 70.6861 190.606 70.3154 190.556C68.1943 190.265 66.313 189.165 65.0196 187.458L49.6328 167.169C48.3377 165.462 47.7846 163.353 48.0759 161.232C48.3677 159.11 49.4691 157.227 51.1767 155.933L86.7827 128.798C90.305 126.121 95.3473 126.815 98.0208 130.341L113.408 150.63C114.701 152.335 115.254 154.443 114.963 156.566C114.671 158.685 113.571 160.566 111.864 161.86L97.3037 172.645C96.8546 172.987 96.5861 173.53 96.5897 174.1L96.6324 179.457C96.6378 179.981 96.4015 180.463 95.9827 180.781C95.5647 181.098 95.0348 181.197 94.5315 181.051L89.3845 179.566C88.8401 179.407 88.24 179.52 87.7869 179.862L76.2573 188.995C74.8441 190.069 73.1609 190.632 71.4233 190.632Z" fill="#554D4F"/>
<path d="M60.1597 167.182L63.3418 171.325L68.1327 167.647L64.9508 163.503L66.2442 162.512L73.8493 172.415L72.556 173.409L68.9904 168.764L64.1995 172.443L67.7648 177.087L66.4864 178.067L58.8813 168.164L60.1597 167.182Z" fill="#2389D2"/>
<path d="M71.1768 160.452L68.1637 162.762L67.3286 161.676L74.6632 156.047L75.4975 157.134L72.4695 159.458L79.2396 168.276L77.9469 169.268L71.1768 160.452Z" fill="#2389D2"/>
<path d="M88.3756 154.345C87.2414 153.021 85.8784 151.427 84.9452 150.181L84.9004 150.216C85.4535 151.636 85.9903 153.186 86.5406 154.936L88.4817 161.085L87.5111 161.83L82.288 158.341C80.7455 157.306 79.3669 156.334 78.1847 155.371L78.1547 155.395C79.0737 156.651 80.276 158.369 81.3264 159.921L84.323 164.37L83.1029 165.306L76.1885 154.871L77.8199 153.618L83.1887 157.112C84.5363 158.017 85.7101 158.845 86.7491 159.682L86.7935 159.648C86.276 158.456 85.7938 157.097 85.2757 155.51L83.3603 149.366L84.9915 148.113L93.2143 157.545L91.9644 158.504L88.3756 154.345Z" fill="#2389D2"/>
<path d="M87.5752 146.133L88.8536 145.152L95.6349 153.984L99.8676 150.735L100.691 151.807L95.1797 156.038L87.5752 146.133Z" fill="#2389D2"/>
</g>
<path fill-rule="evenodd" clip-rule="evenodd" d="M496 0H0V496H496V0ZM199.239 491.526C162.096 493.507 76.0247 467.061 28.8784 345.432C15.0118 312.912 -6.48138 227.17 18.4784 144.367C26.2371 112.837 67.5066 43.8342 170.515 20.0629C206.667 7.18684 302.347 -10.8397 395.847 20.0629C419.288 27.6563 469.439 55.8183 482.513 107.719C488.456 127.528 495.389 181.608 475.58 239.451C461.713 281.381 417.835 377.324 353.257 425.659C321.245 452.072 245.624 502.224 199.239 491.526Z" fill="white"/>
<path d="M28.8784 345.432C76.0247 467.061 162.096 493.507 199.239 491.526C245.624 502.224 321.245 452.072 353.257 425.659C417.835 377.324 461.713 281.381 475.58 239.451C495.389 181.608 488.456 127.528 482.513 107.719C469.439 55.8183 419.288 27.6563 395.847 20.0629C302.347 -10.8397 206.667 7.18684 170.515 20.0629C67.5066 43.8342 26.2371 112.837 18.4784 144.367C-6.48138 227.17 15.0118 312.912 28.8784 345.432Z" stroke="#F97316" stroke-width="3"/>
<defs>
<clipPath id="clip0_5808_45703">
<rect width="400" height="400" fill="white" transform="translate(48 48)"/>
</clipPath>
</defs>
</svg>
