<svg width="640" height="640" viewBox="0 0 640 640" fill="none" xmlns="http://www.w3.org/2000/svg">
<path d="M583.836 264.992H318.094C315.795 264.992 313.934 263.128 313.934 260.828V94.0391C313.934 91.7397 315.795 89.8787 318.094 89.8787H583.836C586.132 89.8787 587.996 91.7397 587.996 94.0391V260.828C587.996 263.128 586.132 264.992 583.836 264.992Z" fill="white"/>
<path d="M328.584 90.492C320.841 90.492 314.544 96.7883 314.544 104.532V250.338C314.544 258.081 320.841 264.378 328.584 264.378H573.339C581.083 264.378 587.383 258.081 587.383 250.338V104.532C587.383 96.7883 581.083 90.492 573.339 90.492H328.584ZM573.339 265.605H328.584C320.166 265.605 313.316 258.756 313.316 250.338V104.532C313.316 96.1134 320.166 89.2675 328.584 89.2675H573.339C581.758 89.2675 588.607 96.1134 588.607 104.532V250.338C588.607 258.756 581.758 265.605 573.339 265.605Z" fill="#5E5154"/>
<path d="M405.712 118.263H336.227V123.123H405.712V118.263Z" fill="#F4D9CA"/>
<path d="M438.188 118.263V123.123H508.776V118.263H438.188Z" fill="#F4D9CA"/>
<path d="M399.596 135.873H336.227V140.732H399.596V135.873Z" fill="#F4D9CA"/>
<path d="M432.066 135.873V140.732H473.479V135.873H432.066Z" fill="#F4D9CA"/>
<path d="M353.947 153.482H336.227V158.342H353.947V153.482Z" fill="#F4D9CA"/>
<path d="M435.361 153.482H392.066V158.342H435.361V153.482Z" fill="#F4D9CA"/>
<path d="M508.774 153.482H454.188V158.342H508.774V153.482Z" fill="#F4D9CA"/>
<path d="M353.947 171.09H336.227V175.949H353.947V171.09Z" fill="#F4D9CA"/>
<path d="M497.482 171.09H454.188V171.326H435.361V171.09H392.066V175.949H497.482V171.09Z" fill="#F4D9CA"/>
<path d="M509.246 171.09V175.949H566.473V171.09H509.246Z" fill="#F4D9CA"/>
<path d="M426.421 188.699H392.066V193.559H426.421V188.699Z" fill="#F4D9CA"/>
<path d="M468.775 188.699H447.598V193.559H468.775V188.699Z" fill="#F4D9CA"/>
<path d="M512.069 188.699H485.715V193.559H512.069V188.699Z" fill="#F4D9CA"/>
<path d="M353.947 188.699H336.227V193.559H353.947V188.699Z" fill="#F4D9CA"/>
<path d="M353.947 206.308H336.227V211.168H353.947V206.308Z" fill="#F4D9CA"/>
<path d="M489.008 206.308H392.066V211.168H489.008V206.308Z" fill="#F4D9CA"/>
<path d="M502.188 206.308V211.168H566.476V206.308H502.188Z" fill="#F4D9CA"/>
<path d="M353.947 223.918H336.227V228.777H353.947V223.918Z" fill="#F4D9CA"/>
<path d="M424.066 223.918H392.066V228.777H424.066V223.918Z" fill="#F4D9CA"/>
<path d="M483.831 223.918H447.125V228.777H483.831V223.918Z" fill="#F4D9CA"/>
<path d="M505.48 223.918V228.777H566.475V223.918H505.48Z" fill="#F4D9CA"/>
<path d="M353.947 241.525H336.227V246.385H353.947V241.525Z" fill="#F4D9CA"/>
<path d="M431.128 241.525H392.066V246.385H431.128V241.525Z" fill="#F4D9CA"/>
<path d="M447.125 241.525V246.385H495.126V241.525H447.125Z" fill="#F4D9CA"/>
<path d="M247.723 448.883V520.581C247.723 529.67 240.348 537.045 231.259 537.045H24.4597C15.3704 537.045 7.99609 529.67 7.99609 520.581V448.883C7.99609 439.793 15.3704 432.419 24.4597 432.419H231.259C240.348 432.419 247.723 439.793 247.723 448.883Z" fill="#F7F7F7"/>
<path d="M247.722 448.883V520.581C247.722 529.67 240.348 537.045 231.258 537.045H24.4591C16.8399 537.045 10.4208 531.862 8.54688 524.832C11.1437 526.56 14.2675 527.562 17.624 527.562H224.426C233.512 527.562 240.887 520.188 240.887 511.098V439.4C240.887 437.932 240.692 436.523 240.337 435.163C244.783 438.103 247.722 443.15 247.722 448.883Z" fill="#E1E4E9"/>
<path d="M24.4586 433.03C15.7186 433.03 8.60797 440.14 8.60797 448.882V520.58C8.60797 529.321 15.7186 536.432 24.4586 536.432H231.261C239.999 536.432 247.109 529.321 247.109 520.58V448.882C247.109 440.14 239.999 433.03 231.261 433.03H24.4586ZM231.261 537.656H24.4586C15.0427 537.656 7.38281 529.996 7.38281 520.58V448.882C7.38281 439.465 15.0427 431.805 24.4586 431.805H231.261C240.674 431.805 248.337 439.465 248.337 448.882V520.58C248.337 529.996 240.674 537.656 231.261 537.656Z" fill="#231F20"/>
<path d="M79.7031 485.408L110.942 469.315V473.963L84.6173 487.157V487.293L110.942 500.487V505.135L79.7031 489.043V485.408Z" fill="#276BBD"/>
<path d="M115.32 507.828L134.104 459.016H138.684L119.833 507.828H115.32Z" fill="#276BBD"/>
<path d="M174.168 489.109L142.93 505.135V500.487L169.454 487.293V487.157L142.93 473.963V469.315L174.168 485.338V489.109Z" fill="#276BBD"/>
<path d="M350.082 229.014H315.379V224.116H350.082V229.014Z" fill="#E7E9F3"/>
<path d="M460.34 604.384L425.654 590.56L415.939 583.812L381.027 593.312L384.308 621.176C384.182 622.665 385.435 623.875 386.889 623.705L462.973 614.817C464.25 614.667 465.165 613.512 465.019 612.232L464.695 609.47C464.41 607.039 462.702 605.042 460.34 604.384Z" fill="#231F20"/>
<path d="M415.938 583.812L408.901 551.739L375.367 571.518L381.027 593.312C396.155 597.709 408.946 594.094 415.938 583.812Z" fill="#F5CEC9"/>
<path d="M428.887 601.234L427.75 600.786C429.795 595.596 434.512 594.552 434.714 594.51L434.965 595.707C434.794 595.745 430.686 596.677 428.887 601.234Z" fill="white"/>
<path d="M436.466 604.369L435.328 603.92C437.374 598.73 442.091 597.687 442.292 597.645L442.543 598.845C442.369 598.88 438.264 599.812 436.466 604.369Z" fill="white"/>
<path d="M261.832 354.198C261.832 354.198 313.403 359.093 333.54 376.249C353.681 393.406 418.843 559.026 418.843 559.026L368.636 579.828L278.049 415.651L261.832 354.198Z" fill="#1C2121"/>
<path d="M325.67 613.995L295.528 591.965L287.802 583.007L251.621 583.508L247.854 611.313C247.36 612.722 248.275 614.204 249.725 614.402L325.622 624.758C326.898 624.932 328.071 624.038 328.248 622.761L328.624 620.009C328.954 617.581 327.796 615.219 325.67 613.995Z" fill="#231F20"/>
<path d="M287.802 583.007L292.258 550.997L254.797 560.062L251.621 583.508C265.177 591.537 278.466 591.224 287.802 583.007Z" fill="#F5CEC9"/>
<path d="M296.003 603.109L295.012 602.393C298.285 597.874 303.113 598.034 303.319 598.048L303.267 599.272C303.089 599.262 298.876 599.144 296.003 603.109Z" fill="white"/>
<path d="M302.554 608.035L301.562 607.315C304.839 602.8 309.661 602.953 309.873 602.974L309.817 604.198C309.654 604.177 305.431 604.07 302.554 608.035Z" fill="white"/>
<path d="M117.224 345.48C146.232 341.442 164.202 341.216 185.892 353.669C220.577 347.7 308.624 354.198 316.016 377.247C324.974 405.177 303.712 580.889 303.712 580.889L244.611 565.736L246.924 432.425L162.265 431.381C132.556 430.16 109.818 404.488 112.189 374.85L117.224 345.48Z" fill="#1C2121"/>
<path d="M315.308 472.137L314.098 471.945C320.818 429.367 319.152 389.036 315.433 377.435L316.599 377.063C320.947 390.619 321.486 432.999 315.308 472.137Z" fill="white"/>
<path d="M324.809 257.45C324.809 257.45 258.858 319.53 243.576 316.368C229.07 313.383 205.523 262.397 205.523 262.397L243.656 256.678L254.457 272.04L310.094 235.465L324.809 257.45Z" fill="#F5CEC9"/>
<path d="M258.718 255.38L244.605 266.404L236.027 272.296L232.935 274.415L224.659 280.085L222.123 281.824L200.277 228.8L200.312 209.733C200.312 209.733 215.855 209.097 228.242 219.849C237.283 227.687 258.718 255.38 258.718 255.38Z" fill="#FA8F45"/>
<path d="M236.027 272.297L232.935 274.416L224.659 280.086L220.457 246.816L236.027 272.297Z" fill="#D95B05"/>
<path d="M214.446 214.922C205.037 201.999 145.437 213.979 127.04 227.681C104.712 244.313 106.693 367.904 106.693 367.904C151.254 367.911 180.829 371.06 218.377 349.27C218.377 349.27 234.473 242.424 214.446 214.922Z" fill="#F97316"/>
<path d="M216.401 126.725C216.401 126.725 216.857 145.318 205.113 149.183C193.369 153.048 189.098 141.815 189.098 141.815L193.401 127.149L204.202 126.154" fill="#231F20"/>
<path d="M155.884 205.625L164.334 219.766L184.962 220.03L196.448 221.578L191.578 204.105L191.457 199.666L191.154 187.929L154.625 168.877C154.893 170.397 155.126 171.907 155.328 173.392C157.766 191.081 155.884 205.625 155.884 205.625Z" fill="#F5CEC9"/>
<path d="M154.625 168.878C154.893 170.398 155.126 171.908 155.328 173.393C155.55 173.411 155.763 173.418 155.971 173.411C156.437 174.294 156.806 175.327 157.081 176.486C163.141 191.799 179.396 200.568 191.457 199.667L191.154 187.93L154.625 168.878Z" fill="#F19B91"/>
<path d="M155.885 205.63C160.167 213.634 173.855 217.151 184.963 220.031C184.963 220.031 183.488 239.362 180.239 239.595C177.247 239.807 149.206 232.461 148.211 217.61C152.211 214.16 152.98 210.274 155.885 205.63Z" fill="#D95B05"/>
<path d="M184.965 220.03C184.965 220.03 192.426 233.934 196.778 234.741C201.728 235.663 204.271 221.78 202.914 214.684L191.581 204.105C192.934 208.961 195.067 213.184 184.965 220.03Z" fill="#D95B05"/>
<path d="M189.796 195.336C177.642 197.006 160.395 188.16 154.105 172.28C153.834 171.129 153.472 170.092 153.003 169.209C150.112 169.243 146.859 167.748 144.359 164.982C140.397 160.592 139.814 154.612 143.105 151.68C144.978 149.989 147.642 149.631 150.373 150.494C150.759 133.226 159.069 119.287 171.269 117.315C179.412 116 187.57 120.268 193.835 128.064C194.593 128.999 195.327 129.991 196.019 131.034C200.009 136.962 202.987 144.458 204.312 152.821C207.881 174.767 202.573 193.573 189.796 195.336Z" fill="#F5CEC9"/>
<path d="M130.233 173.982C132.615 178.521 137.317 181.544 142.301 182.807C147.627 184.129 152.445 186.818 157.436 184.529L156.81 183.687C156.504 179.492 154.904 175.578 154.09 172.281C153.836 171.133 153.471 170.092 153.001 169.209C150.114 169.244 146.855 167.744 144.356 164.989C140.4 160.582 139.822 154.609 143.101 151.673C144.975 149.979 147.644 149.628 150.361 150.494C150.361 150.494 156.57 153.079 156.664 158.502L160.863 159.688L162.272 149.757C162.272 149.757 168.749 144.469 165.263 139.182C165.263 139.182 217.05 150.059 216.441 127.688C215.829 105.317 193.075 114.028 193.075 114.028C193.075 114.028 194.891 110.674 196.084 106.545C198.488 98.3634 198.502 87.1345 177.268 93.0585C152.886 99.8662 145.906 119.83 143.959 128.899C140.724 128.227 136.76 129.56 134.53 131.918C131.604 135.038 131.549 140.423 134.422 143.585C132.629 141.491 129.136 141.519 126.95 143.185C124.778 144.852 123.779 147.728 123.736 150.473C123.648 155.496 126.526 160.46 130.905 162.895C127.288 166.537 127.865 169.442 130.233 173.982Z" fill="#231F20"/>
<path d="M194.946 156.73L199.684 170.151L192.953 171.584L194.946 156.73Z" fill="#F19B91"/>
<path d="M156.698 265.33L150.805 313.019L198.17 319.993L133.905 331.188C133.905 331.188 129.655 323.061 129.175 322.435C128.696 321.813 139.948 281.638 139.948 281.638L156.698 265.33Z" fill="#D95B05"/>
<path d="M198.172 319.993L199.63 344.351C199.63 344.351 114.469 360.084 102.221 344.883C89.8572 329.546 109.318 272.041 109.318 272.041L146.71 279.381L137.253 320.188L198.172 319.993Z" fill="#F5CEC9"/>
<path d="M137.014 222.359C110.175 227.935 99.1953 288.727 99.1953 288.727C114.27 299.212 135.823 301.149 150.81 295.865C150.81 295.865 157.13 268.009 159.047 247.673C160.713 229.97 144.226 220.859 137.014 222.359Z" fill="#FA8F45"/>
<path d="M233.654 323.471C234.252 326.421 230.279 327.617 227.315 327.746C230.867 328.076 236.857 330.755 236.711 332.289C236.318 336.373 227.945 334.094 225.482 333.66C227.862 334.147 234.558 337.42 234.088 338.766C233.226 341.26 226.15 339.799 222.971 339.375C225.743 339.824 229.218 343.681 228.408 344.621C225.454 348.023 195.744 344.241 195.361 343.445C191.141 343.156 192.714 320.312 196.933 320.601C196.933 320.601 214.041 311.869 218.355 314.743C222.672 317.62 211.714 322.079 211.714 322.079C211.714 322.079 232.871 319.589 233.654 323.471Z" fill="#F5CEC9"/>
<path d="M307.434 241.01C307.434 241.01 317.668 215.912 322.576 215.084C326.357 214.447 325.627 225.815 325.627 225.815C325.627 225.815 353.341 201.907 356.232 205.302C359.122 208.697 342.86 220.761 342.86 220.761C342.86 220.761 346.94 219.202 347.921 222.03C348.878 224.779 346.366 226.18 346.366 226.18C346.366 226.18 349.111 225.039 350.645 226.991C352.193 228.967 349.535 231.576 349.535 231.576C349.535 231.576 352.53 231.871 352.047 235.054C351.382 239.444 332.125 253.752 329.311 255.279C326.496 256.806 323.543 258.375 323.543 258.375L307.434 241.01Z" fill="#F5CEC9"/>
<path d="M333.971 235.441C333.901 235.441 333.831 235.438 333.769 235.431C333.285 235.379 332.899 235.16 332.645 234.791C332.123 234.033 331.949 233.152 332.134 232.185C332.826 228.54 338.548 224.654 338.792 224.491L339.477 225.51C339.422 225.545 333.932 229.27 333.337 232.415C333.216 233.059 333.32 233.608 333.657 234.099C333.678 234.13 333.724 234.193 333.897 234.213C335.905 234.478 342.444 229.069 346.097 225.639L346.935 226.529C345.947 227.458 337.348 235.441 333.971 235.441Z" fill="#F3B1A5"/>
<path d="M337.49 240.404C337.382 240.404 337.278 240.401 337.177 240.387C336.398 240.303 335.778 239.893 335.385 239.211C333.841 236.529 337.382 232.932 337.535 232.779L338.401 233.645C337.552 234.494 335.552 237.047 336.446 238.599C336.648 238.947 336.923 239.128 337.312 239.169C340.13 239.524 346.656 233.176 348.927 230.72L349.825 231.551C348.969 232.477 341.528 240.404 337.49 240.404Z" fill="#F3B1A5"/>
<path d="M338.788 245.146C338.52 245.146 338.27 245.122 338.04 245.066C337.463 244.924 337.014 244.6 336.746 244.124C336.301 243.331 336.193 242.503 336.433 241.664C336.983 239.734 339.23 238.471 339.324 238.419L339.919 239.49C339.898 239.501 338.016 240.562 337.609 242.005C337.463 242.52 337.529 243.018 337.814 243.525C337.88 243.637 338.002 243.797 338.333 243.877C340.392 244.381 345.683 241.289 347.551 240.061L348.226 241.08C347.551 241.529 341.964 245.146 338.788 245.146Z" fill="#F3B1A5"/>
<path d="M320.786 238.355L320.289 237.235C325.921 234.734 325.027 225.972 325.017 225.881L326.234 225.749C326.279 226.146 327.239 235.486 320.786 238.355Z" fill="#F3B1A5"/>
<path d="M258.951 365.64L258.962 365.65L187.194 364.774C183.622 364.736 180.759 361.8 180.797 358.213C180.818 356.512 181.493 354.985 182.564 353.844C183.66 352.693 185.149 351.941 186.843 351.819L225.887 349.238L265.822 346.601L258.951 365.64Z" fill="white"/>
<path d="M264.93 347.272L186.884 352.431C185.412 352.535 184.031 353.186 183.005 354.264C181.993 355.342 181.426 356.748 181.409 358.219C181.391 359.788 181.986 361.273 183.078 362.393C184.171 363.517 185.635 364.143 187.2 364.157L258.515 365.034L264.93 347.272ZM258.961 366.262H258.954L187.186 365.385C185.294 365.364 183.524 364.606 182.202 363.249C180.88 361.896 180.163 360.101 180.184 358.205C180.205 356.428 180.89 354.73 182.118 353.422C183.357 352.121 185.019 351.335 186.8 351.21L265.782 345.988C266.012 345.967 266.186 346.068 266.311 346.232C266.436 346.395 266.468 346.614 266.398 346.809L259.57 365.729C259.559 365.792 259.542 365.855 259.514 365.917C259.41 366.126 259.197 366.262 258.961 366.262Z" fill="#231F20"/>
<path d="M268.775 346.617L261.905 365.652L226.113 365.218L228.837 349.251L268.775 346.617Z" fill="#231F20"/>
<path d="M322.073 366.405L230.68 365.296L243.749 288.881C244.469 284.665 248.153 281.593 252.431 281.645L335.424 282.654C340.774 282.717 344.799 287.549 343.895 292.822L332.85 357.427C331.953 362.662 327.382 366.471 322.073 366.405Z" fill="white"/>
<path d="M231.403 364.692L322.076 365.791C322.122 365.791 322.163 365.791 322.205 365.791C327.194 365.791 331.403 362.25 332.244 357.321L343.293 292.719C343.693 290.382 343.049 287.995 341.532 286.176C340.016 284.353 337.786 283.292 335.413 283.264L252.424 282.256C252.389 282.256 252.358 282.256 252.323 282.256C248.365 282.256 245.022 285.07 244.35 288.983L231.403 364.692ZM322.209 367.016C322.16 367.016 322.111 367.016 322.063 367.016L230.672 365.909C230.491 365.906 230.325 365.826 230.21 365.687C230.095 365.551 230.046 365.37 230.074 365.193L243.143 288.778C243.915 284.273 247.766 281.031 252.323 281.031C252.362 281.031 252.4 281.031 252.438 281.031L335.431 282.04C338.158 282.071 340.725 283.292 342.475 285.39C344.221 287.488 344.959 290.232 344.5 292.925L333.452 357.526C332.509 363.047 327.792 367.016 322.209 367.016Z" fill="#231F20"/>
<path d="M253.506 281.647C251.204 282.969 249.52 285.258 249.04 288.02L235.818 365.35L230.68 365.291L243.749 288.886C244.469 284.663 248.156 281.592 252.431 281.64L253.506 281.647Z" fill="#231F20"/>
<path d="M301.519 324.196C301.45 329.984 296.701 334.618 290.923 334.548C287.772 334.51 284.964 333.08 283.086 330.854C284.001 331.09 284.957 331.212 285.945 331.226C292.899 331.309 298.614 325.74 298.698 318.776C298.708 318.105 298.663 317.43 298.569 316.786C300.423 318.706 301.554 321.319 301.519 324.196Z" fill="#C5D0E4"/>
<path d="M310.907 576.704C310.368 579.428 308.778 581.727 306.761 583.15C304.914 584.447 302.666 585.035 300.503 584.6C281.485 580.75 262.572 576.648 243.753 572.3C239.86 571.399 237.122 567.597 237.533 563.103C237.818 559.989 239.422 557.38 241.582 555.86C243.374 554.594 245.586 554.065 247.739 554.559C266.694 558.942 285.747 563.071 304.896 566.957C309.043 567.795 311.836 572.039 310.907 576.704Z" fill="#2F3D3E"/>
<path d="M308.592 555.864L267.809 558.943L306.505 567.184L308.592 555.864Z" fill="#231F20"/>
<path d="M426.526 553.168C427.479 555.777 427.315 558.566 426.327 560.831C425.423 562.901 423.809 564.571 421.732 565.318C403.48 571.903 385.186 578.221 366.847 584.277C363.051 585.529 358.738 583.699 356.755 579.647C355.385 576.836 355.399 573.775 356.453 571.354C357.329 569.343 358.943 567.74 361.044 567.047C379.516 560.946 397.942 554.583 416.326 547.96C420.303 546.523 424.894 548.701 426.526 553.168Z" fill="#2F3D3E"/>
<path d="M408.7 532.783L378.582 561.172L414.826 548.499L408.7 532.783Z" fill="#231F20"/>
<path d="M386.048 47.444L377.254 87.2255C375.8 93.8105 369.278 97.9709 362.693 96.5134L341.894 91.918C340.812 91.678 339.682 91.9668 338.843 92.6869L332.356 98.2909C331.337 99.178 329.747 98.8266 329.194 97.5917L325.673 89.7787C325.218 88.7699 324.313 88.0324 323.231 87.7924L302.433 83.1937C295.848 81.7397 291.687 75.2207 293.141 68.6357L301.935 28.8508C303.393 22.2588 309.912 18.0984 316.504 19.5559L376.75 32.8721C383.345 34.3296 387.502 40.8485 386.048 47.444Z" fill="white"/>
<path d="M313.843 19.8753C311.655 19.8753 309.509 20.498 307.623 21.7016C305.011 23.3679 303.202 25.956 302.534 28.9824L293.74 68.7673C293.072 71.7902 293.622 74.8966 295.288 77.5091C296.955 80.1215 299.539 81.9269 302.566 82.5948L323.364 87.1935C324.627 87.4718 325.698 88.345 326.231 89.5242L329.754 97.3406C329.935 97.7511 330.294 98.0399 330.732 98.1373C331.167 98.2347 331.615 98.1233 331.956 97.8276L338.444 92.2236C339.421 91.3783 340.761 91.0374 342.027 91.3192L362.826 95.9144C369.077 97.2919 375.276 93.3402 376.657 87.0926L385.451 47.3112C386.832 41.0601 382.869 34.8508 376.618 33.4698L316.372 20.1536C315.53 19.9693 314.682 19.8753 313.843 19.8753ZM331.045 99.3965C330.854 99.3965 330.659 99.3757 330.468 99.3339C329.647 99.153 328.979 98.6103 328.638 97.845L325.114 90.0286C324.742 89.1972 323.987 88.585 323.096 88.3902L302.301 83.7914C298.955 83.054 296.099 81.0573 294.255 78.1665C292.415 75.2793 291.806 71.8459 292.544 68.5029L301.338 28.7215C302.079 25.3716 304.075 22.5122 306.966 20.6685C309.853 18.8248 313.287 18.2161 316.637 18.957L376.883 32.2731C383.795 33.8037 388.171 40.6636 386.647 47.5721L377.853 87.357C377.112 90.7034 375.116 93.5594 372.228 95.3996C369.338 97.2398 365.908 97.852 362.561 97.1111L341.763 92.5158C340.879 92.3175 339.933 92.5575 339.244 93.1524L332.756 98.7565C332.269 99.1739 331.668 99.3965 331.045 99.3965Z" fill="#554D4F"/>
<path d="M323.32 48.2845C322.724 48.1537 322.15 48.1794 321.598 48.3616C321.051 48.5258 320.546 48.8414 320.084 49.3084C319.639 49.7793 319.253 50.3766 318.924 51.1002C318.594 51.8237 318.325 52.6645 318.115 53.6226C317.83 54.9241 317.741 56.0604 317.851 57.0316C317.96 58.0028 318.261 58.7888 318.755 59.3896C319.266 59.9943 319.992 60.3997 320.932 60.6058C321.709 60.7762 322.481 60.8412 323.248 60.8009C324.037 60.7465 324.846 60.6398 325.677 60.4808L324.821 64.3854C323.946 64.5725 323.066 64.6543 322.181 64.6308C321.296 64.6072 320.383 64.4924 319.443 64.2863C317.455 63.8504 315.926 63.089 314.857 62.0021C313.792 60.8972 313.124 59.5382 312.852 57.9251C312.584 56.294 312.669 54.4842 313.105 52.4958C313.426 51.0316 313.909 49.7355 314.554 48.6076C315.203 47.4616 315.995 46.527 316.93 45.8037C317.884 45.0844 318.956 44.5996 320.148 44.3493C321.357 44.1029 322.676 44.1363 324.104 44.4494C324.99 44.6435 325.92 44.9801 326.895 45.4591C327.874 45.9199 328.716 46.4454 329.42 47.0356L327.12 50.3963C326.545 49.9101 325.957 49.4783 325.358 49.1006C324.759 48.7229 324.08 48.4509 323.32 48.2845ZM344.278 63.5641C344.036 64.6668 343.573 65.6165 342.886 66.4133C342.204 67.1921 341.272 67.7267 340.091 68.0171C338.931 68.2934 337.529 68.2512 335.884 67.8906C335.035 67.7044 334.303 67.4967 333.69 67.2676C333.096 67.0425 332.545 66.7892 332.038 66.5076C331.554 66.2119 331.052 65.8651 330.533 65.4671L331.454 61.2643C332.331 61.9302 333.233 62.5258 334.16 63.0511C335.105 63.5803 335.993 63.936 336.825 64.1183C337.313 64.2253 337.726 64.2402 338.065 64.1629C338.408 64.0676 338.68 63.9093 338.88 63.6879C339.084 63.4485 339.224 63.157 339.299 62.8136C339.39 62.3978 339.359 62.0215 339.206 61.6847C339.074 61.3339 338.794 60.9693 338.365 60.5912C337.941 60.195 337.366 59.747 336.642 59.2472C336.037 58.8114 335.499 58.3713 335.028 57.9271C334.561 57.4647 334.185 56.975 333.9 56.458C333.62 55.9228 333.439 55.3242 333.356 54.662C333.296 53.9858 333.359 53.2228 333.546 52.3732C333.811 51.1621 334.322 50.2132 335.079 49.5266C335.84 48.8219 336.774 48.3635 337.881 48.1516C339.007 47.9437 340.247 47.9883 341.603 48.2855C342.796 48.547 343.835 48.9074 344.719 49.3665C345.622 49.8296 346.409 50.3432 347.081 50.9074L344.772 54.1808C344.096 53.6347 343.4 53.1791 342.685 52.8138C341.973 52.4304 341.292 52.1674 340.641 52.0247C340.207 51.9296 339.839 51.9247 339.536 52.0098C339.237 52.0769 338.997 52.2231 338.815 52.4485C338.637 52.6557 338.512 52.9221 338.441 53.2474C338.358 53.627 338.393 53.9852 338.546 54.322C338.722 54.6447 339.04 55.0081 339.501 55.4122C339.962 55.8164 340.585 56.3415 341.372 56.9876C342.167 57.5975 342.816 58.223 343.319 58.8638C343.845 59.4906 344.186 60.1811 344.343 60.9354C344.522 61.6756 344.5 62.5518 344.278 63.5641ZM361.93 67.4339C361.689 68.5366 361.225 69.4863 360.539 70.2831C359.856 71.0619 358.924 71.5965 357.743 71.8869C356.584 72.1632 355.181 72.121 353.536 71.7604C352.687 71.5742 351.956 71.3665 351.343 71.1374C350.748 70.9123 350.197 70.659 349.691 70.3774C349.206 70.0817 348.704 69.7349 348.185 69.3369L349.107 65.1341C349.984 65.8 350.886 66.3956 351.812 66.9209C352.757 67.4501 353.646 67.8058 354.477 67.9881C354.965 68.0951 355.379 68.11 355.718 68.0327C356.061 67.9374 356.332 67.7791 356.532 67.5577C356.736 67.3183 356.876 67.0268 356.951 66.6834C357.042 66.2676 357.011 65.8913 356.858 65.5545C356.726 65.2036 356.446 64.8391 356.018 64.461C355.593 64.0648 355.019 63.6168 354.295 63.117C353.689 62.6812 353.151 62.2411 352.68 61.7969C352.213 61.3345 351.837 60.8448 351.553 60.3278C351.272 59.7926 351.091 59.194 351.009 58.5318C350.948 57.8556 351.012 57.0926 351.198 56.243C351.463 55.0319 351.974 54.083 352.731 53.3964C353.492 52.6916 354.426 52.2333 355.533 52.0214C356.659 51.8135 357.9 51.8581 359.255 52.1553C360.448 52.4168 361.487 52.7772 362.372 53.2363C363.274 53.6994 364.061 54.213 364.734 54.7772L362.424 58.0506C361.748 57.5045 361.053 57.0489 360.337 56.6836C359.625 56.3002 358.944 56.0372 358.293 55.8945C357.86 55.7994 357.491 55.7945 357.188 55.8796C356.889 55.9467 356.649 56.0929 356.467 56.3183C356.289 56.5255 356.164 56.7919 356.093 57.1172C356.01 57.4968 356.045 57.855 356.198 58.1918C356.374 58.5145 356.692 58.8779 357.153 59.282C357.614 59.6862 358.238 60.2113 359.024 60.8574C359.819 61.4673 360.468 62.0928 360.972 62.7336C361.497 63.3604 361.838 64.0509 361.995 64.8052C362.174 65.5454 362.152 66.4216 361.93 67.4339Z" fill="#CCC492"/>
<path d="M635.157 110.601L603.018 140.145C597.699 145.036 589.423 144.688 584.533 139.37L569.087 122.568C568.284 121.695 567.112 121.253 565.932 121.371L556.797 122.314C555.357 122.463 554.178 121.18 554.449 119.761L556.154 110.734C556.373 109.572 556.029 108.365 555.225 107.492L539.78 90.6898C534.889 85.371 535.237 77.0919 540.559 72.2045L572.695 42.6606C578.021 37.7627 586.296 38.114 591.194 43.4363L635.933 92.1021C640.83 97.4279 640.479 105.707 635.157 110.601Z" fill="white"/>
<path d="M566.308 120.741C567.526 120.741 568.709 121.252 569.537 122.153L584.982 138.951C587.239 141.407 590.311 142.833 593.64 142.973C596.983 143.101 600.155 141.95 602.604 139.696L634.74 110.152C637.196 107.894 638.625 104.819 638.765 101.487C638.907 98.1575 637.738 94.9711 635.481 92.5187L590.742 43.8529C588.485 41.397 585.41 39.9673 582.081 39.8282C578.741 39.696 575.565 40.8508 573.109 43.1119L540.974 72.6524C535.912 77.3067 535.578 85.2136 540.233 90.275L555.678 107.077C556.607 108.086 557.007 109.494 556.756 110.844L555.052 119.871C554.958 120.358 555.1 120.845 555.434 121.21C555.768 121.572 556.241 121.753 556.735 121.704L565.87 120.762C566.016 120.748 566.162 120.741 566.308 120.741ZM594.179 144.211C593.981 144.211 593.786 144.207 593.588 144.197C589.935 144.044 586.558 142.475 584.081 139.783L568.636 122.984C567.968 122.257 566.997 121.882 565.995 121.979L556.861 122.922C555.998 123.012 555.132 122.692 554.53 122.038C553.932 121.384 553.681 120.515 553.848 119.645L555.553 110.618C555.734 109.647 555.445 108.632 554.773 107.905L539.328 91.1064C534.218 85.5441 534.584 76.8649 540.146 71.7514L572.278 42.2075C577.84 37.0939 586.53 37.4592 591.643 43.0215L636.385 91.6873C638.862 94.3832 640.142 97.8827 639.989 101.539C639.836 105.195 638.267 108.576 635.571 111.053L603.436 140.597C600.886 142.938 597.62 144.211 594.179 144.211Z" fill="#554D4F"/>
<path d="M572.591 66.7503C573.257 67.4832 573.712 68.1791 573.958 68.8379C574.218 69.4974 574.265 70.1234 574.098 70.7161C573.946 71.3094 573.584 71.8657 573.012 72.3849C572.642 72.7212 572.26 72.9646 571.868 73.1151C571.476 73.2656 571.076 73.3349 570.668 73.3229C570.268 73.3189 569.867 73.2418 569.466 73.0915L567.848 78.8586L565.61 76.394L567.291 71.7389L566.775 71.171L563.537 74.1105L561.552 71.9238L570.178 64.0923L572.591 66.7503ZM570.939 68.1838L570.545 67.7489L568.382 69.7122L568.755 70.123C568.96 70.3485 569.175 70.5129 569.401 70.6163C569.635 70.7123 569.881 70.7319 570.138 70.675C570.41 70.6188 570.675 70.4737 570.933 70.2397C571.166 70.0277 571.319 69.8156 571.391 69.6034C571.478 69.392 571.481 69.1688 571.4 68.9338C571.334 68.6996 571.181 68.4496 570.939 68.1838ZM572.89 84.4131L568.525 79.6046L577.151 71.7732L581.517 76.5817L579.849 78.0953L577.469 75.4736L575.814 76.9762L578.03 79.4167L576.362 80.9304L574.147 78.4899L572.202 80.2558L574.582 82.8775L572.89 84.4131ZM578.689 90.7998L580.175 88.7229L577.784 86.0891L575.563 87.3565L573.38 84.9522L584.444 79.7338L587.088 82.6455L580.86 93.1919L578.689 90.7998ZM582.808 84.6798C582.948 84.4787 583.098 84.2549 583.256 84.0084C583.43 83.7626 583.607 83.5132 583.789 83.2601C583.979 82.9997 584.164 82.7507 584.345 82.513C584.098 82.6782 583.836 82.8427 583.559 83.0064C583.289 83.1628 583.024 83.3156 582.763 83.4647C582.517 83.6145 582.283 83.7457 582.062 83.8583L579.905 84.9786L581.485 86.7184L582.808 84.6798ZM591.81 91.0995C591.568 90.8337 591.285 90.6505 590.958 90.5501C590.64 90.4423 590.291 90.4216 589.91 90.4879C589.537 90.5623 589.148 90.7168 588.744 90.9514C588.34 91.186 587.924 91.4971 587.497 91.8847C586.918 92.4112 586.488 92.9257 586.21 93.4282C585.932 93.9308 585.808 94.41 585.84 94.8659C585.879 95.3299 586.089 95.7713 586.469 96.1901C586.784 96.5364 587.132 96.8305 587.513 97.0722C587.909 97.3147 588.333 97.5393 588.785 97.746L587.046 99.3254C586.563 99.1173 586.113 98.8568 585.697 98.5441C585.281 98.2313 584.883 97.8655 584.503 97.4467C583.698 96.5607 583.225 95.6753 583.083 94.7905C582.949 93.8984 583.091 93.0196 583.511 92.1542C583.938 91.2815 584.594 90.443 585.48 89.6386C586.133 89.0463 586.806 88.5898 587.499 88.269C588.2 87.9409 588.898 87.7628 589.592 87.7348C590.294 87.7147 590.973 87.8476 591.629 88.1335C592.293 88.4274 592.914 88.8925 593.491 89.5288C593.849 89.9234 594.181 90.4015 594.485 90.963C594.797 91.5172 595.021 92.0555 595.158 92.5781L592.911 93.4053C592.801 92.9764 592.667 92.5695 592.508 92.1844C592.35 91.7994 592.117 91.4378 591.81 91.0995ZM591.384 104.784L589.399 102.597L596.321 96.3119L594.523 94.3305L596.226 92.7839L601.809 98.9335L600.105 100.48L598.307 98.4987L591.384 104.784ZM594.176 106.039C594.571 105.681 594.951 105.549 595.316 105.643C595.689 105.731 596.018 105.932 596.304 106.246C596.581 106.552 596.742 106.891 596.786 107.262C596.838 107.627 596.666 107.988 596.271 108.347C595.901 108.683 595.529 108.815 595.155 108.743C594.781 108.671 594.455 108.482 594.177 108.176C593.892 107.862 593.728 107.511 593.685 107.124C593.642 106.737 593.806 106.375 594.176 106.039ZM593.43 112.281C593.203 112.031 593.018 111.803 592.874 111.596C592.73 111.388 592.612 111.202 592.52 111.036L594.175 109.533C594.26 109.676 594.353 109.826 594.453 109.985C594.538 110.143 594.65 110.299 594.789 110.452C595.023 110.71 595.254 110.867 595.482 110.925C595.711 110.982 595.963 110.936 596.24 110.788C596.524 110.648 596.859 110.402 597.246 110.051L605.28 102.757L607.276 104.956L599.339 112.162C598.541 112.886 597.791 113.346 597.089 113.544C596.378 113.748 595.72 113.728 595.116 113.483C594.511 113.253 593.949 112.853 593.43 112.281ZM607.546 117.561C607.055 118.007 606.509 118.304 605.909 118.452C605.317 118.593 604.688 118.532 604.023 118.269C603.374 118.006 602.716 117.509 602.051 116.776C601.707 116.397 601.427 116.049 601.212 115.73C601.003 115.42 600.826 115.111 600.679 114.803C600.547 114.497 600.425 114.16 600.312 113.792L602.184 112.092C602.378 112.71 602.607 113.302 602.873 113.87C603.145 114.445 603.45 114.918 603.786 115.289C603.983 115.506 604.176 115.654 604.365 115.732C604.562 115.803 604.746 115.82 604.917 115.782C605.097 115.737 605.263 115.645 605.416 115.506C605.601 115.338 605.714 115.147 605.755 114.933C605.812 114.72 605.802 114.45 605.725 114.123C605.657 113.789 605.534 113.378 605.357 112.892C605.215 112.477 605.107 112.083 605.033 111.71C604.967 111.329 604.953 110.967 604.993 110.622C605.041 110.27 605.158 109.922 605.344 109.576C605.546 109.232 605.836 108.888 606.214 108.544C606.754 108.054 607.322 107.773 607.918 107.702C608.523 107.623 609.126 107.722 609.729 107.997C610.339 108.281 610.919 108.725 611.467 109.329C611.95 109.861 612.325 110.387 612.592 110.908C612.867 111.437 613.069 111.952 613.199 112.451L610.978 113.233C610.84 112.741 610.662 112.286 610.443 111.867C610.233 111.441 609.996 111.083 609.733 110.793C609.557 110.6 609.382 110.472 609.208 110.41C609.042 110.34 608.877 110.328 608.713 110.374C608.557 110.413 608.407 110.498 608.262 110.63C608.093 110.783 607.988 110.967 607.947 111.181C607.921 111.395 607.95 111.677 608.033 112.028C608.116 112.379 608.236 112.843 608.393 113.42C608.566 113.983 608.664 114.504 608.687 114.982C608.726 115.462 608.654 115.909 608.472 116.323C608.306 116.739 607.997 117.152 607.546 117.561Z" fill="#FF9851"/>
<path d="M436.278 399.555L400.619 384.228C394.719 381.688 391.988 374.846 394.528 368.943L402.539 350.301C402.956 349.334 402.887 348.221 402.361 347.309L398.277 340.237C397.63 339.124 398.243 337.701 399.495 337.406L407.437 335.503C408.459 335.256 409.315 334.543 409.729 333.572L417.744 314.93C420.28 309.027 427.122 306.3 433.025 308.836L468.685 324.163C474.591 326.702 477.322 333.548 474.783 339.455L451.57 393.457C449.03 399.363 442.188 402.094 436.278 399.555Z" fill="white"/>
<path d="M428.445 308.503C424.169 308.503 420.096 311.004 418.301 315.171L410.29 333.813C409.803 334.954 408.787 335.81 407.576 336.099L399.635 338.002C399.228 338.099 398.897 338.374 398.734 338.756C398.57 339.143 398.595 339.57 398.803 339.932L402.891 347.004C403.51 348.083 403.59 349.405 403.099 350.546L395.085 369.187C392.684 374.771 395.276 381.265 400.859 383.665L436.515 398.992C439.225 400.154 442.22 400.196 444.958 399.107C447.695 398.015 449.842 395.921 451.007 393.214L474.216 339.216C476.616 333.629 474.025 327.127 468.438 324.727L432.782 309.397C431.367 308.792 429.895 308.503 428.445 308.503ZM440.874 401.121C439.232 401.121 437.59 400.787 436.031 400.116L400.376 384.789C394.17 382.124 391.293 374.906 393.961 368.704L401.976 350.062C402.313 349.272 402.258 348.361 401.83 347.617L397.746 340.544C397.339 339.845 397.29 339.017 397.61 338.273C397.93 337.529 398.563 336.996 399.349 336.808L407.291 334.909C408.126 334.707 408.825 334.119 409.163 333.33L417.177 314.691C419.845 308.486 427.06 305.605 433.266 308.273L468.922 323.6C471.931 324.894 474.254 327.281 475.465 330.321C476.679 333.361 476.634 336.69 475.34 339.699L452.13 393.698C450.84 396.707 448.45 399.03 445.413 400.244C443.945 400.829 442.408 401.121 440.874 401.121Z" fill="#7A7576"/>
<path d="M435.072 334.429L436.503 330.837L445.917 330.267L445.941 330.206C445.8 330.15 445.616 330.082 445.39 330.004C445.173 329.929 444.925 329.848 444.644 329.759C444.373 329.675 444.089 329.579 443.792 329.473C443.505 329.37 443.228 329.271 442.961 329.177L437.959 327.183L438.932 324.743L449.755 329.056L448.329 332.633L439.012 333.224L438.994 333.27C439.126 333.322 439.299 333.385 439.516 333.46C439.742 333.538 439.986 333.618 440.246 333.698C440.513 333.793 440.785 333.889 441.062 333.988C441.339 334.087 441.603 334.186 441.856 334.287L446.874 336.286L445.895 338.742L435.072 334.429ZM431.785 342.678L434.189 336.645L445.012 340.958L442.608 346.991L440.516 346.157L441.827 342.868L439.75 342.04L438.53 345.102L436.438 344.269L437.658 341.207L435.218 340.234L433.907 343.524L431.785 342.678ZM427.432 353.602L428.695 350.434L433.245 349.946L430.271 346.477L431.503 343.385L435.72 348.982L442.248 347.895L441.034 350.942L436.659 351.341L439.596 354.549L438.352 357.672L434.191 352.29L427.432 353.602ZM425.193 359.221L426.286 356.478L434.972 359.939L435.963 357.453L438.1 358.304L435.026 366.02L432.888 365.168L433.879 362.682L425.193 359.221ZM425.291 362.282C425.786 362.479 426.071 362.762 426.146 363.132C426.232 363.506 426.196 363.889 426.039 364.284C425.886 364.668 425.652 364.961 425.337 365.163C425.032 365.37 424.632 365.374 424.137 365.177C423.672 364.992 423.39 364.715 423.291 364.348C423.191 363.98 423.218 363.604 423.371 363.22C423.528 362.826 423.771 362.525 424.1 362.316C424.429 362.108 424.826 362.096 425.291 362.282ZM419.355 364.351C419.48 364.038 419.603 363.771 419.726 363.55C419.849 363.33 419.965 363.142 420.074 362.986L422.151 363.814C422.06 363.953 421.965 364.103 421.867 364.263C421.762 364.408 421.671 364.577 421.595 364.769C421.466 365.092 421.426 365.369 421.474 365.599C421.523 365.83 421.675 366.037 421.93 366.22C422.181 366.414 422.548 366.607 423.033 366.8L433.114 370.817L432.015 373.576L422.055 369.608C421.055 369.209 420.312 368.737 419.826 368.192C419.331 367.644 419.06 367.044 419.015 366.394C418.956 365.749 419.069 365.068 419.355 364.351ZM420.807 379.352C420.191 379.106 419.684 378.746 419.288 378.272C418.901 377.802 418.68 377.211 418.625 376.497C418.576 375.799 418.734 374.989 419.101 374.07C419.29 373.595 419.48 373.19 419.672 372.857C419.859 372.533 420.059 372.238 420.27 371.971C420.488 371.718 420.737 371.461 421.018 371.198L423.367 372.134C422.897 372.579 422.466 373.045 422.072 373.532C421.675 374.03 421.384 374.511 421.199 374.976C421.09 375.249 421.042 375.487 421.054 375.691C421.077 375.899 421.142 376.072 421.252 376.209C421.371 376.35 421.527 376.459 421.719 376.536C421.951 376.628 422.172 376.646 422.382 376.589C422.599 376.547 422.837 376.419 423.097 376.207C423.367 375.998 423.682 375.708 424.041 375.336C424.352 375.026 424.659 374.756 424.961 374.526C425.274 374.299 425.594 374.128 425.921 374.012C426.259 373.901 426.623 373.853 427.015 373.868C427.413 373.898 427.85 374.008 428.324 374.197C429.002 374.467 429.503 374.854 429.829 375.359C430.165 375.867 430.341 376.453 430.359 377.115C430.372 377.788 430.227 378.503 429.925 379.261C429.659 379.928 429.351 380.496 429 380.965C428.645 381.445 428.272 381.852 427.88 382.188L426.203 380.536C426.584 380.196 426.915 379.836 427.195 379.456C427.485 379.08 427.703 378.71 427.848 378.346C427.945 378.103 427.983 377.89 427.962 377.706C427.952 377.527 427.89 377.373 427.777 377.246C427.674 377.123 427.531 377.025 427.349 376.953C427.137 376.868 426.926 376.854 426.716 376.911C426.512 376.982 426.271 377.132 425.992 377.36C425.714 377.589 425.35 377.901 424.9 378.295C424.47 378.698 424.045 379.014 423.625 379.245C423.211 379.49 422.778 379.622 422.326 379.641C421.879 379.674 421.373 379.578 420.807 379.352Z" fill="#778065"/>
<path d="M529.493 586.385C529.493 586.385 509.505 531.485 523.694 513.609C537.883 495.736 553.384 512.513 553.384 512.513C553.384 512.513 555.777 474.147 575.153 454.037C594.529 433.931 618.229 443.403 623.548 459.224C628.87 475.048 606.489 488.792 598.109 493.05C589.725 497.311 577.164 508.892 581.954 513.052C586.741 517.212 601.17 509.699 599.747 528.421C598.324 547.143 529.493 586.385 529.493 586.385Z" fill="#16B1BD"/>
<path d="M523.881 605.055L522.688 604.766C533.207 561.422 586.795 473.953 587.334 473.076L588.378 473.716C587.842 474.593 534.351 561.899 523.881 605.055Z" fill="#231F20"/>
<path d="M541.848 558.754L540.836 558.069C541.598 556.945 559.683 530.542 576.527 528.998L576.638 530.219C560.372 531.711 542.033 558.486 541.848 558.754Z" fill="#231F20"/>
<path d="M537.416 568.164L536.268 567.733C536.324 567.583 541.723 552.493 527.934 531.326L528.96 530.658C543.114 552.382 537.653 567.531 537.416 568.164Z" fill="#231F20"/>
<path d="M518.132 576.814C518.132 576.814 558.06 534.16 552.021 512.15C545.986 490.141 525.145 499.492 525.145 499.492C525.145 499.492 537.999 463.266 528.064 437.165C518.132 411.065 492.617 410.481 481.516 422.948C470.413 435.412 485.607 456.837 491.643 464.041C497.682 471.249 504.695 486.83 498.656 488.778C492.617 490.726 482.296 478.154 476.257 495.933C470.218 513.709 518.132 576.814 518.132 576.814Z" fill="#16B1BD"/>
<path d="M517.179 596.393L515.968 596.191C523.27 552.385 508.329 451.094 508.18 450.075L509.39 449.894C509.543 450.917 524.508 552.399 517.179 596.393Z" fill="#231F20"/>
<path d="M517.607 546.551C517.548 546.231 511.182 514.408 496.805 506.651L497.389 505.573C512.274 513.605 518.549 544.985 518.81 546.318L517.607 546.551Z" fill="#231F20"/>
<path d="M499.55 594.536L504.886 622.233C505.168 623.711 506.465 624.779 507.968 624.779H540.215C541.721 624.779 543.018 623.711 543.297 622.233L548.636 594.536C549.009 592.595 547.52 590.8 545.554 590.8H502.632C500.663 590.8 499.177 592.595 499.55 594.536Z" fill="white"/>
<path d="M499.55 594.536L504.886 622.233C505.168 623.711 506.465 624.779 507.968 624.779H540.215C541.721 624.779 543.018 623.711 543.297 622.233L543.387 621.742C543.279 621.753 543.182 621.76 543.071 621.76H510.824C509.318 621.76 508.024 620.692 507.742 619.214L502.406 591.517C502.357 591.28 502.339 591.047 502.357 590.818C500.527 590.974 499.195 592.686 499.55 594.536Z" fill="#E7E9F3"/>
<path d="M500.151 594.417L505.487 622.114C505.713 623.303 506.757 624.166 507.967 624.166H540.217C541.428 624.166 542.472 623.303 542.694 622.117L548.034 594.417C548.176 593.673 547.982 592.914 547.498 592.33C547.018 591.745 546.308 591.412 545.554 591.412H502.631C501.876 591.412 501.166 591.745 500.686 592.33C500.203 592.911 500.008 593.673 500.151 594.421V594.417ZM540.217 625.391H507.967C506.169 625.391 504.617 624.11 504.283 622.343L498.947 594.65C498.735 593.544 499.024 592.413 499.74 591.547C500.457 590.684 501.507 590.187 502.631 590.187H545.554C546.674 590.187 547.728 590.684 548.444 591.547C549.161 592.413 549.45 593.544 549.237 594.65L543.898 622.347C543.564 624.11 542.012 625.391 540.217 625.391Z" fill="#231F20"/>
<path d="M519.217 556.998L517.992 556.946C518.02 556.271 518.945 540.193 540.488 525.767L541.17 526.783C520.18 540.84 519.224 556.842 519.217 556.998Z" fill="#231F20"/>
<path d="M79.544 132.113L104.164 164.576C108.239 169.95 107.187 177.61 101.813 181.687L78.5199 198.941C77.637 199.609 77.1232 200.66 77.1305 201.766L77.1991 210.337C77.2126 211.687 75.9169 212.671 74.62 212.292L66.3837 209.916C65.322 209.61 64.172 209.822 63.2888 210.49L44.8295 225.114C39.4564 229.188 31.7945 228.137 27.7189 222.763L3.09901 190.3C-0.981411 184.919 0.0715619 177.259 5.45159 173.179L62.4223 129.762C67.8023 125.681 75.4639 126.732 79.544 132.113Z" fill="white"/>
<path d="M69.7943 127.893C67.3492 127.893 64.8863 128.661 62.7929 130.248L5.82292 173.664C3.35066 175.539 1.75711 178.263 1.3362 181.331C0.913547 184.403 1.71398 187.457 3.58826 189.927L28.2078 222.393C30.0796 224.859 32.8013 226.452 35.8722 226.873C38.9466 227.294 41.9922 226.494 44.4613 224.623L62.9091 210.009C63.9495 209.219 65.3086 208.969 66.554 209.324L74.7913 211.703C75.2244 211.828 75.6742 211.745 76.0318 211.473C76.3894 211.202 76.5915 210.788 76.587 210.343L76.5188 201.768C76.5105 200.47 77.1206 199.232 78.1517 198.449L101.449 181.195C106.54 177.334 107.541 170.043 103.676 164.943L79.0572 132.481C76.7773 129.475 73.3042 127.893 69.7943 127.893ZM37.4773 228.209C36.889 228.209 36.2977 228.167 35.7046 228.087C32.3108 227.621 29.3008 225.861 27.2314 223.13L2.6125 190.668C0.540289 187.937 -0.344665 184.563 0.121469 181.168C0.588299 177.773 2.35057 174.76 5.08267 172.69L62.0523 129.274C67.688 124.991 75.7556 126.101 80.0333 131.743L104.652 164.206C106.722 166.933 107.606 170.307 107.14 173.703C106.673 177.094 104.913 180.103 102.183 182.173L78.886 199.43C78.1673 199.977 77.7377 200.846 77.7436 201.758L77.8118 210.329C77.8205 211.167 77.4424 211.939 76.7724 212.447C76.1035 212.955 75.2557 213.112 74.4504 212.879L66.2152 210.503C65.3441 210.249 64.384 210.43 63.6591 210.976L45.2116 225.59C42.9505 227.308 40.2574 228.209 37.4773 228.209Z" fill="#554D4F"/>
<path d="M19.4556 190.69L24.5469 197.32L32.2124 191.434L27.1214 184.804L29.1908 183.218L41.359 199.063L39.2896 200.653L33.5847 193.222L25.9192 199.108L31.6238 206.539L29.5783 208.107L17.4102 192.262L19.4556 190.69Z" fill="#2389D2"/>
<path d="M37.0829 179.924L32.2619 183.621L30.9258 181.882L42.6612 172.876L43.996 174.615L39.1513 178.334L49.9834 192.443L47.915 194.029L37.0829 179.924Z" fill="#2389D2"/>
<path d="M64.601 170.154C62.7862 168.036 60.6054 165.486 59.1124 163.493L59.0407 163.548C59.9257 165.82 60.7845 168.3 61.665 171.1L64.7707 180.938L63.2178 182.131L54.8608 176.548C52.3928 174.892 50.187 173.337 48.2956 171.796L48.2476 171.834C49.718 173.845 51.6417 176.593 53.3222 179.077L58.1168 186.194L56.1646 187.693L45.1016 170.996L47.7119 168.992L56.302 174.582C58.4581 176.03 60.3362 177.355 61.9986 178.694L62.0696 178.639C61.2417 176.732 60.4701 174.558 59.6411 172.019L56.5765 162.188L59.1865 160.184L72.3429 175.275L70.3431 176.809L64.601 170.154Z" fill="#2389D2"/>
<path d="M63.3203 157.009L65.3657 155.44L76.2159 169.57L82.9881 164.373L84.3051 166.088L75.4875 172.857L63.3203 157.009Z" fill="#2389D2"/>
</svg>
