<svg width="49" height="48" viewBox="0 0 49 48" fill="none" xmlns="http://www.w3.org/2000/svg">
<path fill-rule="evenodd" clip-rule="evenodd" d="M6.01781 0C2.83665 0 0.257812 2.57884 0.257812 5.76V42.24C0.257812 45.4212 2.83665 48 6.01781 48H42.4978C45.679 48 48.2578 45.4212 48.2578 42.24V5.76C48.2578 2.57884 45.679 0 42.4978 0H6.01781ZM17.0275 16.8496C17.5078 16.3698 17.7779 15.7188 17.7782 15.0398C17.7785 14.3608 17.5092 13.7096 17.0293 13.2292C16.5494 12.7489 15.8984 12.4789 15.2195 12.4785C14.5405 12.4782 13.8892 12.7476 13.4089 13.2274C12.9286 13.7073 12.6585 14.3583 12.6582 15.0372C12.6579 15.7162 12.9273 16.3675 13.4071 16.8478C13.887 17.3281 14.538 17.5982 15.2169 17.5985C15.8959 17.5989 16.5472 17.3295 17.0275 16.8496ZM12.735 19.4942H17.855V35.5198H12.735V19.4942ZM20.8502 19.4942H25.9446L25.8934 21.6446C28.0182 17.7662 37.055 17.4718 37.055 25.3694V35.5198H31.999V27.1102C31.999 21.9902 25.8934 22.4254 25.8934 27.1102V35.5198H20.8502V19.4942Z" fill="#F97316"/>
</svg>
