<svg width="49" height="48" viewBox="0 0 49 48" fill="none" xmlns="http://www.w3.org/2000/svg">
<path fill-rule="evenodd" clip-rule="evenodd" d="M6.09594 0C2.91478 0 0.335938 2.57884 0.335938 5.76V42.24C0.335938 45.4212 2.91477 48 6.09593 48H42.5759C45.7571 48 48.3359 45.4212 48.3359 42.24V5.76C48.3359 2.57884 45.7571 0 42.5759 0H6.09594ZM13.4051 32.3684C13.7994 32.7627 14.2913 32.9598 14.881 32.9598H33.7853C34.3732 32.9606 34.8648 32.7635 35.2599 32.3684C35.655 31.9733 35.8525 31.4814 35.8525 30.8926V17.1083C35.8516 16.5195 35.6541 16.0275 35.2599 15.6324C34.8656 15.2373 34.3741 15.0398 33.7853 15.0398H14.8797C14.2918 15.0406 13.8002 15.2382 13.4051 15.6324C13.01 16.0267 12.8125 16.5186 12.8125 17.1083V30.8913C12.8134 31.4818 13.0109 31.9742 13.4051 32.3684ZM34.5725 17.4526L24.3325 24.1483L14.0925 17.4526L14.4867 16.3198L24.3325 22.7198L34.1783 16.3198L34.5725 17.4526Z" fill="#F97316"/>
</svg>
