<svg width="49" height="48" viewBox="0 0 49 48" fill="none" xmlns="http://www.w3.org/2000/svg">
<path fill-rule="evenodd" clip-rule="evenodd" d="M6.42406 0C3.2429 0 0.664062 2.57884 0.664062 5.76V42.24C0.664062 45.4212 3.2429 48 6.42406 48H42.9041C46.0852 48 48.6641 45.4212 48.6641 42.24V5.76C48.6641 2.57884 46.0852 0 42.9041 0H6.42406ZM37.4672 23.9999C37.4672 16.9305 31.7366 11.1999 24.6672 11.1999C17.5978 11.1999 11.8672 16.9305 11.8672 23.9999C11.8632 26.263 12.4624 28.4862 13.6029 30.4408L11.8723 36.7999L18.2288 35.0655C20.1828 36.2051 22.4051 36.8038 24.6672 36.7999C31.7366 36.7999 37.4672 31.0693 37.4672 23.9999ZM20.049 17.9941L20.305 17.9839L20.0464 17.9928C20.218 17.9796 20.3904 17.9779 20.5622 17.9877C20.6314 17.9928 20.7005 17.9997 20.7696 18.0082C20.9731 18.0325 21.1971 18.1554 21.2726 18.3269C21.6549 19.1931 22.0253 20.0639 22.3837 20.9394C22.463 21.1327 22.4157 21.3823 22.2646 21.6255C22.1878 21.7496 22.0688 21.9237 21.928 22.1029C21.7834 22.2872 21.4723 22.6277 21.4723 22.6277C21.4723 22.6277 21.3456 22.7788 21.3942 22.9669C21.4276 23.0591 21.4714 23.1472 21.5248 23.2293L21.6003 23.3509C21.9635 23.9461 22.4024 24.4917 22.9059 24.974C22.9473 25.014 22.9884 25.0544 23.0295 25.0948C23.1411 25.2043 23.2527 25.314 23.3706 25.4168C23.9715 25.9474 24.6517 26.3806 25.3866 26.7007C25.4315 26.7197 25.4673 26.7353 25.505 26.7517C25.5585 26.7749 25.616 26.7999 25.7091 26.8389C25.7885 26.8729 25.8702 26.9012 25.9536 26.9234C26.0398 26.9456 26.1306 26.9416 26.2145 26.912C26.2984 26.8823 26.3715 26.8284 26.4246 26.757C27.3501 25.6357 27.4358 25.5628 27.4422 25.5653C27.5065 25.5051 27.583 25.4595 27.6665 25.4314C27.75 25.4034 27.8385 25.3936 27.9261 25.4028C28.0037 25.4064 28.0801 25.4242 28.1514 25.4552C28.8323 25.765 29.9459 26.2501 29.9459 26.2501L30.6909 26.5842C30.815 26.6444 30.929 26.7864 30.9341 26.9234C30.9343 26.9282 30.9345 26.9332 30.9348 26.9383C30.9388 27.025 30.9452 27.1616 30.9162 27.4008C30.8752 27.7324 30.7754 28.1304 30.6755 28.3391C30.6038 28.4859 30.5142 28.6147 30.4067 28.7256C30.2634 28.8754 30.1571 28.9663 29.9843 29.0943C29.8785 29.1728 29.8243 29.2095 29.8243 29.2095C29.6651 29.3105 29.5016 29.4045 29.3341 29.4911C29.0045 29.6662 28.6406 29.7671 28.2678 29.7868C28.2264 29.7888 28.1851 29.791 28.1437 29.7932C27.9474 29.8036 27.7518 29.814 27.5562 29.8034L26.8291 29.692C25.0093 29.2133 23.3263 28.3166 21.9139 27.0732C21.6648 26.8538 21.4309 26.6202 21.1958 26.3855C21.1579 26.3476 21.12 26.3098 21.0819 26.2719C19.9453 25.1391 19.0838 23.9167 18.5603 22.7621C18.3043 22.1912 18.1405 21.5807 18.1379 20.9535C18.1341 20.1769 18.389 19.4212 18.8624 18.8056C18.8766 18.7872 18.8906 18.7687 18.9048 18.75C18.9838 18.6455 19.0662 18.5367 19.1965 18.414C19.3073 18.2992 19.434 18.2009 19.5728 18.1221C19.7217 18.049 19.8834 18.0055 20.049 17.9941Z" fill="#F97316"/>
</svg>
